{"glyphs":{"0":{"ha":958,"x_min":0,"x_max":0,"o":"m 479 958 b 308 928 417 958 360 948 b 175 840 257 909 212 879 b 87 687 137 800 108 749 b 56 472 66 625 56 553 b 86 257 56 391 66 319 b 174 104 107 195 136 144 b 308 16 212 65 257 36 b 479 -14 359 -4 416 -14 b 651 16 542 -14 599 -4 b 784 104 702 36 747 65 b 872 257 822 144 851 195 b 903 472 892 319 903 391 b 872 687 903 553 892 625 b 784 840 851 749 822 800 b 651 928 747 879 702 909 b 479 958 599 948 542 958 z m 479 222 b 384 283 435 222 403 243 b 354 472 364 324 354 387 b 384 661 354 557 364 620 b 479 722 403 702 435 722 b 575 661 524 722 556 702 b 604 472 595 621 604 557 b 575 283 604 386 595 323 b 479 222 556 243 524 222 z "},"1":{"ha":576,"x_min":0,"x_max":0,"o":"m 201 0 l 493 0 l 493 945 l 271 945 l 14 833 l 92 576 l 201 618 z "},"2":{"ha":785,"x_min":0,"x_max":0,"o":"m 257 250 b 458 337 334 279 401 308 b 594 421 514 366 560 394 b 677 506 629 448 656 476 b 718 592 697 536 711 565 b 729 681 725 619 729 648 b 636 880 729 761 698 828 b 368 958 574 932 484 958 b 49 909 260 958 154 942 b 60 785 49 877 52 835 b 83 673 67 734 75 697 b 319 722 175 706 253 722 b 407 697 358 722 387 714 b 437 625 427 680 437 656 b 419 550 437 599 431 574 b 349 465 406 525 383 497 b 228 363 314 432 274 398 b 35 224 181 328 117 282 l 35 0 l 750 0 l 750 250 z "},"3":{"ha":840,"x_min":0,"x_max":0,"o":"m 590 507 b 711 589 640 525 680 552 b 757 715 741 626 757 668 b 659 898 757 797 724 858 b 375 958 594 938 499 958 b 69 909 276 958 174 942 b 80 785 69 877 73 835 b 104 673 87 734 95 697 b 347 722 210 706 291 722 b 452 660 417 722 452 701 b 419 607 452 635 441 618 b 319 590 398 596 365 590 l 215 590 l 215 354 l 347 354 b 449 340 394 354 428 349 b 479 292 469 331 479 315 b 441 240 479 269 467 251 b 340 222 415 228 382 222 b 213 236 302 222 260 227 b 90 271 166 245 125 257 b 66 159 82 247 74 210 b 56 35 59 109 56 67 b 375 -14 159 2 265 -14 b 674 58 501 -14 601 10 b 785 271 748 106 785 177 b 732 420 785 330 767 380 b 590 507 696 460 649 489 z "},"4":{"ha":861,"x_min":0,"x_max":0,"o":"m 472 945 l 28 403 l 28 153 l 472 153 l 472 0 l 764 0 l 764 153 l 833 153 l 833 403 l 764 403 l 764 945 z m 326 403 l 472 583 l 472 403 z "},"5":{"ha":777,"x_min":0,"x_max":0,"o":"m 319 639 l 319 694 l 708 694 l 708 945 l 77 945 l 62 403 b 293 391 159 403 236 399 b 415 355 351 382 391 371 b 452 292 440 339 452 318 b 423 241 452 271 442 254 b 347 222 404 229 378 222 b 69 271 265 222 172 238 b 45 159 61 247 53 210 b 35 35 38 109 35 67 b 354 -14 138 2 244 -14 b 531 14 421 -14 480 -5 b 653 86 583 32 623 56 b 721 188 683 117 706 151 b 743 306 736 225 743 264 b 718 424 743 347 735 386 b 644 527 701 461 677 496 b 511 604 611 558 567 584 b 319 639 455 624 391 636 z "},"6":{"ha":882,"x_min":0,"x_max":0,"o":"m 555 625 b 433 588 508 625 467 613 b 354 485 398 564 372 529 b 369 604 354 532 359 572 b 410 679 378 636 392 661 b 470 718 427 697 447 710 b 549 729 492 725 518 729 b 771 688 614 729 688 715 b 795 799 780 711 788 748 b 806 924 802 850 806 891 b 534 958 714 947 624 958 b 336 932 459 958 393 949 b 186 848 279 914 229 886 b 89 697 143 810 111 760 b 56 472 67 634 56 559 b 158 107 56 309 90 188 b 452 -14 227 27 325 -14 b 640 24 521 -14 584 -1 b 775 139 696 50 741 88 b 827 319 810 190 827 250 b 804 457 827 371 819 417 b 743 553 789 497 768 529 b 656 607 717 577 688 595 b 555 625 625 619 591 625 z m 458 222 b 389 262 428 222 405 236 b 358 382 372 288 362 328 b 444 403 387 396 416 403 b 542 313 509 403 542 373 b 519 247 542 285 534 263 b 458 222 504 231 484 222 z "},"7":{"ha":729,"x_min":0,"x_max":0,"o":"m 389 694 l 118 0 l 410 0 l 701 754 l 701 945 l 0 945 l 0 694 z "},"8":{"ha":944,"x_min":0,"x_max":0,"o":"m 729 500 b 824 578 768 519 800 545 b 861 694 849 610 861 649 b 849 767 861 719 857 744 b 808 838 841 791 827 815 b 735 900 788 862 764 882 b 624 942 706 917 669 931 b 472 958 579 953 528 958 b 319 942 415 958 365 953 b 207 899 274 931 236 917 b 132 836 177 881 152 860 b 90 761 112 811 98 786 b 77 681 81 735 77 708 b 208 465 77 593 120 521 b 101 378 168 445 132 416 b 56 250 71 341 56 298 b 60 200 56 233 57 216 b 78 150 64 184 69 167 b 110 100 86 132 97 115 b 162 55 123 84 140 70 b 237 19 184 41 209 29 b 340 -5 265 9 300 1 b 472 -14 380 -11 424 -14 b 648 6 538 -14 597 -7 b 769 56 699 20 740 36 b 842 126 799 76 823 99 b 880 200 861 152 873 177 b 889 271 886 224 889 247 b 729 500 889 366 836 442 z m 472 736 b 544 718 502 736 526 730 b 570 673 561 706 570 692 b 500 597 570 646 546 621 b 414 633 460 607 431 619 b 389 681 397 647 389 663 b 409 720 389 697 395 710 b 472 736 422 731 443 736 z m 472 208 b 378 225 430 208 398 214 b 347 271 357 237 347 252 b 424 361 347 302 373 332 b 538 315 474 345 512 330 b 576 264 564 300 576 283 b 472 208 576 227 542 208 z "},"9":{"ha":882,"x_min":0,"x_max":0,"o":"m 431 958 b 242 920 361 958 298 946 b 107 806 186 895 141 857 b 56 625 73 755 56 694 b 78 487 56 573 63 527 b 139 391 93 447 113 415 b 225 337 165 367 194 349 b 326 319 257 325 290 319 b 449 356 373 319 414 332 b 528 460 484 381 510 415 b 513 341 527 413 522 373 b 473 265 504 308 490 283 b 413 227 455 247 435 234 b 334 215 390 219 364 215 b 111 257 269 215 195 229 b 87 146 103 234 95 196 b 77 21 80 95 77 54 b 347 -14 168 -2 258 -14 b 546 13 422 -14 489 -5 b 696 96 603 31 653 58 b 793 247 738 134 771 184 b 827 472 815 310 827 385 b 724 837 827 635 792 756 b 431 958 655 918 558 958 z m 437 542 b 340 632 373 542 340 572 b 363 698 340 660 348 682 b 424 722 378 714 399 722 b 493 683 454 722 477 709 b 524 562 509 657 519 616 b 437 542 496 549 467 542 z "},"Ĩ":{"ha":694,"x_min":0,"x_max":0,"o":"m 570 1042 l 129 1042 l 129 -347 l 570 -347 z m 463 949 l 463 903 l 371 903 l 371 851 l 463 851 l 463 806 l 232 806 l 232 851 l 323 851 l 323 903 l 233 903 l 233 949 z m 371 770 l 371 672 l 463 672 l 463 625 l 232 625 l 232 770 z m 323 722 l 278 722 l 278 672 l 323 672 z m 463 587 l 463 542 l 371 542 l 371 444 l 232 444 l 232 490 l 323 490 l 323 542 l 232 542 l 232 587 z m 463 504 l 463 366 l 232 366 l 232 412 l 416 412 l 416 504 z m 463 335 l 463 178 l 232 178 l 232 335 l 278 335 l 278 224 l 416 224 l 416 289 l 371 289 l 371 257 l 323 257 l 323 335 z m 463 94 l 463 -62 l 232 -62 l 232 94 z m 416 49 l 278 49 l 278 -17 l 416 -17 z m 463 -94 l 463 -140 l 418 -140 l 321 -205 l 463 -205 l 463 -252 l 232 -252 l 232 -205 l 329 -140 l 232 -140 l 232 -94 z "}," ":{"ha":277,"x_min":0,"x_max":0,"o":""},"!":{"ha":458,"x_min":0,"x_max":0,"o":"m 139 347 l 319 347 l 375 562 l 375 1000 l 83 1000 l 83 562 z m 229 -14 b 389 139 287 30 340 81 b 229 292 340 197 287 248 b 69 139 160 238 107 187 b 229 -14 107 91 160 40 z "},"\"":{"ha":680,"x_min":0,"x_max":0,"o":"m 118 528 l 257 528 l 306 743 l 306 945 l 69 945 l 69 743 z m 424 528 l 562 528 l 611 743 l 611 945 l 375 945 l 375 743 z "},"#":{"ha":1208,"x_min":0,"x_max":0,"o":"m 1139 562 l 1139 764 l 983 764 l 1028 945 l 819 945 l 775 764 l 581 764 l 625 945 l 416 945 l 372 764 l 139 764 l 139 562 l 321 562 l 277 382 l 69 382 l 69 180 l 227 180 l 180 0 l 389 0 l 435 180 l 629 180 l 583 0 l 791 0 l 838 180 l 1069 180 l 1069 382 l 888 382 l 932 562 z m 679 382 l 485 382 l 529 562 l 724 562 z "},"$":{"ha":847,"x_min":0,"x_max":0,"o":"m 806 313 b 791 413 806 350 801 383 b 752 488 781 443 768 468 b 694 541 737 508 717 525 b 627 576 671 556 648 568 b 554 599 605 584 581 592 l 585 714 b 703 690 614 711 653 703 b 733 794 716 715 726 749 b 745 926 741 839 745 883 b 653 946 714 936 684 942 l 681 1083 l 500 1083 l 475 958 b 300 939 408 957 350 951 b 169 883 250 926 206 908 b 84 784 132 858 104 825 b 56 639 65 743 56 695 b 71 536 56 600 61 566 b 110 461 81 505 94 481 b 168 410 125 442 145 425 b 236 377 192 396 214 385 b 310 357 258 369 282 363 l 275 225 b 41 260 179 232 101 244 b 81 18 49 155 62 75 b 207 -5 97 9 139 1 l 180 -139 l 361 -139 l 386 -14 b 556 8 449 -13 506 -6 b 688 67 607 21 651 41 b 775 168 726 93 755 127 b 806 313 795 210 806 258 z m 347 676 b 404 718 347 698 366 712 l 385 639 b 347 676 360 647 347 660 z m 457 231 l 481 319 b 514 281 503 311 514 298 b 502 251 514 269 510 259 b 457 231 494 242 479 236 z "},"%":{"ha":1319,"x_min":0,"x_max":0,"o":"m 311 472 b 491 533 389 472 449 492 b 553 715 532 573 553 634 b 491 898 553 797 532 858 b 311 958 449 938 389 958 b 132 898 233 958 173 938 b 69 715 90 858 69 797 b 132 533 69 634 90 573 b 311 472 173 492 233 472 z m 340 0 l 562 0 l 979 945 l 757 945 z m 311 614 b 265 638 290 614 275 622 b 250 715 255 654 250 680 b 311 817 250 783 271 817 b 374 715 353 817 374 783 b 358 638 374 680 369 654 b 311 614 348 622 333 614 z m 1008 -14 b 1188 47 1087 -14 1146 7 b 1250 229 1229 87 1250 148 b 1188 412 1250 311 1229 371 b 1008 472 1146 452 1087 472 b 829 412 930 472 870 452 b 766 229 787 371 766 311 b 829 47 766 148 787 87 b 1008 -14 870 7 930 -14 z m 1008 127 b 962 152 988 127 972 136 b 947 229 952 168 947 194 b 1008 330 947 297 968 330 b 1071 229 1050 330 1071 297 b 1056 152 1071 194 1066 168 b 1008 127 1045 136 1030 127 z "},"&":{"ha":1104,"x_min":0,"x_max":0,"o":"m 1063 528 l 785 528 b 730 412 768 484 750 445 b 568 558 655 477 601 525 b 502 631 534 590 512 614 b 486 681 491 647 486 664 b 549 722 486 708 507 722 b 751 690 601 722 668 712 b 782 794 765 715 775 749 b 793 926 789 838 793 883 b 665 949 761 936 719 944 b 511 958 612 955 561 958 b 409 952 475 958 441 956 b 315 929 377 948 346 940 b 235 886 283 918 257 904 b 181 819 212 869 195 847 b 160 722 167 791 160 758 b 178 626 160 687 166 655 b 244 522 189 597 212 562 b 95 407 180 494 130 456 b 41 250 59 358 41 306 b 139 57 41 169 74 105 b 416 -14 205 10 297 -14 b 710 61 522 -14 620 11 b 833 -56 760 15 801 -24 l 1035 153 b 979 200 1023 163 1004 179 b 924 248 954 221 935 237 b 1063 528 987 333 1033 426 z m 444 222 b 361 244 408 222 380 230 b 334 298 343 258 334 276 b 379 379 334 330 349 357 b 528 235 420 338 469 290 b 444 222 501 227 474 222 z "},"'":{"ha":374,"x_min":0,"x_max":0,"o":"m 118 528 l 257 528 l 306 743 l 306 945 l 69 945 l 69 743 z "},"(":{"ha":493,"x_min":0,"x_max":0,"o":"m 313 -208 l 493 -208 b 342 93 435 -130 384 -30 b 278 472 299 216 278 343 b 342 851 278 601 299 728 b 493 1153 384 975 435 1075 l 313 1153 b 225 1041 283 1123 254 1086 b 143 887 196 996 169 945 b 80 690 117 829 96 763 b 56 472 64 618 56 545 b 80 254 56 399 64 326 b 143 58 96 181 117 116 b 225 -97 169 0 196 -52 b 313 -208 254 -142 283 -179 z "},")":{"ha":493,"x_min":0,"x_max":0,"o":"m 0 -208 l 180 -208 b 268 -97 210 -179 239 -142 b 350 58 297 -52 324 0 b 413 254 376 116 397 181 b 437 472 429 326 437 399 b 413 690 437 545 429 618 b 350 887 397 763 376 829 b 268 1041 324 945 297 996 b 180 1153 239 1086 210 1123 l 0 1153 b 151 851 58 1075 109 975 b 215 472 194 728 215 601 b 151 93 215 343 194 216 b 0 -208 109 -30 58 -130 z "},"*":{"ha":555,"x_min":0,"x_max":0,"o":"m 222 528 l 334 528 l 334 639 l 431 583 l 486 681 l 390 736 l 486 791 l 431 889 l 334 833 l 334 945 l 222 945 l 222 833 l 125 889 l 69 791 l 165 736 l 69 681 l 125 583 l 222 639 z "},"+":{"ha":694,"x_min":0,"x_max":0,"o":"m 625 576 l 452 576 l 452 750 l 243 750 l 243 576 l 69 576 l 69 368 l 243 368 l 243 195 l 452 195 l 452 368 l 625 368 z "},",":{"ha":374,"x_min":0,"x_max":0,"o":"m 153 -180 b 207 -98 173 -152 191 -125 b 254 -5 222 -72 238 -41 b 292 110 271 31 283 69 b 306 236 301 151 306 193 l 69 236 b 14 -174 69 92 51 -44 z "},"-":{"ha":625,"x_min":0,"x_max":0,"o":"m 69 243 l 555 243 l 555 452 l 69 452 z "},".":{"ha":458,"x_min":0,"x_max":0,"o":"m 229 -14 b 389 139 287 30 340 81 b 229 292 340 197 287 248 b 69 139 160 238 107 187 b 229 -14 107 91 160 40 z "},"/":{"ha":694,"x_min":0,"x_max":0,"o":"m 28 0 l 250 0 l 667 945 l 444 945 z "},":":{"ha":458,"x_min":0,"x_max":0,"o":"m 229 389 b 312 460 255 408 282 431 b 389 542 341 488 367 516 b 229 694 340 600 287 651 b 69 542 160 641 107 590 b 142 463 88 518 112 492 b 229 389 173 435 202 410 z m 229 -14 b 389 139 287 30 340 81 b 229 292 340 197 287 248 b 69 139 160 238 107 187 b 229 -14 107 91 160 40 z "},";":{"ha":458,"x_min":0,"x_max":0,"o":"m 229 389 b 312 460 255 408 282 431 b 389 542 341 488 367 516 b 229 694 340 600 287 651 b 69 542 160 641 107 590 b 142 463 88 518 112 492 b 229 389 173 435 202 410 z m 195 -180 b 249 -98 215 -152 233 -125 b 296 -5 264 -72 280 -41 b 334 110 313 30 325 69 b 347 236 343 151 347 193 l 111 236 b 56 -174 111 92 93 -44 z "},"<":{"ha":694,"x_min":0,"x_max":0,"o":"m 625 174 l 625 382 l 353 472 l 625 562 l 625 771 l 69 576 l 69 368 z "},"=":{"ha":694,"x_min":0,"x_max":0,"o":"m 69 534 l 625 534 l 625 743 l 69 743 z m 69 201 l 625 201 l 625 410 l 69 410 z "},">":{"ha":694,"x_min":0,"x_max":0,"o":"m 69 174 l 625 368 l 625 576 l 69 771 l 69 562 l 342 472 l 69 382 z "},"?":{"ha":736,"x_min":0,"x_max":0,"o":"m 167 334 l 347 334 l 361 375 b 523 413 420 375 474 388 b 642 525 572 438 612 476 b 688 694 673 574 688 631 b 579 929 688 795 651 873 b 260 1014 506 986 400 1014 b 41 990 193 1014 120 1006 b 52 882 41 959 45 923 b 77 782 59 840 68 807 b 260 806 133 798 194 806 b 332 795 288 806 312 802 b 376 766 352 788 367 778 b 397 730 386 753 393 742 b 403 694 401 719 403 707 b 397 658 403 682 401 670 b 376 623 393 646 386 634 b 332 594 367 611 352 601 b 260 583 312 587 288 583 l 167 583 z m 257 -14 b 416 139 315 30 368 81 b 257 292 368 197 315 248 b 97 139 188 238 135 187 b 257 -14 135 91 188 40 z "},"@":{"ha":1208,"x_min":0,"x_max":0,"o":"m 583 -167 l 600 -41 b 401 11 527 -41 461 -24 b 264 152 342 46 296 93 b 215 347 231 211 215 276 b 332 653 215 472 254 574 b 632 771 411 732 510 771 b 773 748 682 771 729 763 b 888 683 818 733 856 711 b 965 580 920 655 946 621 b 993 444 983 539 993 493 b 978 347 993 410 988 377 b 927 269 967 316 950 290 b 842 236 903 247 875 236 l 842 587 b 656 597 757 594 695 597 b 351 306 453 597 351 500 b 392 150 351 242 365 190 b 504 90 419 110 456 90 b 594 119 538 90 568 100 b 661 215 620 138 643 170 l 661 104 l 799 104 b 1048 201 905 104 988 137 b 1139 452 1108 265 1139 349 b 1070 688 1139 540 1116 618 b 886 847 1024 757 963 810 b 631 903 809 884 724 903 b 406 861 551 903 476 889 b 228 747 337 834 277 796 b 112 571 179 699 140 640 b 69 347 83 502 69 428 b 108 141 69 274 82 205 b 214 -22 134 77 169 23 b 377 -128 259 -67 313 -102 b 583 -167 441 -154 510 -167 z m 582 227 b 543 271 566 227 552 241 b 528 372 533 300 528 334 b 550 439 528 403 535 425 b 633 461 565 454 593 461 b 679 457 650 461 665 460 b 637 279 665 374 651 315 b 582 227 623 244 604 227 z "},"A":{"ha":1000,"x_min":0,"x_max":0,"o":"m 681 0 l 972 0 l 766 704 b 730 807 754 746 742 780 b 691 877 719 834 705 857 b 638 922 676 897 659 912 b 571 945 618 933 596 940 b 478 951 546 949 515 951 l 283 951 l 28 0 l 313 0 l 368 222 l 616 222 z m 418 429 l 479 673 l 486 673 l 557 429 z "},"B":{"ha":944,"x_min":0,"x_max":0,"o":"m 375 125 b 465 18 399 74 429 38 b 602 -14 502 -3 547 -14 b 735 8 651 -14 696 -6 b 829 68 774 23 805 43 b 884 156 853 94 872 123 b 903 264 896 189 903 225 b 868 392 903 309 891 352 b 766 489 845 432 811 465 b 839 574 798 512 823 541 b 864 682 856 608 864 644 b 779 873 864 762 836 826 b 545 945 723 921 644 945 l 83 945 l 83 0 l 375 0 z m 375 587 l 375 708 l 493 708 b 552 694 519 708 538 703 b 572 648 566 685 572 670 b 553 602 572 627 566 611 b 493 587 540 592 520 587 z m 524 236 l 375 236 l 375 366 l 524 366 b 584 351 551 366 571 361 b 604 302 598 342 604 326 b 583 253 604 280 597 264 b 524 236 569 242 549 236 z "},"C":{"ha":861,"x_min":0,"x_max":0,"o":"m 561 -14 b 682 -6 594 -14 635 -11 b 785 9 730 -1 764 5 b 809 120 794 33 802 70 b 819 244 816 170 819 212 b 561 222 739 230 653 222 b 354 472 423 222 354 306 b 561 722 354 639 423 722 b 682 715 594 722 634 720 b 785 700 729 710 763 705 b 809 810 794 723 802 760 b 819 935 816 861 819 902 b 699 951 790 940 750 946 b 561 958 648 956 602 958 b 185 837 397 958 272 918 b 56 472 99 756 56 635 b 185 107 56 309 99 188 b 561 -14 272 27 397 -14 z "},"D":{"ha":1027,"x_min":0,"x_max":0,"o":"m 83 0 l 498 0 b 849 119 650 0 767 40 b 972 472 931 198 972 316 b 849 826 972 628 931 746 b 498 945 767 905 650 945 l 83 945 z m 498 250 l 375 250 l 375 694 l 498 694 b 629 637 557 694 600 675 b 672 472 658 599 672 544 b 629 307 672 400 658 345 b 498 250 600 269 557 250 z "},"E":{"ha":847,"x_min":0,"x_max":0,"o":"m 83 0 l 764 0 b 785 116 773 27 780 66 b 791 250 789 167 791 211 l 375 250 l 375 347 l 701 347 b 723 466 711 376 718 415 b 729 597 727 517 729 561 l 375 597 l 375 694 l 764 694 b 785 811 773 722 780 760 b 791 945 789 861 791 906 l 83 945 z "},"F":{"ha":819,"x_min":0,"x_max":0,"o":"m 83 0 l 375 0 l 375 292 l 681 292 b 702 407 690 319 697 357 b 708 542 706 457 708 502 l 375 542 l 375 694 l 750 694 b 771 811 760 722 767 760 b 778 945 776 861 778 906 l 83 945 z "},"G":{"ha":958,"x_min":0,"x_max":0,"o":"m 590 472 l 590 222 l 555 222 b 404 284 487 222 437 243 b 354 472 371 325 354 388 b 406 661 354 557 371 620 b 570 722 440 702 495 722 b 833 700 667 722 755 715 b 858 810 843 723 851 760 b 868 935 865 861 868 902 b 570 958 769 950 670 958 b 56 472 227 958 56 796 b 183 107 56 309 98 187 b 555 -14 268 27 392 -14 b 875 37 677 -14 783 3 l 875 472 z "},"H":{"ha":1014,"x_min":0,"x_max":0,"o":"m 83 0 l 375 0 l 375 347 l 639 347 l 639 0 l 930 0 l 930 945 l 639 945 l 639 597 l 375 597 l 375 945 l 83 945 z "},"I":{"ha":757,"x_min":0,"x_max":0,"o":"m 49 0 l 681 0 b 702 118 690 28 697 67 b 708 250 706 169 708 213 l 521 250 l 521 694 l 681 694 b 702 812 690 722 697 761 b 708 945 706 864 708 908 l 49 945 l 49 694 l 229 694 l 229 250 l 49 250 z "},"J":{"ha":458,"x_min":0,"x_max":0,"o":"m 83 945 l 83 28 b 59 -150 83 -42 75 -101 b -28 -306 42 -198 13 -250 l 196 -306 b 290 -222 233 -280 264 -252 b 345 -132 315 -193 333 -163 b 369 -50 356 -102 364 -75 b 375 28 373 -26 375 0 l 375 945 z "},"K":{"ha":1055,"x_min":0,"x_max":0,"o":"m 83 945 l 83 0 l 375 0 l 375 945 z m 1042 945 l 722 945 l 375 472 l 637 87 b 681 36 653 65 668 48 b 740 5 695 24 714 14 b 839 -7 766 -3 799 -7 b 1042 0 923 -7 991 -5 l 708 493 z "},"L":{"ha":819,"x_min":0,"x_max":0,"o":"m 83 0 l 750 0 b 771 116 760 27 767 66 b 778 250 776 167 778 211 l 375 250 l 375 945 l 83 945 z "},"M":{"ha":1319,"x_min":0,"x_max":0,"o":"m 83 0 l 347 0 l 347 611 l 353 611 l 500 0 l 806 0 l 951 611 l 958 611 l 958 0 l 1236 0 l 1236 945 l 996 945 b 845 924 930 945 880 938 b 766 859 809 910 783 889 b 724 728 748 829 734 786 l 665 416 l 659 416 l 589 728 b 566 804 582 757 575 782 b 540 859 558 825 549 844 b 507 898 531 875 520 888 b 469 923 493 909 481 917 b 422 937 456 929 441 934 b 370 943 404 940 387 942 b 309 945 354 944 333 945 l 83 945 z "},"N":{"ha":1083,"x_min":0,"x_max":0,"o":"m 83 0 l 347 0 l 347 639 l 353 639 l 528 0 l 1000 0 l 1000 945 l 736 945 l 736 306 l 730 306 l 627 741 b 582 856 615 789 600 828 b 500 922 563 884 536 906 b 361 945 465 937 418 945 l 83 945 z "},"O":{"ha":1042,"x_min":0,"x_max":0,"o":"m 521 -14 b 865 107 670 -14 784 27 b 986 472 946 188 986 310 b 865 837 986 634 946 755 b 521 958 784 918 669 958 b 177 837 373 958 258 918 b 56 472 96 755 56 634 b 177 107 56 310 96 188 b 521 -14 257 27 372 -14 z m 521 222 b 354 472 410 222 354 306 b 521 722 354 639 410 722 b 688 472 632 722 688 639 b 521 222 688 306 632 222 z "},"P":{"ha":944,"x_min":0,"x_max":0,"o":"m 83 0 l 375 0 l 375 403 b 465 295 399 352 429 316 b 602 264 502 274 547 264 b 711 281 642 264 678 269 b 794 328 744 292 772 308 b 851 399 817 347 836 371 b 885 491 866 427 878 458 b 896 597 892 524 896 559 b 873 732 896 646 888 691 b 804 842 857 773 834 810 b 681 917 773 874 732 899 b 504 945 630 936 571 945 l 83 945 z m 375 514 l 375 694 l 489 694 b 597 604 561 694 597 664 b 573 539 597 578 589 556 b 503 514 556 522 533 514 z "},"Q":{"ha":1042,"x_min":0,"x_max":0,"o":"m 903 -292 b 835 25 970 -134 948 -29 l 659 109 b 902 262 764 134 845 185 b 986 542 958 339 986 432 b 958 701 986 599 977 652 b 875 833 939 751 911 794 b 731 925 838 872 790 902 b 528 958 671 947 604 958 b 334 930 455 958 391 949 b 186 844 277 911 228 882 b 89 692 144 805 112 755 b 56 472 67 629 56 556 b 58 398 56 444 56 419 b 65 328 59 376 62 353 b 83 259 69 302 75 279 b 112 194 90 239 100 217 b 158 130 124 171 139 150 b 221 67 176 109 197 89 b 308 5 246 46 274 26 b 419 -56 341 -15 378 -36 z m 549 160 l 521 174 b 425 247 479 199 447 224 b 373 336 402 270 385 300 b 354 472 360 372 354 418 b 521 722 354 639 410 722 b 688 472 632 722 688 639 b 670 342 688 423 682 379 b 626 248 659 305 644 274 b 549 160 608 223 582 194 z "},"R":{"ha":965,"x_min":0,"x_max":0,"o":"m 739 321 b 856 442 790 349 829 390 b 896 618 882 494 896 553 b 808 854 896 715 867 794 b 559 945 749 915 667 945 l 83 945 l 83 0 l 375 0 l 375 278 l 436 278 l 557 96 b 581 60 567 80 575 68 b 606 33 587 53 595 44 b 640 11 617 23 628 15 b 684 -1 651 6 666 2 b 747 -7 702 -5 723 -7 b 951 0 831 -7 899 -5 z m 375 694 l 503 694 b 597 611 566 694 597 667 b 573 550 597 585 589 564 b 503 528 557 535 533 528 l 375 528 z "},"S":{"ha":847,"x_min":0,"x_max":0,"o":"m 371 -14 b 547 6 436 -14 495 -7 b 684 64 599 19 645 38 b 774 166 723 90 753 124 b 806 313 795 208 806 257 b 786 428 806 356 799 395 b 734 509 773 462 756 489 b 661 561 713 529 688 546 b 576 593 633 575 605 586 b 492 613 548 600 520 607 b 419 628 465 619 440 624 b 367 647 397 633 380 639 b 347 676 354 655 347 664 b 475 722 347 707 390 722 b 703 690 543 722 619 712 b 733 794 716 715 726 749 b 745 926 741 839 745 883 b 490 958 674 948 589 958 b 310 941 422 958 362 952 b 174 886 257 929 212 911 b 86 786 135 861 106 828 b 56 639 66 745 56 696 b 71 533 56 600 61 564 b 113 457 82 502 96 477 b 174 407 131 438 151 421 b 247 374 197 392 222 381 b 323 354 272 366 297 359 b 395 340 348 349 372 344 b 456 328 418 336 439 332 b 498 310 474 324 488 318 b 514 281 509 302 514 293 b 509 260 514 273 512 266 b 488 242 505 254 498 248 b 440 228 478 236 462 231 b 358 222 418 224 391 222 b 188 234 306 222 249 226 b 41 260 126 242 78 250 b 81 18 49 155 62 75 b 195 -4 94 9 132 2 b 371 -14 258 -11 317 -14 z "},"T":{"ha":861,"x_min":0,"x_max":0,"o":"m 278 0 l 570 0 l 570 694 l 791 694 b 812 814 801 723 808 763 b 819 945 817 866 819 909 l 41 945 l 41 694 l 278 694 z "},"U":{"ha":1027,"x_min":0,"x_max":0,"o":"m 653 945 l 653 378 b 621 267 653 325 642 288 b 514 236 599 246 563 236 b 408 267 465 236 429 246 b 375 378 386 288 375 325 l 375 945 l 83 945 l 83 378 b 106 222 83 319 91 268 b 166 110 121 177 141 139 b 260 38 192 81 223 57 b 378 -2 297 19 337 6 b 514 -14 419 -10 465 -14 b 650 -2 563 -14 609 -10 b 768 38 691 6 731 19 b 862 110 805 57 836 81 b 922 222 887 139 907 177 b 945 378 937 268 945 319 l 945 945 z "},"V":{"ha":1000,"x_min":0,"x_max":0,"o":"m 277 -7 l 478 -7 b 620 14 539 -7 586 0 b 704 86 654 28 682 52 b 766 240 726 120 746 171 l 972 945 l 688 945 l 497 278 l 490 278 l 326 945 l 28 945 z "},"W":{"ha":1472,"x_min":0,"x_max":0,"o":"m 1160 945 l 1053 278 l 1046 278 l 896 945 l 618 945 l 469 278 l 463 278 l 326 945 l 28 945 l 249 -7 l 422 -7 b 537 3 469 -7 507 -4 b 618 40 567 10 594 22 b 677 115 642 59 662 84 b 718 240 693 147 706 189 l 753 392 l 846 -7 l 1026 -7 b 1141 3 1073 -7 1111 -4 b 1222 39 1171 9 1198 21 b 1279 115 1246 57 1265 83 b 1315 240 1294 147 1305 189 l 1444 945 z "},"X":{"ha":1014,"x_min":0,"x_max":0,"o":"m 673 488 l 986 945 l 665 945 l 518 721 l 368 945 l 28 945 l 345 469 l 14 0 l 335 0 l 497 237 l 593 94 b 639 37 610 68 625 49 b 699 5 653 24 673 14 b 798 -7 724 -3 757 -7 b 1000 0 883 -7 951 -5 z "},"Y":{"ha":1000,"x_min":0,"x_max":0,"o":"m 972 945 l 673 945 l 510 643 l 503 643 l 340 945 l 28 945 l 354 349 l 354 0 l 646 0 l 646 349 z "},"Z":{"ha":847,"x_min":0,"x_max":0,"o":"m 41 0 l 770 0 b 795 124 780 30 789 71 b 806 250 802 177 806 219 l 416 250 l 781 715 b 786 945 784 772 786 849 l 102 945 b 77 828 92 918 83 879 b 66 694 70 776 66 732 l 410 694 l 49 229 b 41 0 44 189 41 112 z "},"[":{"ha":500,"x_min":0,"x_max":0,"o":"m 83 -208 l 472 -208 l 472 -28 l 306 -28 l 306 972 l 472 972 l 472 1153 l 83 1153 z "},"\\":{"ha":694,"x_min":0,"x_max":0,"o":"m 444 0 l 667 0 l 250 945 l 28 945 z "},"]":{"ha":500,"x_min":0,"x_max":0,"o":"m 28 -208 l 416 -208 l 416 1153 l 28 1153 l 28 972 l 195 972 l 195 -28 l 28 -28 z "},"^":{"ha":833,"x_min":0,"x_max":0,"o":"m 216 222 l 416 422 l 616 222 l 764 370 l 416 717 l 69 370 z "},"_":{"ha":833,"x_min":0,"x_max":0,"o":"m 69 -278 l 764 -278 l 764 -69 l 69 -69 z "},"`":{"ha":486,"x_min":0,"x_max":0,"o":"m 354 750 l 416 861 l 146 1014 l 69 875 z "},"a":{"ha":826,"x_min":0,"x_max":0,"o":"m 488 708 b 339 695 433 708 384 704 b 217 653 295 687 254 673 b 122 576 179 633 147 607 b 63 458 97 545 77 505 b 41 294 48 410 41 356 b 100 73 41 204 61 130 b 262 -14 139 15 193 -14 b 388 23 310 -14 352 -1 b 479 147 423 47 454 89 l 479 0 l 757 0 l 757 694 b 488 708 644 703 554 708 z m 385 195 b 332 257 362 195 345 215 b 313 396 319 299 313 345 b 318 440 313 414 314 429 b 337 472 321 451 327 462 b 379 493 346 481 360 489 b 452 500 398 498 422 500 b 507 494 471 500 490 498 b 452 259 488 381 469 303 b 385 195 435 216 412 195 z "},"b":{"ha":826,"x_min":0,"x_max":0,"o":"m 564 708 b 439 671 516 708 474 696 b 347 547 404 647 373 606 l 347 1000 l 69 1000 l 69 0 b 339 -14 182 -9 272 -14 b 521 7 408 -14 468 -7 b 660 75 573 21 620 44 b 753 204 701 106 732 149 b 785 400 774 258 785 324 b 726 622 785 491 765 564 b 564 708 687 679 633 708 z m 375 195 b 319 200 356 195 337 196 b 374 435 339 314 357 392 b 441 500 392 478 414 500 b 494 437 464 500 481 479 b 514 298 507 395 514 349 b 509 254 514 280 512 266 b 490 223 506 243 499 232 b 448 201 481 213 467 206 b 375 195 429 197 404 195 z "},"c":{"ha":736,"x_min":0,"x_max":0,"o":"m 469 -14 b 653 9 529 -14 591 -6 b 677 108 662 33 670 66 b 688 218 684 150 688 187 b 469 195 607 203 534 195 b 356 234 414 195 376 208 b 326 347 336 261 326 298 b 332 407 326 370 328 390 b 353 455 336 424 343 440 b 397 488 363 469 377 481 b 469 500 416 496 440 500 b 653 476 535 500 597 492 b 677 575 662 500 670 534 b 688 685 684 617 688 654 b 469 708 611 700 538 708 b 149 617 327 708 220 678 b 41 347 77 557 41 467 b 469 -14 41 107 184 -14 z "},"d":{"ha":826,"x_min":0,"x_max":0,"o":"m 479 1000 l 479 708 b 334 694 426 708 377 703 b 214 651 291 685 251 671 b 121 574 177 631 146 605 b 62 456 96 543 76 503 b 41 294 48 409 41 355 b 100 73 41 204 61 130 b 262 -14 139 15 193 -14 b 388 23 310 -14 352 -1 b 479 147 423 47 454 89 l 479 0 l 757 0 l 757 1000 z m 385 195 b 332 257 362 195 345 215 b 313 396 319 299 313 345 b 318 440 313 414 314 429 b 337 472 321 451 327 462 b 379 493 346 481 360 489 b 452 500 398 498 422 500 b 507 494 471 500 490 498 b 452 259 488 381 469 303 b 385 195 435 216 412 195 z "},"e":{"ha":812,"x_min":0,"x_max":0,"o":"m 334 283 b 439 270 363 277 398 273 b 554 264 481 267 519 265 b 717 264 588 264 643 264 b 771 358 743 297 761 329 b 684 617 771 471 742 557 b 431 708 626 678 541 708 b 273 686 373 708 320 701 b 150 620 226 671 185 649 b 70 506 116 590 89 553 b 41 347 51 460 41 407 b 150 77 41 228 78 138 b 473 -14 223 17 330 -14 b 700 9 562 -14 637 -6 b 724 110 709 35 718 68 b 734 218 731 151 734 188 b 473 195 654 203 566 195 b 334 283 396 195 349 224 z m 418 500 b 474 479 443 500 462 493 b 497 412 486 465 493 443 b 328 374 439 410 383 397 b 353 467 330 413 338 444 b 418 500 368 489 390 500 z "},"f":{"ha":667,"x_min":0,"x_max":0,"o":"m 396 736 b 469 806 396 782 420 806 b 615 779 515 806 563 797 b 641 881 625 805 633 838 b 653 987 649 923 653 958 b 456 1014 591 1005 525 1014 b 319 999 405 1014 360 1009 b 213 951 279 988 244 972 b 143 864 183 929 159 900 b 118 736 126 828 118 785 l 118 694 l 28 694 b 14 486 18 629 14 560 l 118 486 l 118 0 l 396 0 l 396 494 b 585 486 447 489 510 486 b 594 517 586 490 589 501 b 603 549 599 534 602 545 b 610 574 604 553 607 561 b 617 604 614 588 616 597 b 621 630 618 610 619 619 b 625 662 623 641 624 651 b 625 694 625 672 625 683 b 396 675 547 694 470 688 z "},"g":{"ha":826,"x_min":0,"x_max":0,"o":"m 488 708 b 339 695 433 708 384 704 b 217 653 295 687 254 673 b 122 576 179 633 147 607 b 63 458 97 545 77 505 b 41 294 48 410 41 356 b 100 73 41 204 61 130 b 262 -14 139 15 193 -14 b 388 23 310 -14 352 -1 b 479 147 423 47 454 89 l 479 56 b 479 28 479 45 479 36 b 474 -1 478 21 477 11 b 461 -34 471 -14 467 -24 b 439 -63 456 -43 449 -53 b 403 -88 429 -73 417 -81 b 350 -105 389 -95 371 -100 b 277 -111 328 -109 304 -111 b 97 -98 214 -111 154 -107 b 118 -293 97 -179 104 -244 b 193 -312 131 -301 156 -307 b 313 -319 230 -317 270 -319 b 649 -225 465 -319 578 -288 b 757 56 721 -163 757 -69 l 757 694 b 488 708 644 703 554 708 z m 385 195 b 332 257 362 195 345 215 b 313 396 319 299 313 345 b 318 440 313 414 314 429 b 337 472 321 451 327 462 b 379 493 346 481 360 489 b 452 500 398 498 422 500 b 507 494 471 500 490 498 b 452 259 488 381 469 303 b 385 195 435 216 412 195 z "},"h":{"ha":847,"x_min":0,"x_max":0,"o":"m 562 708 b 438 670 514 708 473 695 b 347 542 403 645 373 602 l 347 1000 l 69 1000 l 69 0 l 347 0 b 349 137 347 51 348 97 b 354 256 350 177 352 216 b 365 357 357 295 360 329 b 383 433 370 385 376 411 b 409 483 390 455 398 472 b 444 500 419 494 431 500 b 489 472 467 500 482 490 b 500 375 496 453 500 421 l 500 0 l 778 0 l 778 444 b 765 551 778 484 774 519 b 731 627 756 582 745 607 b 681 674 717 646 700 662 b 623 701 662 687 643 696 b 562 708 604 706 583 708 z "},"i":{"ha":416,"x_min":0,"x_max":0,"o":"m 208 736 b 292 808 234 755 262 779 b 368 889 321 836 347 863 b 292 970 347 915 321 942 b 208 1042 262 998 234 1022 b 49 889 140 989 87 938 b 122 810 68 865 92 838 b 208 736 152 782 181 757 z m 69 0 l 347 0 l 347 694 l 69 694 z "},"j":{"ha":416,"x_min":0,"x_max":0,"o":"m 208 736 b 292 808 234 755 262 779 b 368 889 321 836 347 863 b 292 970 347 915 321 942 b 208 1042 262 998 234 1022 b 49 889 140 989 87 938 b 122 810 68 865 92 838 b 208 736 152 782 181 757 z m 69 28 b 44 -150 69 -43 61 -102 b -41 -306 28 -198 -1 -250 l 182 -306 b 259 -238 212 -285 237 -262 b 308 -170 280 -214 297 -191 b 334 -99 319 -148 328 -125 b 345 -34 340 -73 344 -51 b 347 28 347 -16 347 4 l 347 694 l 69 694 z "},"k":{"ha":861,"x_min":0,"x_max":0,"o":"m 69 1000 l 69 0 l 347 0 l 347 1000 z m 847 694 l 550 694 l 347 350 l 468 94 b 534 15 486 56 508 29 b 654 -7 561 0 601 -7 b 840 0 730 -7 792 -5 l 650 371 z "},"l":{"ha":416,"x_min":0,"x_max":0,"o":"m 69 0 l 347 0 l 347 1000 l 69 1000 z "},"m":{"ha":1278,"x_min":0,"x_max":0,"o":"m 993 708 b 864 666 943 708 900 694 b 771 525 828 638 797 591 b 740 613 765 559 754 588 b 689 670 725 638 708 657 b 628 699 669 683 649 693 b 562 708 607 705 585 708 b 436 669 513 708 471 695 b 345 534 400 642 370 598 b 326 694 342 579 336 633 l 56 694 b 69 444 65 583 69 500 l 69 0 l 347 0 b 349 137 347 51 348 97 b 354 256 350 177 352 216 b 365 357 357 295 360 329 b 383 433 370 385 376 411 b 409 483 390 455 398 472 b 444 500 419 494 431 500 b 489 472 467 500 482 490 b 500 375 496 453 500 421 l 500 0 l 778 0 b 780 137 778 51 778 97 b 785 256 781 177 782 216 b 796 357 787 295 791 329 b 813 433 801 385 806 411 b 839 483 820 455 829 472 b 875 500 849 494 861 500 b 920 472 898 500 913 490 b 930 375 927 453 930 421 l 930 0 l 1208 0 l 1208 444 b 1196 551 1208 484 1204 519 b 1162 627 1187 582 1176 607 b 1112 674 1148 646 1131 662 b 1054 701 1093 687 1073 696 b 993 708 1034 706 1014 708 z "},"n":{"ha":847,"x_min":0,"x_max":0,"o":"m 562 708 b 436 669 513 708 471 695 b 345 534 400 642 370 598 b 326 694 342 579 336 633 l 56 694 b 69 444 65 583 69 500 l 69 0 l 347 0 b 349 137 347 51 348 97 b 354 256 350 177 352 216 b 365 357 357 295 360 329 b 383 433 370 385 376 411 b 409 483 390 455 398 472 b 444 500 419 494 431 500 b 489 472 467 500 482 490 b 500 375 496 453 500 421 l 500 0 l 778 0 l 778 444 b 765 551 778 484 774 519 b 731 627 756 582 745 607 b 681 674 717 646 700 662 b 623 701 662 687 643 696 b 562 708 604 706 583 708 z "},"o":{"ha":861,"x_min":0,"x_max":0,"o":"m 432 -14 b 720 77 557 -14 653 17 b 819 347 786 138 819 228 b 720 617 819 467 786 557 b 432 708 653 678 557 708 b 142 617 306 708 210 678 b 41 347 75 557 41 467 b 142 77 41 228 75 138 b 432 -14 210 17 306 -14 z m 432 195 b 326 347 361 195 326 245 b 432 500 326 449 361 500 b 534 347 500 500 534 449 b 511 235 534 299 527 261 b 432 195 495 208 469 195 z "},"p":{"ha":826,"x_min":0,"x_max":0,"o":"m 785 400 b 726 622 785 491 765 564 b 564 708 687 679 633 708 b 436 670 514 708 472 695 b 345 541 401 645 370 602 b 326 694 341 582 335 633 l 56 694 b 69 444 65 583 69 500 l 69 -306 l 347 -306 l 347 -14 b 493 0 401 -13 450 -8 b 613 44 536 9 576 24 b 706 121 650 64 681 90 b 764 238 731 152 750 191 b 785 400 778 285 785 339 z m 375 195 b 319 200 356 195 337 196 b 374 435 339 314 357 392 b 441 500 392 478 414 500 b 494 437 464 500 481 479 b 514 298 507 395 514 349 b 509 254 514 280 512 266 b 490 223 506 243 499 232 b 448 201 481 213 467 206 b 375 195 429 197 404 195 z "},"q":{"ha":826,"x_min":0,"x_max":0,"o":"m 488 708 b 339 695 433 708 384 704 b 217 653 295 687 254 673 b 122 576 179 633 147 607 b 63 458 97 545 77 505 b 41 294 48 410 41 356 b 100 73 41 204 61 130 b 262 -14 139 15 193 -14 b 388 23 310 -14 352 -1 b 479 147 423 47 454 89 l 479 -306 l 757 -306 l 757 694 b 488 708 644 703 554 708 z m 385 195 b 332 257 362 195 345 215 b 313 396 319 299 313 345 b 318 440 313 414 314 429 b 337 472 321 451 327 462 b 379 493 346 481 360 489 b 452 500 398 498 422 500 b 507 494 471 500 490 498 b 452 259 488 381 469 303 b 385 195 435 216 412 195 z "},"r":{"ha":652,"x_min":0,"x_max":0,"o":"m 625 431 b 604 708 625 536 618 629 b 468 648 559 708 513 688 b 347 479 422 609 382 552 b 326 694 346 532 339 604 l 56 694 b 69 444 65 583 69 500 l 69 0 l 347 0 l 347 139 b 351 235 348 177 349 208 b 362 306 353 261 357 285 b 378 358 368 328 373 345 b 405 393 383 372 392 383 b 439 415 419 403 430 410 b 489 426 449 419 465 423 b 548 430 512 428 532 430 b 625 431 565 430 590 431 z "},"s":{"ha":708,"x_min":0,"x_max":0,"o":"m 325 -14 b 673 239 557 -14 673 71 b 659 321 673 270 669 297 b 620 378 649 345 636 364 b 566 414 604 392 586 404 b 504 435 545 424 525 431 b 441 447 483 439 462 443 b 387 456 421 451 403 453 b 348 466 371 458 358 461 b 334 485 339 471 334 477 b 418 514 334 504 362 514 b 603 488 465 514 526 505 b 637 677 620 536 631 600 b 418 708 560 698 487 708 b 144 645 299 708 208 687 b 49 458 81 602 49 540 b 67 364 49 422 55 391 b 116 302 80 337 96 316 b 182 266 136 287 158 275 b 255 246 206 257 230 250 b 321 235 279 242 301 238 b 370 223 341 232 358 228 b 389 203 382 218 389 211 b 370 185 389 194 382 188 b 289 180 357 182 330 180 b 157 190 251 180 208 184 b 35 211 107 196 66 203 b 79 17 43 140 58 76 b 182 -3 90 11 124 4 b 325 -14 240 -10 287 -14 z "},"t":{"ha":652,"x_min":0,"x_max":0,"o":"m 396 302 l 396 494 b 585 486 447 489 510 486 b 594 517 586 490 589 501 b 603 549 599 534 602 545 b 610 574 604 553 607 561 b 617 604 614 588 616 597 b 621 630 618 610 619 619 b 625 662 623 641 624 651 b 625 694 625 672 625 683 b 396 675 547 694 470 688 l 396 917 b 246 861 349 907 299 888 b 118 771 194 834 151 804 l 118 694 l 28 694 b 14 486 18 629 14 560 l 118 486 l 118 260 b 196 52 118 165 144 96 b 428 -14 249 8 326 -14 b 520 -7 458 -14 488 -11 b 593 12 551 -2 576 4 b 615 110 600 38 608 71 b 625 205 622 149 625 181 b 514 195 587 198 550 195 b 396 302 435 195 396 231 z "},"u":{"ha":847,"x_min":0,"x_max":0,"o":"m 778 694 l 500 694 b 498 558 500 643 499 598 b 493 439 497 518 495 478 b 482 337 490 399 487 366 b 464 261 477 309 471 284 b 438 211 457 239 449 222 b 403 195 428 200 416 195 b 358 223 380 195 365 204 b 347 319 351 242 347 274 l 347 694 l 69 694 l 69 250 b 82 144 69 210 73 175 b 116 68 91 113 102 87 b 166 20 130 48 147 32 b 224 -6 185 8 204 -1 b 285 -14 243 -11 264 -14 b 409 24 333 -14 374 -1 b 500 153 444 50 474 92 l 500 0 l 778 0 z "},"v":{"ha":805,"x_min":0,"x_max":0,"o":"m 205 -7 l 411 -7 b 506 5 446 -7 478 -3 b 573 36 533 14 556 24 b 617 82 590 48 605 63 b 646 134 630 101 640 118 b 664 191 653 150 659 169 l 791 694 l 514 694 l 414 257 l 407 257 l 306 694 l 14 694 z "},"w":{"ha":1305,"x_min":0,"x_max":0,"o":"m 1014 694 l 921 257 l 914 257 l 806 694 l 486 694 l 393 257 l 386 257 l 306 694 l 14 694 l 178 -7 l 355 -7 b 450 6 391 -7 422 -3 b 517 36 478 14 500 24 b 562 83 534 48 549 64 b 591 135 575 102 584 119 b 608 191 597 151 603 169 l 646 339 l 733 -7 l 911 -7 b 1005 5 946 -7 978 -3 b 1073 36 1033 14 1056 24 b 1117 82 1089 48 1104 63 b 1146 134 1130 101 1140 118 b 1164 191 1152 150 1158 169 l 1292 694 z "},"x":{"ha":861,"x_min":0,"x_max":0,"o":"m 583 368 l 827 694 l 534 694 l 440 568 l 349 694 l 35 694 l 277 350 l 14 0 l 306 0 l 416 149 l 454 94 b 490 48 468 74 480 59 b 526 18 499 37 511 27 b 575 -1 540 9 557 2 b 644 -7 594 -5 617 -7 b 847 0 731 -7 799 -5 z "},"y":{"ha":847,"x_min":0,"x_max":0,"o":"m 778 694 l 500 694 b 498 558 500 643 499 598 b 493 439 497 518 495 478 b 482 337 490 399 487 366 b 464 261 477 309 471 284 b 438 211 457 239 449 222 b 403 195 428 200 416 195 b 358 223 380 195 365 204 b 347 319 351 242 347 274 l 347 694 l 69 694 l 69 250 b 82 144 69 210 73 175 b 116 68 91 113 102 87 b 166 20 130 48 147 32 b 224 -6 185 8 204 -1 b 285 -14 243 -11 264 -14 b 409 24 333 -14 374 -1 b 500 153 444 50 474 92 l 500 56 b 499 28 500 45 500 36 b 494 -1 499 21 497 11 b 482 -34 491 -14 487 -24 b 459 -63 477 -43 469 -53 b 423 -88 449 -73 437 -81 b 370 -105 409 -95 391 -100 b 297 -111 348 -109 324 -111 b 118 -98 235 -111 175 -107 b 139 -293 118 -179 125 -244 b 214 -312 152 -301 177 -307 b 334 -319 251 -317 291 -319 b 670 -225 486 -319 599 -288 b 778 56 742 -163 778 -69 z "},"z":{"ha":736,"x_min":0,"x_max":0,"o":"m 41 0 l 660 0 b 685 105 670 30 678 65 b 694 208 691 145 694 180 l 401 208 l 669 507 b 676 694 674 562 676 624 l 87 694 b 53 486 64 633 53 564 l 315 486 l 47 187 b 41 0 43 146 41 83 z "},"{":{"ha":528,"x_min":0,"x_max":0,"o":"m 500 -208 l 500 -28 b 371 -7 439 -28 396 -21 b 334 69 346 6 334 32 b 347 179 334 93 338 130 b 361 278 356 228 361 261 b 354 344 361 303 358 325 b 329 400 349 363 341 382 b 276 445 317 418 299 433 b 187 469 252 457 222 465 l 187 475 b 276 499 222 479 252 487 b 329 544 299 511 317 526 b 354 601 341 563 349 581 b 361 667 358 620 361 642 b 347 766 361 684 356 717 b 334 875 338 814 334 850 b 371 952 334 912 346 938 b 500 972 396 966 439 972 l 500 1153 b 387 1148 458 1153 420 1151 b 283 1126 353 1144 319 1137 b 193 1081 247 1114 217 1100 b 134 1004 169 1062 150 1037 b 111 889 119 972 111 933 b 125 763 111 860 116 818 b 139 653 134 709 139 672 b 111 583 139 620 130 597 b 28 562 92 569 64 562 l 28 382 b 111 361 64 382 92 375 b 139 292 130 348 139 325 b 125 181 139 273 134 236 b 111 56 116 127 111 85 b 134 -60 111 11 119 -27 b 193 -136 150 -92 169 -118 b 283 -181 217 -155 247 -170 b 387 -203 319 -192 353 -200 b 500 -208 420 -207 458 -208 z "},"|":{"ha":389,"x_min":0,"x_max":0,"o":"m 83 -208 l 306 -208 l 306 1153 l 83 1153 z "},"}":{"ha":528,"x_min":0,"x_max":0,"o":"m 28 -208 b 141 -203 70 -208 108 -207 b 245 -181 175 -200 209 -192 b 334 -136 281 -170 310 -155 b 393 -60 358 -118 378 -92 b 416 56 409 -27 416 11 b 402 181 416 85 412 127 b 389 292 393 236 389 273 b 417 361 389 325 398 348 b 500 382 435 375 463 382 l 500 562 b 417 583 463 562 435 569 b 389 653 398 597 389 620 b 402 763 389 672 393 709 b 416 889 412 818 416 860 b 393 1004 416 933 409 972 b 334 1081 378 1037 358 1062 b 245 1126 310 1100 281 1114 b 141 1148 209 1137 175 1144 b 28 1153 108 1151 70 1153 l 28 972 b 157 952 88 972 131 966 b 195 875 182 938 195 912 b 181 766 195 850 190 814 b 167 667 171 717 167 684 b 174 601 167 642 169 620 b 199 544 179 581 187 563 b 252 499 210 526 228 511 b 340 475 276 487 305 479 l 340 469 b 252 445 305 465 276 457 b 199 400 228 433 210 418 b 174 344 187 382 179 363 b 167 278 169 325 167 303 b 181 179 167 261 171 228 b 195 69 190 130 195 94 b 157 -7 195 32 182 7 b 28 -28 132 -21 89 -28 z "},"~":{"ha":694,"x_min":0,"x_max":0,"o":"m 69 347 l 250 347 b 262 383 250 362 254 374 b 292 396 269 392 279 396 b 368 372 303 396 328 388 b 465 347 407 355 440 347 b 529 359 489 347 510 351 b 579 399 547 368 564 381 b 613 477 594 417 605 443 b 625 597 621 510 625 550 l 444 597 b 433 562 444 583 440 571 b 403 549 425 553 415 549 b 327 573 392 549 366 557 b 229 597 287 589 255 597 b 166 585 205 597 184 593 b 116 546 148 577 131 564 b 81 468 100 527 89 501 b 69 347 73 434 69 394 z "},"¡":{"ha":458,"x_min":0,"x_max":0,"o":"m 229 708 b 69 555 160 655 107 604 b 229 403 107 507 160 456 b 389 555 287 446 340 497 b 229 708 340 614 287 665 z m 139 347 l 83 132 l 83 -306 l 375 -306 l 375 132 l 319 347 z "},"¢":{"ha":736,"x_min":0,"x_max":0,"o":"m 583 490 b 653 476 614 486 638 481 b 677 575 662 500 670 534 b 688 685 684 617 688 654 b 583 701 643 693 608 699 l 583 833 l 403 833 l 403 705 b 41 347 162 687 41 568 b 403 -11 41 127 162 7 l 403 -139 l 583 -139 l 583 -4 b 653 9 606 -1 629 4 b 677 108 662 33 670 66 b 688 218 684 150 688 187 b 583 201 638 209 604 204 z m 326 347 b 343 438 326 384 332 414 b 403 490 354 463 374 480 l 403 204 b 343 255 374 214 354 231 b 326 347 332 279 326 310 z "},"£":{"ha":888,"x_min":0,"x_max":0,"o":"m 454 250 b 500 361 485 282 500 319 l 681 361 l 681 542 l 457 542 b 431 646 439 592 431 627 b 452 702 431 670 438 688 b 530 722 466 715 492 722 b 764 690 603 722 680 712 b 794 794 777 715 787 749 b 806 926 802 839 806 883 b 675 949 774 936 731 944 b 518 958 620 955 568 958 b 363 944 460 958 409 953 b 244 898 318 934 279 919 b 166 816 210 878 184 850 b 139 694 148 781 139 741 b 161 542 139 651 146 600 l 83 542 l 83 361 l 207 361 b 208 343 208 357 208 351 b 206 320 208 336 207 329 b 196 291 204 312 201 302 b 175 261 190 280 184 270 b 138 239 166 253 154 245 b 83 229 123 232 104 229 l 83 0 l 806 0 b 827 116 815 27 822 66 b 833 250 831 167 833 211 z "},"¤":{"ha":1083,"x_min":0,"x_max":0,"o":"m 216 0 l 328 111 b 542 53 393 72 464 53 b 755 111 619 53 690 72 l 867 0 l 1014 147 l 901 260 b 958 469 939 324 958 394 b 900 684 958 547 939 618 l 1014 798 l 867 945 l 751 829 b 542 886 687 867 617 886 b 332 829 466 886 396 867 l 216 945 l 69 798 l 183 684 b 125 469 144 618 125 547 b 182 260 125 394 144 324 l 69 147 z m 542 261 b 395 322 484 261 435 281 b 334 469 354 362 334 411 b 395 617 334 527 354 576 b 542 677 435 657 484 677 b 689 617 599 677 648 657 b 750 469 730 576 750 527 b 689 322 750 411 730 362 b 542 261 648 281 599 261 z "},"¥":{"ha":1000,"x_min":0,"x_max":0,"o":"m 972 945 l 673 945 l 510 643 l 503 643 l 340 945 l 28 945 l 309 431 l 187 431 l 187 250 l 354 250 l 354 0 l 646 0 l 646 250 l 812 250 l 812 431 l 692 431 z "},"¦":{"ha":389,"x_min":0,"x_max":0,"o":"m 83 542 l 306 542 l 306 1153 l 83 1153 z m 83 -208 l 306 -208 l 306 403 l 83 403 z "},"§":{"ha":708,"x_min":0,"x_max":0,"o":"m 660 472 b 641 572 660 510 654 544 b 592 637 629 600 612 622 b 526 676 572 653 550 666 b 453 697 502 686 478 693 b 387 709 429 702 407 706 b 338 722 367 712 351 717 b 319 742 326 727 319 733 b 338 759 319 751 326 756 b 419 764 351 762 378 764 b 604 737 466 764 528 755 b 639 928 621 786 633 849 b 383 958 562 948 476 958 b 35 705 151 958 35 874 b 42 651 35 685 37 667 b 63 607 47 635 54 621 b 100 572 72 594 84 582 b 151 544 116 561 133 552 b 219 522 169 536 192 528 b 303 505 247 515 275 510 b 405 492 331 500 365 496 b 523 481 445 488 484 484 b 660 472 561 478 607 475 z m 49 472 b 67 372 49 434 55 400 b 116 307 80 344 96 322 b 182 269 136 291 158 279 b 255 247 206 259 230 251 b 321 236 279 243 301 239 b 370 223 341 232 358 228 b 389 203 382 218 389 211 b 370 185 389 194 382 188 b 289 180 357 182 330 180 b 157 190 251 180 208 184 b 35 211 107 196 66 203 b 79 17 43 140 58 76 b 182 -3 90 11 124 4 b 325 -14 240 -10 287 -14 b 673 239 557 -14 673 71 b 665 299 673 261 671 281 b 637 347 659 317 650 333 b 592 384 624 361 609 373 b 525 412 575 394 552 404 b 439 433 497 420 468 427 b 331 449 411 439 374 445 b 202 461 287 454 244 458 b 49 472 159 465 109 468 z "},"¨":{"ha":736,"x_min":0,"x_max":0,"o":"m 507 1042 b 368 913 448 994 401 951 b 229 1042 327 958 281 1001 b 69 889 160 988 107 937 b 142 810 88 865 112 839 b 229 736 173 782 202 757 b 368 865 279 775 326 818 b 507 736 402 826 448 783 b 590 807 533 755 560 779 b 667 889 619 836 645 863 b 507 1042 618 947 565 998 z "},"©":{"ha":1042,"x_min":0,"x_max":0,"o":"m 521 56 b 747 116 602 56 678 76 b 912 281 816 157 871 212 b 972 507 952 351 972 426 b 912 733 972 589 952 664 b 747 898 871 803 817 858 b 521 958 678 938 603 958 b 294 898 439 958 363 938 b 130 733 225 858 170 803 b 69 507 89 664 69 589 b 130 281 69 426 89 351 b 295 116 170 212 225 157 b 521 56 364 76 439 56 z m 521 125 b 329 176 452 125 388 142 b 190 315 271 210 224 257 b 139 507 156 374 139 438 b 190 699 139 576 156 640 b 329 838 224 757 271 804 b 521 889 388 872 452 889 b 712 838 590 889 654 872 b 851 699 771 804 817 757 b 903 507 886 640 903 576 b 851 315 903 438 886 374 b 712 176 817 257 771 210 b 521 125 654 142 590 125 z m 557 264 b 667 273 579 264 616 267 b 681 340 672 287 677 309 b 688 414 686 370 688 395 b 557 406 632 408 588 406 b 473 507 501 406 473 439 b 557 608 473 575 501 608 b 667 600 602 608 639 606 b 681 666 672 614 677 636 b 688 741 686 696 688 721 b 557 750 639 747 595 750 b 293 507 381 750 293 669 b 557 264 293 345 381 264 z "},"ª":{"ha":521,"x_min":0,"x_max":0,"o":"m 310 958 b 132 911 233 958 173 943 b 69 751 90 880 69 827 b 99 642 69 708 79 672 b 182 597 119 612 146 597 b 242 611 205 597 225 602 b 285 659 258 621 273 636 l 285 604 l 452 604 l 452 951 b 310 958 392 956 344 958 z m 262 721 b 241 752 254 721 247 731 b 232 812 235 772 232 793 b 234 825 232 818 233 822 b 249 832 236 827 241 830 b 288 835 258 834 270 835 b 301 833 292 835 297 834 b 284 758 294 800 289 774 b 273 727 279 741 275 731 b 262 721 270 723 267 721 z m 69 416 l 452 416 l 452 534 l 69 534 z "},"«":{"ha":847,"x_min":0,"x_max":0,"o":"m 278 56 l 486 56 l 250 347 l 486 639 l 278 639 l 28 347 z m 611 56 l 819 56 l 583 347 l 819 639 l 611 639 l 361 347 z "},"¬":{"ha":694,"x_min":0,"x_max":0,"o":"m 416 278 l 625 278 l 625 660 l 69 660 l 69 452 l 416 452 z "},"­":{"ha":625,"x_min":0,"x_max":0,"o":"m 69 243 l 555 243 l 555 452 l 69 452 z "},"®":{"ha":1042,"x_min":0,"x_max":0,"o":"m 521 56 b 747 116 602 56 678 76 b 912 281 816 157 871 212 b 972 507 952 351 972 426 b 912 733 972 589 952 664 b 747 898 871 803 817 858 b 521 958 678 938 603 958 b 294 898 439 958 363 938 b 130 733 225 858 170 803 b 69 507 89 664 69 589 b 130 281 69 426 89 351 b 295 116 170 212 225 157 b 521 56 364 76 439 56 z m 521 125 b 329 176 452 125 388 142 b 190 315 271 210 224 257 b 139 507 156 374 139 438 b 190 699 139 576 156 640 b 329 838 224 757 271 804 b 521 889 388 872 452 889 b 712 838 590 889 654 872 b 851 699 771 804 817 757 b 903 507 886 640 903 576 b 851 315 903 438 886 374 b 712 176 817 257 771 210 b 521 125 654 142 590 125 z m 643 271 b 766 275 685 271 726 272 l 668 427 b 741 576 716 458 741 508 b 694 700 741 628 725 669 b 561 747 664 732 619 747 l 453 747 b 349 711 408 747 373 735 b 313 608 325 687 313 653 l 313 275 l 488 275 l 488 397 l 492 397 l 532 332 b 554 298 541 316 548 305 b 586 279 561 291 571 285 b 643 271 600 273 619 271 z m 488 547 l 488 574 b 494 591 488 581 490 587 b 511 597 498 595 504 597 l 526 597 b 553 592 538 597 547 596 b 561 572 558 588 561 582 b 526 547 561 556 549 547 z "},"¯":{"ha":611,"x_min":0,"x_max":0,"o":"m 69 812 l 542 812 l 542 965 l 69 965 z "},"°":{"ha":639,"x_min":0,"x_max":0,"o":"m 319 458 b 496 532 388 458 447 483 b 570 708 545 581 570 639 b 496 885 570 777 545 836 b 319 958 447 934 388 958 b 143 885 251 958 192 934 b 69 708 94 836 69 777 b 143 532 69 639 94 581 b 319 458 192 483 251 458 z m 319 639 b 271 660 301 639 285 646 b 250 708 257 673 250 689 b 271 757 250 727 257 743 b 319 778 285 771 301 778 b 369 758 339 778 355 771 b 389 708 382 744 389 727 b 368 659 389 689 382 673 b 319 639 355 646 338 639 z "},"±":{"ha":833,"x_min":0,"x_max":0,"o":"m 452 715 l 452 889 l 243 889 l 243 715 l 69 715 l 69 507 l 243 507 l 243 334 l 452 334 l 452 507 l 625 507 l 625 715 z m 69 49 l 625 49 l 625 257 l 69 257 z "},"²":{"ha":583,"x_min":0,"x_max":0,"o":"m 311 667 b 453 796 379 713 426 756 b 494 925 481 836 494 879 b 438 1045 494 973 476 1013 b 278 1092 401 1076 347 1092 b 86 1063 212 1092 148 1082 b 93 988 86 1044 88 1019 b 107 921 97 957 102 935 b 249 950 161 940 208 950 b 301 935 271 950 289 945 b 319 892 313 925 319 910 b 270 800 319 862 303 831 b 78 652 237 768 173 719 l 78 517 l 507 517 l 507 667 z "},"³":{"ha":583,"x_min":0,"x_max":0,"o":"m 395 821 b 467 870 425 831 449 848 b 494 946 485 893 494 918 b 265 1092 494 1043 418 1092 b 74 1063 199 1092 135 1082 b 80 988 74 1044 76 1019 b 94 921 85 957 89 935 b 249 950 157 940 208 950 b 311 913 290 950 311 938 b 232 871 311 885 285 871 l 170 871 l 170 729 l 249 729 b 307 722 274 729 294 727 b 328 692 321 717 328 707 b 304 660 328 678 320 667 b 244 650 288 653 268 650 b 94 679 192 650 142 659 b 80 612 89 665 85 642 b 74 538 76 581 74 556 b 265 509 135 518 199 509 b 445 551 341 509 401 523 b 511 679 489 580 511 622 b 479 768 511 715 501 744 b 395 821 458 792 430 809 z "},"´":{"ha":486,"x_min":0,"x_max":0,"o":"m 132 750 l 416 875 l 340 1014 l 69 861 z "},"µ":{"ha":847,"x_min":0,"x_max":0,"o":"m 778 694 l 500 694 b 498 558 500 643 499 598 b 493 439 497 518 495 478 b 482 337 490 399 487 366 b 464 261 477 309 471 284 b 438 211 457 239 449 222 b 403 195 428 200 416 195 b 358 223 380 195 365 204 b 347 319 351 242 347 274 l 347 694 l 69 694 l 69 -306 l 347 -306 l 347 -5 b 500 153 412 13 463 65 l 500 0 l 778 0 z "},"¶":{"ha":981,"x_min":0,"x_max":0,"o":"m 412 0 l 621 0 l 621 946 l 385 945 b 240 919 331 944 283 936 b 135 848 198 902 162 878 b 71 743 107 819 86 783 b 49 611 56 702 49 659 b 71 477 49 564 56 519 b 134 367 86 436 107 399 b 240 292 161 335 197 310 b 385 264 283 273 331 264 l 412 264 z m 690 0 l 899 0 l 899 945 l 690 945 z "},"·":{"ha":458,"x_min":0,"x_max":0,"o":"m 229 195 b 389 347 287 238 340 289 b 229 500 340 406 287 456 b 69 347 160 446 107 396 b 229 195 107 299 160 248 z "},"¸":{"ha":430,"x_min":0,"x_max":0,"o":"m 195 -319 b 273 -308 224 -319 251 -316 b 325 -277 295 -300 313 -290 b 352 -235 337 -264 346 -250 b 361 -187 358 -220 361 -204 b 348 -130 361 -166 357 -147 b 315 -90 340 -113 329 -100 b 274 -67 302 -80 288 -72 b 229 -56 259 -61 245 -57 l 236 0 l 146 0 l 132 -125 b 195 -180 174 -137 195 -155 b 180 -205 195 -191 190 -199 b 139 -215 170 -212 156 -215 b 82 -210 125 -215 106 -213 l 69 -302 b 195 -319 102 -314 144 -319 z "},"¹":{"ha":583,"x_min":0,"x_max":0,"o":"m 379 667 l 379 1083 l 245 1083 l 69 994 l 117 840 l 204 888 l 204 667 l 69 667 l 69 517 l 514 517 l 514 667 z "},"º":{"ha":548,"x_min":0,"x_max":0,"o":"m 275 958 b 122 913 208 958 157 943 b 69 778 87 883 69 838 b 122 643 69 718 87 673 b 275 597 157 613 208 597 b 479 778 411 597 479 658 b 275 958 479 898 411 958 z m 275 721 b 240 778 252 721 240 740 b 275 835 240 816 252 835 b 302 820 289 835 298 830 b 309 778 307 811 309 796 b 302 735 309 759 307 745 b 275 721 298 726 289 721 z m 479 534 l 69 534 l 69 416 l 479 416 z "},"»":{"ha":847,"x_min":0,"x_max":0,"o":"m 28 56 l 236 56 l 486 347 l 236 639 l 28 639 l 264 347 z m 361 56 l 570 56 l 819 347 l 570 639 l 361 639 l 597 347 z "},"¼":{"ha":1402,"x_min":0,"x_max":0,"o":"m 379 528 l 379 945 l 245 945 l 69 856 l 117 701 l 204 749 l 204 528 l 69 528 l 69 378 l 514 378 l 514 528 z m 431 0 l 597 0 l 1069 945 l 903 945 z m 1136 567 l 869 241 l 869 92 l 1136 92 l 1136 0 l 1311 0 l 1311 92 l 1353 92 l 1353 241 l 1311 241 l 1311 567 z m 1048 241 l 1136 350 l 1136 241 z "},"½":{"ha":1472,"x_min":0,"x_max":0,"o":"m 379 528 l 379 945 l 245 945 l 69 856 l 117 701 l 204 749 l 204 528 l 69 528 l 69 378 l 514 378 l 514 528 z m 431 0 l 597 0 l 1069 945 l 903 945 z m 1200 150 b 1342 280 1267 197 1315 240 b 1383 408 1370 319 1383 362 b 1327 528 1383 457 1365 497 b 1166 575 1289 559 1236 575 b 975 546 1100 575 1037 565 b 982 472 975 527 977 503 b 996 404 986 441 991 418 b 1137 433 1049 424 1097 433 b 1190 418 1160 433 1177 428 b 1208 375 1202 408 1208 394 b 1159 283 1208 345 1192 315 b 966 135 1127 252 1062 202 l 966 0 l 1396 0 l 1396 150 z "},"¾":{"ha":1375,"x_min":0,"x_max":0,"o":"m 395 682 b 467 732 425 693 449 710 b 494 807 485 754 494 779 b 265 953 494 904 418 953 b 74 924 199 953 135 943 b 80 849 74 905 76 880 b 94 782 85 818 89 796 b 249 811 157 801 208 811 b 311 774 290 811 311 799 b 232 732 311 746 285 732 l 170 732 l 170 590 l 249 590 b 307 583 274 590 294 588 b 328 553 321 578 328 568 b 304 522 328 539 320 529 b 244 511 288 515 268 511 b 94 541 192 511 142 521 b 80 473 89 526 85 504 b 74 399 76 442 74 417 b 265 370 135 379 199 370 b 445 413 340 370 400 384 b 511 541 489 441 511 484 b 479 630 511 576 501 606 b 395 682 458 653 430 671 z m 403 0 l 570 0 l 1042 945 l 875 945 z m 1108 567 l 842 241 l 842 92 l 1108 92 l 1108 0 l 1283 0 l 1283 92 l 1325 92 l 1325 241 l 1283 241 l 1283 567 z m 1021 241 l 1108 350 l 1108 241 z "},"¿":{"ha":736,"x_min":0,"x_max":0,"o":"m 479 708 b 396 636 454 689 426 665 b 319 555 366 608 341 581 b 396 474 341 530 366 503 b 479 403 426 446 454 422 b 639 555 547 455 600 506 b 479 708 600 605 547 656 z m 570 361 l 389 361 l 375 319 b 213 281 316 319 262 307 b 94 170 164 256 125 219 b 49 0 64 120 49 64 b 157 -235 49 -100 85 -179 b 476 -319 230 -291 336 -319 b 694 -296 543 -319 615 -312 b 684 -186 694 -264 691 -228 b 660 -87 677 -145 669 -112 b 476 -111 603 -103 542 -111 b 416 -104 453 -111 433 -109 b 374 -85 398 -99 384 -92 b 350 -58 364 -77 356 -68 b 337 -28 343 -47 339 -37 b 334 0 335 -19 334 -9 b 337 29 334 10 335 20 b 350 58 339 38 343 48 b 374 85 356 69 364 78 b 416 104 384 93 398 99 b 476 111 433 109 453 111 l 570 111 z "},"À":{"ha":1000,"x_min":0,"x_max":0,"o":"m 618 1111 l 347 1264 l 271 1125 l 555 1000 z m 681 0 l 972 0 l 766 704 b 730 807 754 746 742 780 b 691 877 719 834 705 857 b 638 922 676 897 659 912 b 571 945 618 933 596 940 b 478 951 546 949 515 951 l 283 951 l 28 0 l 313 0 l 368 222 l 616 222 z m 418 429 l 479 673 l 486 673 l 557 429 z "},"Á":{"ha":1000,"x_min":0,"x_max":0,"o":"m 701 1125 l 625 1264 l 354 1111 l 416 1000 z m 681 0 l 972 0 l 766 704 b 730 807 754 746 742 780 b 691 877 719 834 705 857 b 638 922 676 897 659 912 b 571 945 618 933 596 940 b 478 951 546 949 515 951 l 283 951 l 28 0 l 313 0 l 368 222 l 616 222 z m 418 429 l 479 673 l 486 673 l 557 429 z "},"Â":{"ha":1000,"x_min":0,"x_max":0,"o":"m 486 1128 l 555 1014 l 722 1014 l 570 1264 l 403 1264 l 250 1014 l 416 1014 z m 681 0 l 972 0 l 766 704 b 730 807 754 746 742 780 b 691 877 719 834 705 857 b 638 922 676 897 659 912 b 571 945 618 933 596 940 b 478 951 546 949 515 951 l 283 951 l 28 0 l 313 0 l 368 222 l 616 222 z m 418 429 l 479 673 l 486 673 l 557 429 z "},"Ã":{"ha":1000,"x_min":0,"x_max":0,"o":"m 424 1083 b 465 1067 433 1083 447 1078 b 528 1036 483 1057 504 1047 b 597 1021 552 1026 575 1021 b 703 1069 640 1021 675 1037 b 743 1229 730 1101 743 1155 l 590 1229 b 578 1188 590 1211 586 1197 b 549 1174 571 1179 561 1174 b 508 1190 540 1174 526 1179 b 444 1221 489 1200 468 1210 b 375 1236 420 1231 397 1236 b 270 1188 332 1236 297 1220 b 229 1028 243 1155 229 1102 l 382 1028 b 393 1069 382 1046 386 1060 b 424 1083 401 1078 411 1083 z m 681 0 l 972 0 l 766 704 b 730 807 754 746 742 780 b 691 877 719 834 705 857 b 638 922 676 897 659 912 b 571 945 618 933 596 940 b 478 951 546 949 515 951 l 283 951 l 28 0 l 313 0 l 368 222 l 616 222 z m 418 429 l 479 673 l 486 673 l 557 429 z "},"Ä":{"ha":1000,"x_min":0,"x_max":0,"o":"m 347 986 b 486 1116 397 1025 444 1069 b 625 986 520 1076 566 1033 b 785 1139 683 1029 736 1080 b 708 1221 763 1165 737 1192 b 625 1292 678 1249 651 1273 b 486 1162 566 1245 520 1202 b 347 1292 444 1209 397 1253 b 260 1217 320 1271 291 1246 b 187 1139 230 1189 206 1163 b 347 986 225 1090 278 1039 z m 681 0 l 972 0 l 766 704 b 730 807 754 746 742 780 b 691 877 719 834 705 857 b 638 922 676 897 659 912 b 571 945 618 933 596 940 b 478 951 546 949 515 951 l 283 951 l 28 0 l 313 0 l 368 222 l 616 222 z m 418 429 l 479 673 l 486 673 l 557 429 z "},"Å":{"ha":1000,"x_min":0,"x_max":0,"o":"m 486 986 b 606 1030 535 986 575 1001 b 653 1139 637 1060 653 1096 b 606 1247 653 1182 637 1218 b 486 1292 575 1277 535 1292 b 367 1247 438 1292 398 1277 b 319 1139 335 1218 319 1182 b 367 1030 319 1096 335 1060 b 486 986 398 1001 438 986 z m 486 1181 b 517 1168 499 1181 510 1177 b 528 1139 524 1160 528 1150 b 517 1109 528 1127 524 1118 b 486 1097 510 1101 499 1097 b 455 1109 473 1097 463 1101 b 444 1139 448 1118 444 1127 b 455 1168 444 1150 448 1160 b 486 1181 463 1177 473 1181 z m 681 0 l 972 0 l 766 704 b 730 807 754 746 742 780 b 691 877 719 834 705 857 b 638 922 676 897 659 912 b 571 945 618 933 596 940 b 478 951 546 949 515 951 l 283 951 l 28 0 l 313 0 l 368 222 l 616 222 z m 418 429 l 479 673 l 486 673 l 557 429 z "},"Æ":{"ha":1402,"x_min":0,"x_max":0,"o":"m 930 347 l 1257 347 b 1278 466 1267 376 1274 415 b 1284 597 1282 517 1284 561 l 930 597 l 930 694 l 1320 694 b 1341 811 1329 722 1336 760 b 1348 945 1345 861 1348 906 l 326 945 l 28 0 l 313 0 l 386 222 l 639 222 l 639 0 l 1320 0 b 1341 116 1329 27 1336 66 b 1348 250 1345 167 1348 211 l 930 250 z m 454 429 l 542 694 l 639 694 l 639 429 z "},"Ç":{"ha":861,"x_min":0,"x_max":0,"o":"m 354 472 b 561 722 354 639 423 722 b 682 715 594 722 634 720 b 785 700 729 710 763 705 b 809 810 794 723 802 760 b 819 935 816 861 819 902 b 699 951 790 940 750 946 b 561 958 648 956 602 958 b 185 837 397 958 272 918 b 56 472 99 756 56 635 b 157 138 56 329 89 218 b 450 -7 224 58 322 10 l 437 -125 b 500 -180 479 -137 500 -155 b 485 -205 500 -191 495 -199 b 444 -215 475 -212 461 -215 b 387 -210 431 -215 412 -213 l 375 -302 b 500 -319 408 -314 450 -319 b 578 -308 530 -319 556 -316 b 630 -277 601 -300 618 -290 b 658 -235 643 -264 652 -250 b 667 -187 664 -220 667 -204 b 654 -130 667 -166 662 -147 b 621 -90 646 -113 635 -100 b 579 -67 607 -80 593 -72 b 534 -56 565 -61 550 -57 l 541 -14 l 561 -14 b 682 -6 594 -14 635 -11 b 785 9 730 -1 764 5 b 809 120 794 33 802 70 b 819 244 816 170 819 212 b 561 222 739 230 653 222 b 354 472 423 222 354 306 z "},"È":{"ha":847,"x_min":0,"x_max":0,"o":"m 521 1000 l 583 1111 l 313 1264 l 236 1125 z m 83 0 l 764 0 b 785 116 773 27 780 66 b 791 250 789 167 791 211 l 375 250 l 375 347 l 701 347 b 723 466 711 376 718 415 b 729 597 727 517 729 561 l 375 597 l 375 694 l 764 694 b 785 811 773 722 780 760 b 791 945 789 861 791 906 l 83 945 z "},"É":{"ha":847,"x_min":0,"x_max":0,"o":"m 382 1000 l 667 1125 l 590 1264 l 319 1111 z m 83 0 l 764 0 b 785 116 773 27 780 66 b 791 250 789 167 791 211 l 375 250 l 375 347 l 701 347 b 723 466 711 376 718 415 b 729 597 727 517 729 561 l 375 597 l 375 694 l 764 694 b 785 811 773 722 780 760 b 791 945 789 861 791 906 l 83 945 z "},"Ê":{"ha":847,"x_min":0,"x_max":0,"o":"m 215 1014 l 382 1014 l 452 1128 l 521 1014 l 688 1014 l 534 1264 l 368 1264 z m 83 0 l 764 0 b 785 116 773 27 780 66 b 791 250 789 167 791 211 l 375 250 l 375 347 l 701 347 b 723 466 711 376 718 415 b 729 597 727 517 729 561 l 375 597 l 375 694 l 764 694 b 785 811 773 722 780 760 b 791 945 789 861 791 906 l 83 945 z "},"Ë":{"ha":847,"x_min":0,"x_max":0,"o":"m 313 986 b 452 1116 363 1025 409 1069 b 590 986 487 1075 533 1032 b 673 1058 616 1005 644 1029 b 750 1139 703 1086 729 1113 b 673 1220 729 1164 703 1192 b 590 1292 644 1249 616 1272 b 452 1162 533 1246 487 1203 b 313 1292 409 1209 363 1253 b 226 1217 285 1271 256 1246 b 153 1139 196 1189 171 1163 b 313 986 190 1090 243 1039 z m 375 347 l 701 347 b 723 466 711 376 718 415 b 729 597 727 517 729 561 l 375 597 l 375 694 l 764 694 b 785 811 773 722 780 760 b 791 945 789 861 791 906 l 83 945 l 83 0 l 764 0 b 785 116 773 27 780 66 b 791 250 789 167 791 211 l 375 250 z "},"Ì":{"ha":757,"x_min":0,"x_max":0,"o":"m 449 1000 l 511 1111 l 240 1264 l 164 1125 z m 49 0 l 681 0 b 702 118 690 28 697 67 b 708 250 706 169 708 213 l 521 250 l 521 694 l 681 694 b 702 812 690 722 697 761 b 708 945 706 864 708 908 l 49 945 l 49 694 l 229 694 l 229 250 l 49 250 z "},"Í":{"ha":757,"x_min":0,"x_max":0,"o":"m 310 1000 l 595 1125 l 518 1264 l 248 1111 z m 49 0 l 681 0 b 702 118 690 28 697 67 b 708 250 706 169 708 213 l 521 250 l 521 694 l 681 694 b 702 812 690 722 697 761 b 708 945 706 864 708 908 l 49 945 l 49 694 l 229 694 l 229 250 l 49 250 z "},"Î":{"ha":757,"x_min":0,"x_max":0,"o":"m 143 1014 l 310 1014 l 379 1128 l 449 1014 l 615 1014 l 463 1264 l 296 1264 z m 49 0 l 681 0 b 702 118 690 28 697 67 b 708 250 706 169 708 213 l 521 250 l 521 694 l 681 694 b 702 812 690 722 697 761 b 708 945 706 864 708 908 l 49 945 l 49 694 l 229 694 l 229 250 l 49 250 z "},"Ï":{"ha":757,"x_min":0,"x_max":0,"o":"m 240 986 b 379 1116 290 1025 337 1069 b 518 986 413 1076 459 1033 b 677 1139 576 1029 629 1080 b 601 1221 656 1165 630 1192 b 518 1292 571 1249 543 1273 b 379 1162 459 1245 413 1202 b 240 1292 337 1209 290 1253 b 154 1218 212 1271 184 1246 b 81 1139 124 1189 100 1163 b 240 986 119 1089 172 1039 z m 521 694 l 681 694 b 702 812 690 722 697 761 b 708 945 706 864 708 908 l 49 945 l 49 694 l 229 694 l 229 250 l 49 250 l 49 0 l 681 0 b 702 118 690 28 697 67 b 708 250 706 169 708 213 l 521 250 z "},"Ð":{"ha":1042,"x_min":0,"x_max":0,"o":"m 513 945 l 97 945 l 97 576 l 14 576 l 14 368 l 97 368 l 97 0 l 513 0 b 863 119 665 0 781 40 b 986 472 945 198 986 316 b 863 826 986 628 945 746 b 513 945 781 905 665 945 z m 513 250 l 389 250 l 389 368 l 570 368 l 570 576 l 389 576 l 389 694 l 513 694 b 643 637 571 694 615 675 b 686 472 672 599 686 544 b 643 307 686 400 672 345 b 513 250 615 269 571 250 z "},"Ñ":{"ha":1083,"x_min":0,"x_max":0,"o":"m 653 1021 b 758 1069 696 1021 731 1037 b 799 1229 785 1101 799 1155 l 646 1229 b 634 1188 646 1211 642 1197 b 604 1174 626 1179 616 1174 b 563 1190 595 1174 582 1179 b 500 1221 545 1200 524 1210 b 431 1236 476 1231 453 1236 b 326 1188 388 1236 353 1220 b 285 1028 298 1155 285 1102 l 437 1028 b 449 1069 437 1046 441 1060 b 479 1083 457 1078 467 1083 b 520 1067 489 1083 502 1078 b 584 1036 539 1057 560 1047 b 653 1021 608 1026 631 1021 z m 83 0 l 347 0 l 347 639 l 353 639 l 528 0 l 1000 0 l 1000 945 l 736 945 l 736 306 l 730 306 l 627 741 b 582 856 615 789 600 828 b 500 922 563 884 536 906 b 361 945 465 937 418 945 l 83 945 z "},"Ò":{"ha":1042,"x_min":0,"x_max":0,"o":"m 590 1000 l 653 1111 l 382 1264 l 306 1125 z m 521 -14 b 865 107 670 -14 784 27 b 986 472 946 188 986 310 b 865 837 986 634 946 755 b 521 958 784 918 669 958 b 177 837 373 958 258 918 b 56 472 96 755 56 634 b 177 107 56 310 96 188 b 521 -14 257 27 372 -14 z m 521 222 b 354 472 410 222 354 306 b 521 722 354 639 410 722 b 688 472 632 722 688 639 b 521 222 688 306 632 222 z "},"Ó":{"ha":1042,"x_min":0,"x_max":0,"o":"m 452 1000 l 736 1125 l 660 1264 l 389 1111 z m 521 -14 b 865 107 670 -14 784 27 b 986 472 946 188 986 310 b 865 837 986 634 946 755 b 521 958 784 918 669 958 b 177 837 373 958 258 918 b 56 472 96 755 56 634 b 177 107 56 310 96 188 b 521 -14 257 27 372 -14 z m 521 222 b 354 472 410 222 354 306 b 521 722 354 639 410 722 b 688 472 632 722 688 639 b 521 222 688 306 632 222 z "},"Ô":{"ha":1042,"x_min":0,"x_max":0,"o":"m 285 1014 l 452 1014 l 521 1128 l 590 1014 l 757 1014 l 604 1264 l 437 1264 z m 521 -14 b 865 107 670 -14 784 27 b 986 472 946 188 986 310 b 865 837 986 634 946 755 b 521 958 784 918 669 958 b 177 837 373 958 258 918 b 56 472 96 755 56 634 b 177 107 56 310 96 188 b 521 -14 257 27 372 -14 z m 521 222 b 354 472 410 222 354 306 b 521 722 354 639 410 722 b 688 472 632 722 688 639 b 521 222 688 306 632 222 z "},"Õ":{"ha":1042,"x_min":0,"x_max":0,"o":"m 632 1021 b 737 1069 675 1021 710 1037 b 778 1229 764 1101 778 1155 l 625 1229 b 614 1188 625 1211 621 1197 b 583 1174 606 1179 596 1174 b 542 1190 574 1174 561 1179 b 479 1221 524 1200 503 1210 b 410 1236 455 1231 432 1236 b 304 1188 367 1236 332 1220 b 264 1028 277 1155 264 1102 l 416 1028 b 428 1069 416 1046 420 1060 b 458 1083 436 1078 446 1083 b 499 1067 467 1083 481 1078 b 563 1036 518 1057 539 1047 b 632 1021 587 1026 610 1021 z m 521 -14 b 865 107 670 -14 784 27 b 986 472 946 188 986 310 b 865 837 986 634 946 755 b 521 958 784 918 669 958 b 177 837 373 958 258 918 b 56 472 96 755 56 634 b 177 107 56 310 96 188 b 521 -14 257 27 372 -14 z m 521 222 b 354 472 410 222 354 306 b 521 722 354 639 410 722 b 688 472 632 722 688 639 b 521 222 688 306 632 222 z "},"Ö":{"ha":1042,"x_min":0,"x_max":0,"o":"m 382 986 b 521 1116 432 1025 478 1069 b 660 986 555 1076 601 1033 b 819 1139 718 1029 771 1080 b 742 1221 798 1165 772 1192 b 660 1292 713 1249 685 1273 b 521 1162 601 1245 555 1202 b 382 1292 478 1209 432 1253 b 296 1218 354 1271 326 1246 b 222 1139 266 1189 241 1163 b 382 986 261 1089 314 1039 z m 521 958 b 177 837 373 958 258 918 b 56 472 96 755 56 634 b 177 107 56 310 96 188 b 521 -14 257 27 372 -14 b 865 107 670 -14 784 27 b 986 472 946 188 986 310 b 865 837 986 634 946 755 b 521 958 784 918 669 958 z m 521 222 b 354 472 410 222 354 306 b 521 722 354 639 410 722 b 688 472 632 722 688 639 b 521 222 688 306 632 222 z "},"×":{"ha":694,"x_min":0,"x_max":0,"o":"m 625 603 l 478 750 l 347 619 l 216 750 l 69 603 l 200 472 l 69 342 l 216 195 l 347 325 l 478 195 l 625 342 l 494 472 z "},"Ø":{"ha":1042,"x_min":0,"x_max":0,"o":"m 856 846 l 958 1014 l 750 1014 l 701 933 b 521 958 648 950 588 958 b 177 837 373 958 258 918 b 56 472 96 755 56 634 b 186 97 56 305 99 180 l 83 -69 l 292 -69 l 340 11 b 521 -14 392 -5 453 -14 b 865 107 670 -14 784 27 b 986 472 946 188 986 310 b 856 846 986 640 943 764 z m 354 472 b 521 722 354 639 410 722 b 567 717 539 722 555 720 l 361 382 b 354 472 356 411 354 441 z m 521 222 b 475 228 502 222 487 224 l 681 562 b 688 472 685 533 688 503 b 521 222 688 306 632 222 z "},"Ù":{"ha":1027,"x_min":0,"x_max":0,"o":"m 576 1000 l 639 1111 l 368 1264 l 292 1125 z m 653 945 l 653 378 b 621 267 653 325 642 288 b 514 236 599 246 563 236 b 408 267 465 236 429 246 b 375 378 386 288 375 325 l 375 945 l 83 945 l 83 378 b 106 222 83 319 91 268 b 166 110 121 177 141 139 b 260 38 192 81 223 57 b 378 -2 297 19 337 6 b 514 -14 419 -10 465 -14 b 650 -2 563 -14 609 -10 b 768 38 691 6 731 19 b 862 110 805 57 836 81 b 922 222 887 139 907 177 b 945 378 937 268 945 319 l 945 945 z "},"Ú":{"ha":1027,"x_min":0,"x_max":0,"o":"m 437 1000 l 722 1125 l 646 1264 l 375 1111 z m 653 945 l 653 378 b 621 267 653 325 642 288 b 514 236 599 246 563 236 b 408 267 465 236 429 246 b 375 378 386 288 375 325 l 375 945 l 83 945 l 83 378 b 106 222 83 319 91 268 b 166 110 121 177 141 139 b 260 38 192 81 223 57 b 378 -2 297 19 337 6 b 514 -14 419 -10 465 -14 b 650 -2 563 -14 609 -10 b 768 38 691 6 731 19 b 862 110 805 57 836 81 b 922 222 887 139 907 177 b 945 378 937 268 945 319 l 945 945 z "},"Û":{"ha":1027,"x_min":0,"x_max":0,"o":"m 271 1014 l 437 1014 l 507 1128 l 576 1014 l 743 1014 l 590 1264 l 424 1264 z m 653 945 l 653 378 b 621 267 653 325 642 288 b 514 236 599 246 563 236 b 408 267 465 236 429 246 b 375 378 386 288 375 325 l 375 945 l 83 945 l 83 378 b 106 222 83 319 91 268 b 166 110 121 177 141 139 b 260 38 192 81 223 57 b 378 -2 297 19 337 6 b 514 -14 419 -10 465 -14 b 650 -2 563 -14 609 -10 b 768 38 691 6 731 19 b 862 110 805 57 836 81 b 922 222 887 139 907 177 b 945 378 937 268 945 319 l 945 945 z "},"Ü":{"ha":1027,"x_min":0,"x_max":0,"o":"m 368 986 b 507 1116 418 1025 465 1069 b 646 986 543 1075 589 1032 b 729 1058 671 1005 699 1029 b 806 1139 759 1086 784 1113 b 729 1220 784 1164 759 1192 b 646 1292 699 1249 671 1272 b 507 1162 589 1246 543 1203 b 368 1292 465 1209 418 1253 b 281 1217 341 1271 312 1246 b 208 1139 251 1189 227 1163 b 368 986 246 1090 299 1039 z m 653 945 l 653 378 b 621 267 653 325 642 288 b 514 236 599 246 563 236 b 408 267 465 236 429 246 b 375 378 386 288 375 325 l 375 945 l 83 945 l 83 378 b 106 222 83 319 91 268 b 166 110 121 177 141 139 b 260 38 192 81 223 57 b 378 -2 297 19 337 6 b 514 -14 419 -10 465 -14 b 650 -2 563 -14 609 -10 b 768 38 691 6 731 19 b 862 110 805 57 836 81 b 922 222 887 139 907 177 b 945 378 937 268 945 319 l 945 945 z "},"Ý":{"ha":1000,"x_min":0,"x_max":0,"o":"m 715 1125 l 639 1264 l 368 1111 l 431 1000 z m 972 945 l 673 945 l 510 643 l 503 643 l 340 945 l 28 945 l 354 349 l 354 0 l 646 0 l 646 349 z "},"Þ":{"ha":944,"x_min":0,"x_max":0,"o":"m 83 0 l 375 0 l 375 132 l 559 132 b 704 160 613 132 661 142 b 810 236 747 179 783 204 b 874 346 838 268 859 304 b 896 479 889 387 896 432 b 858 650 896 543 883 600 b 744 768 833 699 795 739 b 559 812 692 798 631 812 l 375 812 l 375 945 l 83 945 z m 375 382 l 375 562 l 503 562 b 573 538 533 562 557 554 b 597 472 589 522 597 500 b 573 407 597 445 589 424 b 503 382 556 390 533 382 z "},"ß":{"ha":944,"x_min":0,"x_max":0,"o":"m 632 -14 b 835 50 718 -14 786 7 b 909 216 885 92 909 147 b 891 297 909 245 903 272 b 846 360 879 322 864 343 b 788 408 828 376 809 392 b 730 447 767 423 748 436 b 685 481 712 458 697 469 b 667 514 673 493 667 504 b 680 550 667 525 671 537 b 711 588 688 562 699 575 b 747 632 723 602 735 616 b 779 693 760 648 770 669 b 791 771 787 717 791 743 b 747 904 791 823 777 867 b 624 986 717 941 676 968 b 444 1014 572 1005 512 1014 b 69 708 194 1014 69 912 l 69 0 l 347 0 l 347 708 b 368 782 347 742 354 767 b 431 806 382 798 403 806 b 481 788 452 806 469 800 b 500 736 494 777 500 759 b 488 683 500 718 496 701 b 460 633 481 665 471 649 b 428 586 450 617 439 602 b 400 532 417 570 408 552 b 389 472 392 512 389 492 b 406 404 389 447 394 424 b 448 353 417 383 431 366 b 503 317 465 341 483 328 b 558 287 523 305 542 295 b 601 260 575 279 590 270 b 618 229 612 250 618 240 b 521 187 618 201 585 187 b 403 211 488 187 448 195 b 444 14 412 128 426 62 b 632 -14 504 -5 566 -14 z "},"à":{"ha":826,"x_min":0,"x_max":0,"o":"m 574 861 l 302 1014 l 227 875 l 511 750 z m 488 708 b 339 695 433 708 384 704 b 217 653 295 687 254 673 b 122 576 179 633 147 607 b 63 458 97 545 77 505 b 41 294 48 410 41 356 b 100 73 41 204 61 130 b 262 -14 139 15 193 -14 b 388 23 310 -14 352 -1 b 479 147 423 47 454 89 l 479 0 l 757 0 l 757 694 b 488 708 644 703 554 708 z m 385 195 b 332 257 362 195 345 215 b 313 396 319 299 313 345 b 318 440 313 414 314 429 b 337 472 321 451 327 462 b 379 493 346 481 360 489 b 452 500 398 498 422 500 b 507 494 471 500 490 498 b 452 259 488 381 469 303 b 385 195 435 216 412 195 z "},"á":{"ha":826,"x_min":0,"x_max":0,"o":"m 657 875 l 581 1014 l 310 861 l 372 750 z m 488 708 b 339 695 433 708 384 704 b 217 653 295 687 254 673 b 122 576 179 633 147 607 b 63 458 97 545 77 505 b 41 294 48 410 41 356 b 100 73 41 204 61 130 b 262 -14 139 15 193 -14 b 388 23 310 -14 352 -1 b 479 147 423 47 454 89 l 479 0 l 757 0 l 757 694 b 488 708 644 703 554 708 z m 385 195 b 332 257 362 195 345 215 b 313 396 319 299 313 345 b 318 440 313 414 314 429 b 337 472 321 451 327 462 b 379 493 346 481 360 489 b 452 500 398 498 422 500 b 507 494 471 500 490 498 b 452 259 488 381 469 303 b 385 195 435 216 412 195 z "},"â":{"ha":826,"x_min":0,"x_max":0,"o":"m 441 878 l 511 764 l 677 764 l 525 1014 l 358 1014 l 205 764 l 372 764 z m 488 708 b 339 695 433 708 384 704 b 217 653 295 687 254 673 b 122 576 179 633 147 607 b 63 458 97 545 77 505 b 41 294 48 410 41 356 b 100 73 41 204 61 130 b 262 -14 139 15 193 -14 b 388 23 310 -14 352 -1 b 479 147 423 47 454 89 l 479 0 l 757 0 l 757 694 b 488 708 644 703 554 708 z m 385 195 b 332 257 362 195 345 215 b 313 396 319 299 313 345 b 318 440 313 414 314 429 b 337 472 321 451 327 462 b 379 493 346 481 360 489 b 452 500 398 498 422 500 b 507 494 471 500 490 498 b 452 259 488 381 469 303 b 385 195 435 216 412 195 z "},"ã":{"ha":826,"x_min":0,"x_max":0,"o":"m 379 833 b 420 818 388 833 402 828 b 484 787 438 807 460 797 b 553 771 507 776 531 771 b 658 820 596 771 631 787 b 699 979 685 852 699 905 l 546 979 b 534 938 546 961 542 947 b 504 924 526 928 516 924 b 463 939 495 924 481 929 b 399 970 445 950 423 960 b 330 986 375 981 352 986 b 225 938 287 986 252 970 b 184 778 198 905 184 852 l 338 778 b 349 819 338 796 342 810 b 379 833 357 829 367 833 z m 488 708 b 339 695 433 708 384 704 b 217 653 295 687 254 673 b 122 576 179 633 147 607 b 63 458 97 545 77 505 b 41 294 48 410 41 356 b 100 73 41 204 61 130 b 262 -14 139 15 193 -14 b 388 23 310 -14 352 -1 b 479 147 423 47 454 89 l 479 0 l 757 0 l 757 694 b 488 708 644 703 554 708 z m 385 195 b 332 257 362 195 345 215 b 313 396 319 299 313 345 b 318 440 313 414 314 429 b 337 472 321 451 327 462 b 379 493 346 481 360 489 b 452 500 398 498 422 500 b 507 494 471 500 490 498 b 452 259 488 381 469 303 b 385 195 435 216 412 195 z "},"ä":{"ha":826,"x_min":0,"x_max":0,"o":"m 302 736 b 441 865 353 775 399 818 b 581 736 475 826 522 783 b 664 808 606 755 634 779 b 741 889 694 836 719 863 b 664 970 719 915 694 942 b 581 1042 634 998 606 1022 b 441 913 521 994 474 951 b 302 1042 400 958 354 1001 b 143 889 235 989 182 938 b 216 810 162 865 186 838 b 302 736 246 782 275 757 z m 488 708 b 339 695 433 708 384 704 b 217 653 295 687 254 673 b 122 576 179 633 147 607 b 63 458 97 545 77 505 b 41 294 48 410 41 356 b 100 73 41 204 61 130 b 262 -14 139 15 193 -14 b 388 23 310 -14 352 -1 b 479 147 423 47 454 89 l 479 0 l 757 0 l 757 694 b 488 708 644 703 554 708 z m 385 195 b 332 257 362 195 345 215 b 313 396 319 299 313 345 b 318 440 313 414 314 429 b 337 472 321 451 327 462 b 379 493 346 481 360 489 b 452 500 398 498 422 500 b 507 494 471 500 490 498 b 452 259 488 381 469 303 b 385 195 435 216 412 195 z "},"å":{"ha":826,"x_min":0,"x_max":0,"o":"m 441 736 b 561 780 490 736 530 751 b 608 889 593 810 608 846 b 561 998 608 932 593 968 b 441 1042 530 1027 490 1042 b 322 998 393 1042 353 1027 b 275 889 291 968 275 932 b 322 780 275 846 291 810 b 441 736 353 751 393 736 z m 441 930 b 472 918 455 930 465 926 b 484 889 480 910 484 900 b 472 860 484 878 480 868 b 441 847 465 851 455 847 b 411 860 428 847 418 851 b 400 889 404 868 400 878 b 411 918 400 900 404 910 b 441 930 418 926 428 930 z m 488 708 b 339 695 433 708 384 704 b 217 653 295 687 254 673 b 122 576 179 633 147 607 b 63 458 97 545 77 505 b 41 294 48 410 41 356 b 100 73 41 204 61 130 b 262 -14 139 15 193 -14 b 388 23 310 -14 352 -1 b 479 147 423 47 454 89 l 479 0 l 757 0 l 757 694 b 488 708 644 703 554 708 z m 385 195 b 332 257 362 195 345 215 b 313 396 319 299 313 345 b 318 440 313 414 314 429 b 337 472 321 451 327 462 b 379 493 346 481 360 489 b 452 500 398 498 422 500 b 507 494 471 500 490 498 b 452 259 488 381 469 303 b 385 195 435 216 412 195 z "},"æ":{"ha":1257,"x_min":0,"x_max":0,"o":"m 778 283 b 884 270 807 277 842 273 b 998 264 925 267 963 265 b 1161 264 1033 264 1087 264 b 1215 358 1187 297 1205 329 b 1128 617 1215 471 1186 557 b 875 708 1070 678 986 708 b 681 673 801 708 736 696 b 460 708 604 696 530 708 b 41 294 181 708 41 570 b 100 73 41 204 61 130 b 262 -14 139 15 193 -14 b 405 38 319 -14 366 4 b 504 216 444 72 477 132 b 918 -14 551 63 689 -14 b 1145 9 1007 -14 1082 -6 b 1169 110 1154 35 1162 68 b 1179 218 1176 151 1179 188 b 918 195 1098 203 1011 195 b 778 283 840 195 793 224 z m 490 414 b 444 243 475 332 460 275 b 385 195 429 211 409 195 b 332 257 362 195 345 215 b 313 396 319 299 313 345 b 318 440 313 414 314 429 b 337 472 321 451 327 462 b 379 493 346 481 360 489 b 452 500 398 498 422 500 b 509 490 468 500 487 497 b 490 414 504 475 498 449 z m 863 500 b 918 478 887 500 905 493 b 942 412 930 464 938 442 l 943 412 b 855 402 910 411 880 408 b 772 374 830 397 802 387 b 798 467 775 413 783 444 b 863 500 813 489 835 500 z "},"ç":{"ha":736,"x_min":0,"x_max":0,"o":"m 326 347 b 332 407 326 370 328 390 b 353 455 336 424 343 440 b 397 488 363 469 377 481 b 469 500 416 496 440 500 b 653 476 535 500 597 492 b 677 575 662 500 670 534 b 688 685 684 617 688 654 b 469 708 611 700 538 708 b 149 617 327 708 220 678 b 41 347 77 557 41 467 b 359 -7 41 140 147 22 l 347 -125 b 410 -180 389 -137 410 -155 b 395 -205 410 -191 405 -199 b 354 -215 385 -212 371 -215 b 297 -210 340 -215 321 -213 l 285 -302 b 410 -319 318 -314 359 -319 b 488 -308 439 -319 466 -316 b 540 -277 510 -300 528 -290 b 568 -235 553 -264 562 -250 b 576 -187 574 -220 576 -204 b 564 -130 576 -166 572 -147 b 531 -90 556 -113 544 -100 b 489 -67 517 -80 503 -72 b 444 -56 474 -61 460 -57 l 450 -14 l 469 -14 b 653 9 529 -14 591 -6 b 677 108 662 33 670 66 b 688 218 684 150 688 187 b 469 195 607 203 534 195 b 356 234 414 195 376 208 b 326 347 336 261 326 298 z "},"è":{"ha":812,"x_min":0,"x_max":0,"o":"m 539 861 l 268 1014 l 192 875 l 476 750 z m 334 283 b 439 270 363 277 398 273 b 554 264 481 267 519 265 b 717 264 588 264 643 264 b 771 358 743 297 761 329 b 684 617 771 471 742 557 b 431 708 626 678 541 708 b 273 686 373 708 320 701 b 150 620 226 671 185 649 b 70 506 116 590 89 553 b 41 347 51 460 41 407 b 150 77 41 228 78 138 b 473 -14 223 17 330 -14 b 700 9 562 -14 637 -6 b 724 110 709 35 718 68 b 734 218 731 151 734 188 b 473 195 654 203 566 195 b 334 283 396 195 349 224 z m 418 500 b 474 479 443 500 462 493 b 497 412 486 465 493 443 b 328 374 439 410 383 397 b 353 467 330 413 338 444 b 418 500 368 489 390 500 z "},"é":{"ha":812,"x_min":0,"x_max":0,"o":"m 623 875 l 546 1014 l 275 861 l 338 750 z m 334 283 b 439 270 363 277 398 273 b 554 264 481 267 519 265 b 717 264 588 264 643 264 b 771 358 743 297 761 329 b 684 617 771 471 742 557 b 431 708 626 678 541 708 b 273 686 373 708 320 701 b 150 620 226 671 185 649 b 70 506 116 590 89 553 b 41 347 51 460 41 407 b 150 77 41 228 78 138 b 473 -14 223 17 330 -14 b 700 9 562 -14 637 -6 b 724 110 709 35 718 68 b 734 218 731 151 734 188 b 473 195 654 203 566 195 b 334 283 396 195 349 224 z m 418 500 b 474 479 443 500 462 493 b 497 412 486 465 493 443 b 328 374 439 410 383 397 b 353 467 330 413 338 444 b 418 500 368 489 390 500 z "},"ê":{"ha":812,"x_min":0,"x_max":0,"o":"m 407 878 l 476 764 l 643 764 l 490 1014 l 323 1014 l 171 764 l 338 764 z m 334 283 b 439 270 363 277 398 273 b 554 264 481 267 519 265 b 717 264 588 264 643 264 b 771 358 743 297 761 329 b 684 617 771 471 742 557 b 431 708 626 678 541 708 b 273 686 373 708 320 701 b 150 620 226 671 185 649 b 70 506 116 590 89 553 b 41 347 51 460 41 407 b 150 77 41 228 78 138 b 473 -14 223 17 330 -14 b 700 9 562 -14 637 -6 b 724 110 709 35 718 68 b 734 218 731 151 734 188 b 473 195 654 203 566 195 b 334 283 396 195 349 224 z m 418 500 b 474 479 443 500 462 493 b 497 412 486 465 493 443 b 328 374 439 410 383 397 b 353 467 330 413 338 444 b 418 500 368 489 390 500 z "},"ë":{"ha":812,"x_min":0,"x_max":0,"o":"m 268 736 b 407 865 318 775 364 818 b 546 736 441 826 487 783 b 628 807 571 755 599 779 b 705 889 658 836 684 863 b 546 1042 657 947 604 998 b 407 913 486 994 440 951 b 268 1042 366 958 319 1001 b 109 889 200 989 147 938 b 182 810 127 865 152 838 b 268 736 212 782 240 757 z m 334 283 b 439 270 363 277 398 273 b 554 264 481 267 519 265 b 717 264 588 264 643 264 b 771 358 743 297 761 329 b 684 617 771 471 742 557 b 431 708 626 678 541 708 b 273 686 373 708 320 701 b 150 620 226 671 185 649 b 70 506 116 590 89 553 b 41 347 51 460 41 407 b 150 77 41 228 78 138 b 473 -14 223 17 330 -14 b 700 9 562 -14 637 -6 b 724 110 709 35 718 68 b 734 218 731 151 734 188 b 473 195 654 203 566 195 b 334 283 396 195 349 224 z m 418 500 b 474 479 443 500 462 493 b 497 412 486 465 493 443 b 328 374 439 410 383 397 b 353 467 330 413 338 444 b 418 500 368 489 390 500 z "},"ì":{"ha":416,"x_min":0,"x_max":0,"o":"m 278 750 l 340 861 l 69 1014 l -7 875 z m 69 0 l 347 0 l 347 694 l 69 694 z "},"í":{"ha":416,"x_min":0,"x_max":0,"o":"m 139 750 l 424 875 l 347 1014 l 77 861 z m 69 0 l 347 0 l 347 694 l 69 694 z "},"î":{"ha":416,"x_min":0,"x_max":0,"o":"m -28 764 l 139 764 l 208 878 l 278 764 l 444 764 l 292 1014 l 125 1014 z m 69 0 l 347 0 l 347 694 l 69 694 z "},"ï":{"ha":416,"x_min":0,"x_max":0,"o":"m 347 1042 b 208 913 288 994 241 951 b 69 1042 167 958 121 1001 b -90 889 1 989 -52 938 b -17 810 -71 865 -47 838 b 69 736 13 782 42 757 b 208 865 119 775 166 818 b 347 736 242 826 288 783 b 431 808 373 755 401 779 b 507 889 460 836 486 863 b 431 970 486 915 460 942 b 347 1042 401 998 373 1022 z m 69 0 l 347 0 l 347 694 l 69 694 z "},"ð":{"ha":861,"x_min":0,"x_max":0,"o":"m 562 924 l 629 991 l 503 1104 l 392 989 b 167 1014 325 1005 250 1014 b 139 806 151 950 142 881 b 211 803 157 806 181 805 l 170 758 l 296 646 l 393 746 b 500 619 439 718 475 676 b 432 625 475 623 452 625 b 144 541 309 625 213 597 b 41 306 76 485 41 406 b 144 71 41 205 76 127 b 432 -14 213 15 309 -14 b 557 -2 479 -14 520 -10 b 663 38 595 5 630 19 b 747 115 697 58 725 84 b 800 239 769 147 787 188 b 819 416 813 290 819 349 b 753 724 819 536 797 639 b 562 924 709 809 645 875 z m 432 195 b 352 229 396 195 370 206 b 326 306 335 251 326 277 b 352 382 326 334 335 359 b 432 416 370 405 396 416 b 536 401 471 416 506 411 b 523 272 536 346 532 303 b 490 210 515 241 504 221 b 432 195 476 200 456 195 z "},"ñ":{"ha":847,"x_min":0,"x_max":0,"o":"m 361 833 b 402 818 370 833 384 828 b 465 787 420 807 441 797 b 534 771 489 776 512 771 b 640 820 578 771 613 787 b 681 979 667 852 681 905 l 528 979 b 516 938 528 961 524 947 b 486 924 508 928 498 924 b 445 939 477 924 464 929 b 382 970 427 950 406 960 b 313 986 358 981 335 986 b 208 938 270 986 235 970 b 167 778 180 905 167 852 l 319 778 b 331 819 319 796 323 810 b 361 833 339 829 349 833 z m 562 708 b 436 669 513 708 471 695 b 345 534 400 642 370 598 b 326 694 342 579 336 633 l 56 694 b 69 444 65 583 69 500 l 69 0 l 347 0 b 349 137 347 51 348 97 b 354 256 350 177 352 216 b 365 357 357 295 360 329 b 383 433 370 385 376 411 b 409 483 390 455 398 472 b 444 500 419 494 431 500 b 489 472 467 500 482 490 b 500 375 496 453 500 421 l 500 0 l 778 0 l 778 444 b 765 551 778 484 774 519 b 731 627 756 582 745 607 b 681 674 717 646 700 662 b 623 701 662 687 643 696 b 562 708 604 706 583 708 z "},"ò":{"ha":861,"x_min":0,"x_max":0,"o":"m 500 750 l 562 861 l 292 1014 l 215 875 z m 432 -14 b 720 77 557 -14 653 17 b 819 347 786 138 819 228 b 720 617 819 467 786 557 b 432 708 653 678 557 708 b 142 617 306 708 210 678 b 41 347 75 557 41 467 b 142 77 41 228 75 138 b 432 -14 210 17 306 -14 z m 432 195 b 326 347 361 195 326 245 b 432 500 326 449 361 500 b 534 347 500 500 534 449 b 511 235 534 299 527 261 b 432 195 495 208 469 195 z "},"ó":{"ha":861,"x_min":0,"x_max":0,"o":"m 361 750 l 646 875 l 570 1014 l 298 861 z m 432 -14 b 720 77 557 -14 653 17 b 819 347 786 138 819 228 b 720 617 819 467 786 557 b 432 708 653 678 557 708 b 142 617 306 708 210 678 b 41 347 75 557 41 467 b 142 77 41 228 75 138 b 432 -14 210 17 306 -14 z m 432 195 b 326 347 361 195 326 245 b 432 500 326 449 361 500 b 534 347 500 500 534 449 b 511 235 534 299 527 261 b 432 195 495 208 469 195 z "},"ô":{"ha":861,"x_min":0,"x_max":0,"o":"m 195 764 l 361 764 l 431 878 l 500 764 l 667 764 l 514 1014 l 347 1014 z m 432 -14 b 720 77 557 -14 653 17 b 819 347 786 138 819 228 b 720 617 819 467 786 557 b 432 708 653 678 557 708 b 142 617 306 708 210 678 b 41 347 75 557 41 467 b 142 77 41 228 75 138 b 432 -14 210 17 306 -14 z m 432 195 b 326 347 361 195 326 245 b 432 500 326 449 361 500 b 534 347 500 500 534 449 b 511 235 534 299 527 261 b 432 195 495 208 469 195 z "},"õ":{"ha":861,"x_min":0,"x_max":0,"o":"m 542 771 b 647 820 585 771 620 787 b 688 979 674 852 688 905 l 534 979 b 523 938 534 961 531 947 b 493 924 515 928 505 924 b 452 939 484 924 470 929 b 389 970 434 950 413 960 b 319 986 365 981 342 986 b 214 938 276 986 241 970 b 174 778 187 905 174 852 l 326 778 b 338 819 326 796 330 810 b 368 833 346 829 356 833 b 409 818 377 833 391 828 b 473 787 428 807 449 797 b 542 771 497 776 520 771 z m 432 -14 b 720 77 557 -14 653 17 b 819 347 786 138 819 228 b 720 617 819 467 786 557 b 432 708 653 678 557 708 b 142 617 306 708 210 678 b 41 347 75 557 41 467 b 142 77 41 228 75 138 b 432 -14 210 17 306 -14 z m 432 195 b 326 347 361 195 326 245 b 432 500 326 449 361 500 b 534 347 500 500 534 449 b 511 235 534 299 527 261 b 432 195 495 208 469 195 z "},"ö":{"ha":861,"x_min":0,"x_max":0,"o":"m 292 736 b 431 865 342 775 388 818 b 570 736 465 826 511 783 b 652 807 595 755 622 779 b 729 889 682 836 707 863 b 570 1042 681 947 628 998 b 431 913 510 994 464 951 b 292 1042 389 958 343 1001 b 132 889 224 989 171 938 b 205 810 151 865 176 838 b 292 736 235 782 264 757 z m 432 708 b 142 617 306 708 210 678 b 41 347 75 557 41 467 b 142 77 41 228 75 138 b 432 -14 210 17 306 -14 b 720 77 557 -14 653 17 b 819 347 786 138 819 228 b 720 617 819 467 786 557 b 432 708 653 678 557 708 z m 432 195 b 326 347 361 195 326 245 b 432 500 326 449 361 500 b 534 347 500 500 534 449 b 511 235 534 299 527 261 b 432 195 495 208 469 195 z "},"÷":{"ha":764,"x_min":0,"x_max":0,"o":"m 382 625 b 465 697 408 645 435 669 b 542 778 495 725 521 752 b 465 859 521 804 495 831 b 382 930 435 887 408 911 b 222 778 314 878 261 827 b 382 625 261 729 314 678 z m 69 368 l 694 368 l 694 576 l 69 576 z m 382 14 b 465 85 408 33 435 57 b 542 167 495 114 521 141 b 465 248 521 193 495 220 b 382 319 435 276 408 300 b 222 167 314 267 261 216 b 296 88 241 142 266 116 b 382 14 326 60 354 35 z "},"ø":{"ha":861,"x_min":0,"x_max":0,"o":"m 689 642 l 764 778 l 611 778 l 562 694 b 432 708 526 703 482 708 b 142 617 306 708 210 678 b 41 347 75 557 41 467 b 171 56 41 213 85 116 l 97 -83 l 250 -83 l 297 0 b 432 -14 336 -9 381 -14 b 720 77 557 -14 653 17 b 819 347 786 138 819 228 b 689 642 819 484 776 582 z m 432 500 l 441 500 l 328 315 b 326 347 327 323 326 333 b 432 500 326 449 361 500 z m 432 195 b 416 196 425 195 420 195 l 533 383 b 534 347 534 376 534 364 b 511 235 534 299 527 261 b 432 195 495 208 469 195 z "},"ù":{"ha":847,"x_min":0,"x_max":0,"o":"m 555 861 l 285 1014 l 208 875 l 493 750 z m 778 694 l 500 694 b 498 558 500 643 499 598 b 493 439 497 518 495 478 b 482 337 490 399 487 366 b 464 261 477 309 471 284 b 438 211 457 239 449 222 b 403 195 428 200 416 195 b 358 223 380 195 365 204 b 347 319 351 242 347 274 l 347 694 l 69 694 l 69 250 b 82 144 69 210 73 175 b 116 68 91 113 102 87 b 166 20 130 48 147 32 b 224 -6 185 8 204 -1 b 285 -14 243 -11 264 -14 b 409 24 333 -14 374 -1 b 500 153 444 50 474 92 l 500 0 l 778 0 z "},"ú":{"ha":847,"x_min":0,"x_max":0,"o":"m 639 875 l 562 1014 l 292 861 l 354 750 z m 778 694 l 500 694 b 498 558 500 643 499 598 b 493 439 497 518 495 478 b 482 337 490 399 487 366 b 464 261 477 309 471 284 b 438 211 457 239 449 222 b 403 195 428 200 416 195 b 358 223 380 195 365 204 b 347 319 351 242 347 274 l 347 694 l 69 694 l 69 250 b 82 144 69 210 73 175 b 116 68 91 113 102 87 b 166 20 130 48 147 32 b 224 -6 185 8 204 -1 b 285 -14 243 -11 264 -14 b 409 24 333 -14 374 -1 b 500 153 444 50 474 92 l 500 0 l 778 0 z "},"û":{"ha":847,"x_min":0,"x_max":0,"o":"m 424 878 l 493 764 l 660 764 l 507 1014 l 340 1014 l 187 764 l 354 764 z m 778 694 l 500 694 b 498 558 500 643 499 598 b 493 439 497 518 495 478 b 482 337 490 399 487 366 b 464 261 477 309 471 284 b 438 211 457 239 449 222 b 403 195 428 200 416 195 b 358 223 380 195 365 204 b 347 319 351 242 347 274 l 347 694 l 69 694 l 69 250 b 82 144 69 210 73 175 b 116 68 91 113 102 87 b 166 20 130 48 147 32 b 224 -6 185 8 204 -1 b 285 -14 243 -11 264 -14 b 409 24 333 -14 374 -1 b 500 153 444 50 474 92 l 500 0 l 778 0 z "},"ü":{"ha":847,"x_min":0,"x_max":0,"o":"m 285 736 b 424 865 335 775 381 818 b 562 736 459 825 505 781 b 646 808 588 755 616 779 b 722 889 675 836 701 863 b 646 970 701 915 675 942 b 562 1042 616 998 588 1022 b 424 913 504 995 458 952 b 285 1042 383 958 336 1001 b 125 889 216 988 162 937 b 198 810 143 865 168 839 b 285 736 228 782 257 757 z m 778 694 l 500 694 b 498 558 500 643 499 598 b 493 439 497 518 495 478 b 482 337 490 399 487 366 b 464 261 477 309 471 284 b 438 211 457 239 449 222 b 403 195 428 200 416 195 b 358 223 380 195 365 204 b 347 319 351 242 347 274 l 347 694 l 69 694 l 69 250 b 82 144 69 210 73 175 b 116 68 91 113 102 87 b 166 20 130 48 147 32 b 224 -6 185 8 204 -1 b 285 -14 243 -11 264 -14 b 409 24 333 -14 374 -1 b 500 153 444 50 474 92 l 500 0 l 778 0 z "},"ý":{"ha":847,"x_min":0,"x_max":0,"o":"m 639 875 l 562 1014 l 292 861 l 354 750 z m 778 694 l 500 694 b 498 558 500 643 499 598 b 493 439 497 518 495 478 b 482 337 490 399 487 366 b 464 261 477 309 471 284 b 438 211 457 239 449 222 b 403 195 428 200 416 195 b 358 223 380 195 365 204 b 347 319 351 242 347 274 l 347 694 l 69 694 l 69 250 b 82 144 69 210 73 175 b 116 68 91 113 102 87 b 166 20 130 48 147 32 b 224 -6 185 8 204 -1 b 285 -14 243 -11 264 -14 b 409 24 333 -14 374 -1 b 500 153 444 50 474 92 l 500 56 b 499 28 500 45 500 36 b 494 -1 499 21 497 11 b 482 -34 491 -14 487 -24 b 459 -63 477 -43 469 -53 b 423 -88 449 -73 437 -81 b 370 -105 409 -95 391 -100 b 297 -111 348 -109 324 -111 b 118 -98 235 -111 175 -107 b 139 -293 118 -179 125 -244 b 214 -312 152 -301 177 -307 b 334 -319 251 -317 291 -319 b 670 -225 486 -319 599 -288 b 778 56 742 -163 778 -69 z "},"þ":{"ha":833,"x_min":0,"x_max":0,"o":"m 785 400 b 726 622 785 491 765 564 b 564 708 687 679 633 708 b 439 671 516 708 474 696 b 347 547 404 647 373 606 l 347 1000 l 69 1000 l 69 -306 l 347 -306 l 347 -14 b 493 0 401 -13 450 -8 b 613 44 536 9 576 24 b 706 121 650 64 681 90 b 764 238 731 152 750 191 b 785 400 778 285 785 339 z m 375 195 b 319 200 356 195 337 196 b 374 435 339 314 357 392 b 441 500 392 478 414 500 b 494 437 464 500 481 479 b 514 298 507 395 514 349 b 509 254 514 280 512 266 b 490 223 506 243 499 232 b 448 201 481 213 467 206 b 375 195 429 197 404 195 z "},"ÿ":{"ha":847,"x_min":0,"x_max":0,"o":"m 285 736 b 424 865 335 775 381 818 b 562 736 459 825 505 781 b 646 808 588 755 616 779 b 722 889 675 836 701 863 b 646 970 701 915 675 942 b 562 1042 616 998 588 1022 b 424 913 504 995 458 952 b 285 1042 383 958 336 1001 b 125 889 216 988 162 937 b 198 810 143 865 168 839 b 285 736 228 782 257 757 z m 778 694 l 500 694 b 498 558 500 643 499 598 b 493 439 497 518 495 478 b 482 337 490 399 487 366 b 464 261 477 309 471 284 b 438 211 457 239 449 222 b 403 195 428 200 416 195 b 358 223 380 195 365 204 b 347 319 351 242 347 274 l 347 694 l 69 694 l 69 250 b 82 144 69 210 73 175 b 116 68 91 113 102 87 b 166 20 130 48 147 32 b 224 -6 185 8 204 -1 b 285 -14 243 -11 264 -14 b 409 24 333 -14 374 -1 b 500 153 444 50 474 92 l 500 56 b 499 28 500 45 500 36 b 494 -1 499 21 497 11 b 482 -34 491 -14 487 -24 b 459 -63 477 -43 469 -53 b 423 -88 449 -73 437 -81 b 370 -105 409 -95 391 -100 b 297 -111 348 -109 324 -111 b 118 -98 235 -111 175 -107 b 139 -293 118 -179 125 -244 b 214 -312 152 -301 177 -307 b 334 -319 251 -317 291 -319 b 670 -225 486 -319 599 -288 b 778 56 742 -163 778 -69 z "},"Ā":{"ha":1000,"x_min":0,"x_max":0,"o":"m 722 1215 l 250 1215 l 250 1063 l 722 1063 z m 681 0 l 972 0 l 766 704 b 730 807 754 746 742 780 b 691 877 719 834 705 857 b 638 922 676 897 659 912 b 571 945 618 933 596 940 b 478 951 546 949 515 951 l 283 951 l 28 0 l 313 0 l 368 222 l 616 222 z m 418 429 l 479 673 l 486 673 l 557 429 z "},"ā":{"ha":826,"x_min":0,"x_max":0,"o":"m 677 965 l 205 965 l 205 812 l 677 812 z m 488 708 b 339 695 433 708 384 704 b 217 653 295 687 254 673 b 122 576 179 633 147 607 b 63 458 97 545 77 505 b 41 294 48 410 41 356 b 100 73 41 204 61 130 b 262 -14 139 15 193 -14 b 388 23 310 -14 352 -1 b 479 147 423 47 454 89 l 479 0 l 757 0 l 757 694 b 488 708 644 703 554 708 z m 385 195 b 332 257 362 195 345 215 b 313 396 319 299 313 345 b 318 440 313 414 314 429 b 337 472 321 451 327 462 b 379 493 346 481 360 489 b 452 500 398 498 422 500 b 507 494 471 500 490 498 b 452 259 488 381 469 303 b 385 195 435 216 412 195 z "},"Ă":{"ha":1000,"x_min":0,"x_max":0,"o":"m 486 1014 b 666 1082 564 1014 624 1037 b 729 1264 708 1128 729 1189 l 562 1264 b 486 1166 562 1199 537 1166 b 428 1193 460 1166 441 1175 b 410 1264 416 1211 410 1234 l 243 1264 b 306 1083 243 1189 264 1129 b 486 1014 348 1037 408 1014 z m 681 0 l 972 0 l 766 704 b 730 807 754 746 742 780 b 691 877 719 834 705 857 b 638 922 676 897 659 912 b 571 945 618 933 596 940 b 478 951 546 949 515 951 l 283 951 l 28 0 l 313 0 l 368 222 l 616 222 z m 418 429 l 479 673 l 486 673 l 557 429 z "},"ă":{"ha":826,"x_min":0,"x_max":0,"o":"m 441 764 b 622 832 519 764 579 787 b 685 1014 664 878 685 939 l 518 1014 b 441 917 518 949 493 917 b 366 1014 391 917 366 949 l 199 1014 b 262 832 199 938 220 878 b 441 764 304 786 364 764 z m 488 708 b 339 695 433 708 384 704 b 217 653 295 687 254 673 b 122 576 179 633 147 607 b 63 458 97 545 77 505 b 41 294 48 410 41 356 b 100 73 41 204 61 130 b 262 -14 139 15 193 -14 b 388 23 310 -14 352 -1 b 479 147 423 47 454 89 l 479 0 l 757 0 l 757 694 b 488 708 644 703 554 708 z m 385 195 b 332 257 362 195 345 215 b 313 396 319 299 313 345 b 318 440 313 414 314 429 b 337 472 321 451 327 462 b 379 493 346 481 360 489 b 452 500 398 498 422 500 b 507 494 471 500 490 498 b 452 259 488 381 469 303 b 385 195 435 216 412 195 z "},"Ą":{"ha":1000,"x_min":0,"x_max":0,"o":"m 903 -208 b 858 -192 885 -208 870 -203 b 840 -146 846 -181 840 -166 b 872 -73 840 -123 851 -98 b 972 0 894 -47 927 -23 l 766 704 b 730 807 754 746 742 780 b 691 877 719 834 705 857 b 638 922 676 897 659 912 b 571 945 618 933 596 940 b 478 951 546 949 515 951 l 283 951 l 28 0 l 313 0 l 368 222 l 616 222 l 681 0 l 833 0 b 713 -78 780 -20 740 -46 b 673 -180 687 -110 673 -144 b 719 -280 673 -220 689 -253 b 840 -319 749 -306 790 -319 b 972 -292 892 -319 936 -310 l 965 -195 b 903 -208 944 -204 923 -208 z m 418 429 l 479 673 l 486 673 l 557 429 z "},"ą":{"ha":826,"x_min":0,"x_max":0,"o":"m 757 0 l 757 694 b 488 708 644 703 554 708 b 339 695 433 708 384 704 b 217 653 295 687 254 673 b 122 576 179 633 147 607 b 63 458 97 545 77 505 b 41 294 48 410 41 356 b 100 73 41 204 61 130 b 262 -14 139 15 193 -14 b 388 23 310 -14 352 -1 b 479 147 423 47 454 89 l 479 0 l 618 0 b 498 -78 564 -20 525 -46 b 458 -180 472 -110 458 -144 b 504 -280 458 -220 474 -253 b 625 -319 534 -306 575 -319 b 757 -292 676 -319 720 -310 l 750 -195 b 688 -208 729 -204 708 -208 b 643 -192 670 -208 655 -203 b 625 -146 631 -181 625 -166 b 657 -73 625 -123 636 -98 b 757 0 678 -47 712 -23 z m 385 195 b 332 257 362 195 345 215 b 313 396 319 299 313 345 b 318 440 313 414 314 429 b 337 472 321 451 327 462 b 379 493 346 481 360 489 b 452 500 398 498 422 500 b 507 494 471 500 490 498 b 452 259 488 381 469 303 b 385 195 435 216 412 195 z "},"Ć":{"ha":861,"x_min":0,"x_max":0,"o":"m 431 1000 l 715 1125 l 639 1264 l 368 1111 z m 561 -14 b 682 -6 594 -14 635 -11 b 785 9 730 -1 764 5 b 809 120 794 33 802 70 b 819 244 816 170 819 212 b 561 222 739 230 653 222 b 354 472 423 222 354 306 b 561 722 354 639 423 722 b 682 715 594 722 634 720 b 785 700 729 710 763 705 b 809 810 794 723 802 760 b 819 935 816 861 819 902 b 699 951 790 940 750 946 b 561 958 648 956 602 958 b 185 837 397 958 272 918 b 56 472 99 756 56 635 b 185 107 56 309 99 188 b 561 -14 272 27 397 -14 z "},"ć":{"ha":736,"x_min":0,"x_max":0,"o":"m 340 750 l 625 875 l 549 1014 l 278 861 z m 469 -14 b 653 9 529 -14 591 -6 b 677 108 662 33 670 66 b 688 218 684 150 688 187 b 469 195 607 203 534 195 b 356 234 414 195 376 208 b 326 347 336 261 326 298 b 332 407 326 370 328 390 b 353 455 336 424 343 440 b 397 488 363 469 377 481 b 469 500 416 496 440 500 b 653 476 535 500 597 492 b 677 575 662 500 670 534 b 688 685 684 617 688 654 b 469 708 611 700 538 708 b 149 617 327 708 220 678 b 41 347 77 557 41 467 b 469 -14 41 107 184 -14 z "},"Ċ":{"ha":861,"x_min":0,"x_max":0,"o":"m 500 986 b 583 1058 526 1005 553 1029 b 660 1139 613 1086 639 1113 b 583 1220 639 1164 613 1192 b 500 1292 553 1249 526 1272 b 414 1218 472 1271 444 1246 b 340 1139 384 1189 359 1163 b 500 986 379 1089 432 1039 z m 561 -14 b 682 -6 594 -14 635 -11 b 785 9 730 -1 764 5 b 809 120 794 33 802 70 b 819 244 816 170 819 212 b 561 222 739 230 653 222 b 354 472 423 222 354 306 b 561 722 354 639 423 722 b 682 715 594 722 634 720 b 785 700 729 710 763 705 b 809 810 794 723 802 760 b 819 935 816 861 819 902 b 699 951 790 940 750 946 b 561 958 648 956 602 958 b 185 837 397 958 272 918 b 56 472 99 756 56 635 b 185 107 56 309 99 188 b 561 -14 272 27 397 -14 z "},"ċ":{"ha":736,"x_min":0,"x_max":0,"o":"m 410 736 b 493 808 435 755 463 779 b 570 889 523 836 548 863 b 493 970 548 915 523 942 b 410 1042 463 998 435 1022 b 250 889 342 989 289 938 b 323 810 269 865 294 838 b 410 736 353 782 382 757 z m 469 -14 b 653 9 529 -14 591 -6 b 677 108 662 33 670 66 b 688 218 684 150 688 187 b 469 195 607 203 534 195 b 356 234 414 195 376 208 b 326 347 336 261 326 298 b 332 407 326 370 328 390 b 353 455 336 424 343 440 b 397 488 363 469 377 481 b 469 500 416 496 440 500 b 653 476 535 500 597 492 b 677 575 662 500 670 534 b 688 685 684 617 688 654 b 469 708 611 700 538 708 b 149 617 327 708 220 678 b 41 347 77 557 41 467 b 469 -14 41 107 184 -14 z "},"Č":{"ha":861,"x_min":0,"x_max":0,"o":"m 416 1014 l 583 1014 l 736 1264 l 570 1264 l 500 1150 l 431 1264 l 264 1264 z m 561 -14 b 682 -6 594 -14 635 -11 b 785 9 730 -1 764 5 b 809 120 794 33 802 70 b 819 244 816 170 819 212 b 561 222 739 230 653 222 b 354 472 423 222 354 306 b 561 722 354 639 423 722 b 682 715 594 722 634 720 b 785 700 729 710 763 705 b 809 810 794 723 802 760 b 819 935 816 861 819 902 b 699 951 790 940 750 946 b 561 958 648 956 602 958 b 185 837 397 958 272 918 b 56 472 99 756 56 635 b 185 107 56 309 99 188 b 561 -14 272 27 397 -14 z "},"č":{"ha":736,"x_min":0,"x_max":0,"o":"m 326 764 l 493 764 l 646 1014 l 479 1014 l 410 900 l 340 1014 l 174 1014 z m 469 -14 b 653 9 529 -14 591 -6 b 677 108 662 33 670 66 b 688 218 684 150 688 187 b 469 195 607 203 534 195 b 356 234 414 195 376 208 b 326 347 336 261 326 298 b 332 407 326 370 328 390 b 353 455 336 424 343 440 b 397 488 363 469 377 481 b 469 500 416 496 440 500 b 653 476 535 500 597 492 b 677 575 662 500 670 534 b 688 685 684 617 688 654 b 469 708 611 700 538 708 b 149 617 327 708 220 678 b 41 347 77 557 41 467 b 469 -14 41 107 184 -14 z "},"Ď":{"ha":1027,"x_min":0,"x_max":0,"o":"m 415 1014 l 582 1014 l 734 1264 l 568 1264 l 498 1150 l 429 1264 l 262 1264 z m 83 0 l 498 0 b 849 119 650 0 767 40 b 972 472 931 198 972 316 b 849 826 972 628 931 746 b 498 945 767 905 650 945 l 83 945 z m 498 250 l 375 250 l 375 694 l 498 694 b 629 637 557 694 600 675 b 672 472 658 599 672 544 b 629 307 672 400 658 345 b 498 250 600 269 557 250 z "},"ď":{"ha":1034,"x_min":0,"x_max":0,"o":"m 840 1069 b 829 892 840 1019 837 960 b 799 743 822 825 812 775 l 937 736 b 1006 886 964 770 987 820 b 1035 1069 1025 952 1035 1013 z m 479 708 b 334 694 426 708 377 703 b 214 651 291 685 251 671 b 121 574 177 631 146 605 b 62 456 96 543 76 503 b 41 294 48 409 41 355 b 100 73 41 204 61 130 b 262 -14 139 15 193 -14 b 388 23 310 -14 352 -1 b 479 147 423 47 454 89 l 479 0 l 757 0 l 757 1000 l 479 1000 z m 385 195 b 332 257 362 195 345 215 b 313 396 319 299 313 345 b 318 440 313 414 314 429 b 337 472 321 451 327 462 b 379 493 346 481 360 489 b 452 500 398 498 422 500 b 507 494 471 500 490 498 b 452 259 488 381 469 303 b 385 195 435 216 412 195 z "},"Đ":{"ha":1042,"x_min":0,"x_max":0,"o":"m 513 945 l 97 945 l 97 576 l 14 576 l 14 368 l 97 368 l 97 0 l 513 0 b 863 119 665 0 781 40 b 986 472 945 198 986 316 b 863 826 986 628 945 746 b 513 945 781 905 665 945 z m 513 250 l 389 250 l 389 368 l 570 368 l 570 576 l 389 576 l 389 694 l 513 694 b 643 637 571 694 615 675 b 686 472 672 599 686 544 b 643 307 686 400 672 345 b 513 250 615 269 571 250 z "},"đ":{"ha":840,"x_min":0,"x_max":0,"o":"m 840 945 l 757 945 l 757 1000 l 479 1000 l 479 945 l 292 945 l 292 764 l 479 764 l 479 708 b 334 694 426 708 377 703 b 214 651 291 685 251 671 b 121 574 177 631 146 605 b 62 456 96 543 76 503 b 41 294 48 409 41 355 b 100 73 41 204 61 130 b 262 -14 139 15 193 -14 b 388 23 310 -14 352 -1 b 479 147 423 47 454 89 l 479 0 l 757 0 l 757 764 l 840 764 z m 385 195 b 332 257 362 195 345 215 b 313 396 319 299 313 345 b 318 440 313 414 314 429 b 337 472 321 451 327 462 b 379 493 346 481 360 489 b 452 500 398 498 422 500 b 507 494 471 500 490 498 b 452 259 488 381 469 303 b 385 195 435 216 412 195 z "},"Ē":{"ha":847,"x_min":0,"x_max":0,"o":"m 215 1063 l 688 1063 l 688 1215 l 215 1215 z m 83 0 l 764 0 b 785 116 773 27 780 66 b 791 250 789 167 791 211 l 375 250 l 375 347 l 701 347 b 723 466 711 376 718 415 b 729 597 727 517 729 561 l 375 597 l 375 694 l 764 694 b 785 811 773 722 780 760 b 791 945 789 861 791 906 l 83 945 z "},"ē":{"ha":812,"x_min":0,"x_max":0,"o":"m 643 965 l 171 965 l 171 812 l 643 812 z m 334 283 b 439 270 363 277 398 273 b 554 264 481 267 519 265 b 717 264 588 264 643 264 b 771 358 743 297 761 329 b 684 617 771 471 742 557 b 431 708 626 678 541 708 b 273 686 373 708 320 701 b 150 620 226 671 185 649 b 70 506 116 590 89 553 b 41 347 51 460 41 407 b 150 77 41 228 78 138 b 473 -14 223 17 330 -14 b 700 9 562 -14 637 -6 b 724 110 709 35 718 68 b 734 218 731 151 734 188 b 473 195 654 203 566 195 b 334 283 396 195 349 224 z m 418 500 b 474 479 443 500 462 493 b 497 412 486 465 493 443 b 328 374 439 410 383 397 b 353 467 330 413 338 444 b 418 500 368 489 390 500 z "},"Ė":{"ha":847,"x_min":0,"x_max":0,"o":"m 452 986 b 611 1139 510 1029 563 1080 b 534 1221 589 1165 564 1192 b 452 1292 504 1249 477 1273 b 365 1217 424 1271 395 1246 b 292 1139 335 1189 310 1163 b 452 986 329 1090 382 1039 z m 83 0 l 764 0 b 785 116 773 27 780 66 b 791 250 789 167 791 211 l 375 250 l 375 347 l 701 347 b 723 466 711 376 718 415 b 729 597 727 517 729 561 l 375 597 l 375 694 l 764 694 b 785 811 773 722 780 760 b 791 945 789 861 791 906 l 83 945 z "},"ė":{"ha":812,"x_min":0,"x_max":0,"o":"m 407 736 b 490 808 433 755 460 779 b 567 889 520 836 546 863 b 490 970 546 915 520 942 b 407 1042 460 998 433 1022 b 248 889 339 989 286 938 b 321 810 267 865 291 838 b 407 736 351 782 379 757 z m 334 283 b 439 270 363 277 398 273 b 554 264 481 267 519 265 b 717 264 588 264 643 264 b 771 358 743 297 761 329 b 684 617 771 471 742 557 b 431 708 626 678 541 708 b 273 686 373 708 320 701 b 150 620 226 671 185 649 b 70 506 116 590 89 553 b 41 347 51 460 41 407 b 150 77 41 228 78 138 b 473 -14 223 17 330 -14 b 700 9 562 -14 637 -6 b 724 110 709 35 718 68 b 734 218 731 151 734 188 b 473 195 654 203 566 195 b 334 283 396 195 349 224 z m 418 500 b 474 479 443 500 462 493 b 497 412 486 465 493 443 b 328 374 439 410 383 397 b 353 467 330 413 338 444 b 418 500 368 489 390 500 z "},"Ę":{"ha":847,"x_min":0,"x_max":0,"o":"m 375 347 l 701 347 b 723 466 711 376 718 415 b 729 597 727 517 729 561 l 375 597 l 375 694 l 764 694 b 785 811 773 722 780 760 b 791 945 789 861 791 906 l 83 945 l 83 0 l 625 0 b 505 -78 572 -20 532 -46 b 465 -180 479 -110 465 -144 b 511 -280 465 -220 480 -253 b 632 -319 541 -306 581 -319 b 764 -292 683 -319 727 -310 l 757 -195 b 694 -208 736 -204 715 -208 b 650 -192 676 -208 661 -203 b 632 -146 638 -181 632 -166 b 664 -73 632 -123 643 -98 b 764 0 685 -47 718 -23 b 785 116 773 27 780 66 b 791 250 789 167 791 211 l 375 250 z "},"ę":{"ha":812,"x_min":0,"x_max":0,"o":"m 334 283 b 439 270 363 277 398 273 b 554 264 481 267 519 265 b 717 264 588 264 643 264 b 771 358 743 297 761 329 b 684 617 771 471 742 557 b 431 708 626 678 541 708 b 273 686 373 708 320 701 b 150 620 226 671 185 649 b 70 506 116 590 89 553 b 41 347 51 460 41 407 b 150 77 41 228 78 138 b 473 -14 223 17 330 -14 l 511 -14 b 429 -84 474 -33 447 -57 b 401 -171 411 -112 401 -141 b 447 -270 401 -211 417 -244 b 568 -310 477 -297 518 -310 b 700 -282 619 -310 663 -301 l 693 -184 b 631 -199 670 -194 650 -199 b 586 -182 613 -199 598 -193 b 568 -136 574 -172 568 -156 b 600 -63 568 -113 579 -89 b 700 9 621 -37 655 -13 b 724 110 709 35 718 68 b 734 218 731 151 734 188 b 473 195 654 203 566 195 b 334 283 396 195 349 224 z m 418 500 b 474 479 443 500 462 493 b 497 412 486 465 493 443 b 328 374 439 410 383 397 b 353 467 330 413 338 444 b 418 500 368 489 390 500 z "},"Ě":{"ha":847,"x_min":0,"x_max":0,"o":"m 368 1014 l 534 1014 l 688 1264 l 521 1264 l 452 1150 l 382 1264 l 215 1264 z m 83 0 l 764 0 b 785 116 773 27 780 66 b 791 250 789 167 791 211 l 375 250 l 375 347 l 701 347 b 723 466 711 376 718 415 b 729 597 727 517 729 561 l 375 597 l 375 694 l 764 694 b 785 811 773 722 780 760 b 791 945 789 861 791 906 l 83 945 z "},"ě":{"ha":812,"x_min":0,"x_max":0,"o":"m 490 764 l 643 1014 l 476 1014 l 407 900 l 338 1014 l 171 1014 l 323 764 z m 334 283 b 439 270 363 277 398 273 b 554 264 481 267 519 265 b 717 264 588 264 643 264 b 771 358 743 297 761 329 b 684 617 771 471 742 557 b 431 708 626 678 541 708 b 273 686 373 708 320 701 b 150 620 226 671 185 649 b 70 506 116 590 89 553 b 41 347 51 460 41 407 b 150 77 41 228 78 138 b 473 -14 223 17 330 -14 b 700 9 562 -14 637 -6 b 724 110 709 35 718 68 b 734 218 731 151 734 188 b 473 195 654 203 566 195 b 334 283 396 195 349 224 z m 418 500 b 474 479 443 500 462 493 b 497 412 486 465 493 443 b 328 374 439 410 383 397 b 353 467 330 413 338 444 b 418 500 368 489 390 500 z "},"Ğ":{"ha":958,"x_min":0,"x_max":0,"o":"m 534 1014 b 714 1083 612 1014 672 1037 b 778 1264 757 1129 778 1189 l 611 1264 b 592 1193 611 1234 605 1211 b 534 1166 580 1175 561 1166 b 458 1264 484 1166 458 1199 l 292 1264 b 355 1082 292 1189 313 1128 b 534 1014 397 1037 457 1014 z m 590 472 l 590 222 l 555 222 b 404 284 487 222 437 243 b 354 472 371 325 354 388 b 406 661 354 557 371 620 b 570 722 440 702 495 722 b 833 700 667 722 755 715 b 858 810 843 723 851 760 b 868 935 865 861 868 902 b 570 958 769 950 670 958 b 56 472 227 958 56 796 b 183 107 56 309 98 187 b 555 -14 268 27 392 -14 b 875 37 677 -14 783 3 l 875 472 z "},"ğ":{"ha":826,"x_min":0,"x_max":0,"o":"m 428 764 b 608 832 506 764 566 786 b 671 1014 650 878 671 938 l 504 1014 b 428 917 504 949 479 917 b 351 1014 377 917 351 949 l 184 1014 b 248 832 184 939 206 878 b 428 764 290 787 350 764 z m 488 708 b 339 695 433 708 384 704 b 217 653 295 687 254 673 b 122 576 179 633 147 607 b 63 458 97 545 77 505 b 41 294 48 410 41 356 b 100 73 41 204 61 130 b 262 -14 139 15 193 -14 b 388 23 310 -14 352 -1 b 479 147 423 47 454 89 l 479 56 b 479 28 479 45 479 36 b 474 -1 478 21 477 11 b 461 -34 471 -14 467 -24 b 439 -63 456 -43 449 -53 b 403 -88 429 -73 417 -81 b 350 -105 389 -95 371 -100 b 277 -111 328 -109 304 -111 b 97 -98 214 -111 154 -107 b 118 -293 97 -179 104 -244 b 193 -312 131 -301 156 -307 b 313 -319 230 -317 270 -319 b 649 -225 465 -319 578 -288 b 757 56 721 -163 757 -69 l 757 694 b 488 708 644 703 554 708 z m 385 195 b 332 257 362 195 345 215 b 313 396 319 299 313 345 b 318 440 313 414 314 429 b 337 472 321 451 327 462 b 379 493 346 481 360 489 b 452 500 398 498 422 500 b 507 494 471 500 490 498 b 452 259 488 381 469 303 b 385 195 435 216 412 195 z "},"Ġ":{"ha":958,"x_min":0,"x_max":0,"o":"m 534 986 b 618 1058 560 1005 588 1029 b 694 1139 648 1086 673 1113 b 618 1220 673 1164 648 1192 b 534 1292 588 1249 560 1272 b 448 1218 507 1271 478 1246 b 375 1139 418 1189 394 1163 b 534 986 413 1089 467 1039 z m 590 472 l 590 222 l 555 222 b 404 284 487 222 437 243 b 354 472 371 325 354 388 b 406 661 354 557 371 620 b 570 722 440 702 495 722 b 833 700 667 722 755 715 b 858 810 843 723 851 760 b 868 935 865 861 868 902 b 570 958 769 950 670 958 b 56 472 227 958 56 796 b 183 107 56 309 98 187 b 555 -14 268 27 392 -14 b 875 37 677 -14 783 3 l 875 472 z "},"ġ":{"ha":826,"x_min":0,"x_max":0,"o":"m 428 736 b 510 807 453 755 481 779 b 587 889 540 836 566 863 b 428 1042 539 947 486 998 b 268 889 359 988 305 937 b 341 810 286 865 311 839 b 428 736 371 782 400 757 z m 488 708 b 339 695 433 708 384 704 b 217 653 295 687 254 673 b 122 576 179 633 147 607 b 63 458 97 545 77 505 b 41 294 48 410 41 356 b 100 73 41 204 61 130 b 262 -14 139 15 193 -14 b 388 23 310 -14 352 -1 b 479 147 423 47 454 89 l 479 56 b 479 28 479 45 479 36 b 474 -1 478 21 477 11 b 461 -34 471 -14 467 -24 b 439 -63 456 -43 449 -53 b 403 -88 429 -73 417 -81 b 350 -105 389 -95 371 -100 b 277 -111 328 -109 304 -111 b 97 -98 214 -111 154 -107 b 118 -293 97 -179 104 -244 b 193 -312 131 -301 156 -307 b 313 -319 230 -317 270 -319 b 649 -225 465 -319 578 -288 b 757 56 721 -163 757 -69 l 757 694 b 488 708 644 703 554 708 z m 385 195 b 332 257 362 195 345 215 b 313 396 319 299 313 345 b 318 440 313 414 314 429 b 337 472 321 451 327 462 b 379 493 346 481 360 489 b 452 500 398 498 422 500 b 507 494 471 500 490 498 b 452 259 488 381 469 303 b 385 195 435 216 412 195 z "},"Ģ":{"ha":958,"x_min":0,"x_max":0,"o":"m 590 472 l 590 222 l 555 222 b 404 284 487 222 437 243 b 354 472 371 325 354 388 b 406 661 354 557 371 620 b 570 722 440 702 495 722 b 833 700 667 722 755 715 b 858 810 843 723 851 760 b 868 935 865 861 868 902 b 570 958 769 950 670 958 b 56 472 227 958 56 796 b 183 107 56 309 98 187 b 555 -14 268 27 392 -14 b 875 37 677 -14 783 3 l 875 472 z m 410 -340 l 521 -347 b 591 -221 550 -311 574 -268 b 618 -69 609 -173 618 -123 l 452 -69 b 440 -214 452 -114 448 -163 b 410 -340 433 -266 423 -308 z "},"ģ":{"ha":826,"x_min":0,"x_max":0,"o":"m 546 1035 l 435 1042 b 364 915 405 1005 382 963 b 338 764 347 867 338 817 l 504 764 b 515 909 504 809 508 857 b 546 1035 523 960 533 1002 z m 488 708 b 339 695 433 708 384 704 b 217 653 295 687 254 673 b 122 576 179 633 147 607 b 63 458 97 545 77 505 b 41 294 48 410 41 356 b 100 73 41 204 61 130 b 262 -14 139 15 193 -14 b 388 23 310 -14 352 -1 b 479 147 423 47 454 89 l 479 56 b 479 28 479 45 479 36 b 474 -1 478 21 477 11 b 461 -34 471 -14 467 -24 b 439 -63 456 -43 449 -53 b 403 -88 429 -73 417 -81 b 350 -105 389 -95 371 -100 b 277 -111 328 -109 304 -111 b 97 -98 214 -111 154 -107 b 118 -293 97 -179 104 -244 b 193 -312 131 -301 156 -307 b 313 -319 230 -317 270 -319 b 649 -225 465 -319 578 -288 b 757 56 721 -163 757 -69 l 757 694 b 488 708 644 703 554 708 z m 385 195 b 332 257 362 195 345 215 b 313 396 319 299 313 345 b 318 440 313 414 314 429 b 337 472 321 451 327 462 b 379 493 346 481 360 489 b 452 500 398 498 422 500 b 507 494 471 500 490 498 b 452 259 488 381 469 303 b 385 195 435 216 412 195 z "},"Ħ":{"ha":1042,"x_min":0,"x_max":0,"o":"m 1028 882 l 945 882 l 945 945 l 653 945 l 653 882 l 389 882 l 389 945 l 97 945 l 97 882 l 14 882 l 14 673 l 97 673 l 97 0 l 389 0 l 389 347 l 653 347 l 653 0 l 945 0 l 945 673 l 1028 673 z m 653 597 l 389 597 l 389 673 l 653 673 z "},"ħ":{"ha":861,"x_min":0,"x_max":0,"o":"m 576 708 b 452 670 529 708 487 695 b 361 542 416 645 386 602 l 361 764 l 549 764 l 549 945 l 361 945 l 361 1000 l 83 1000 l 83 945 l 0 945 l 0 764 l 83 764 l 83 0 l 361 0 b 362 136 361 51 361 96 b 368 256 364 177 365 216 b 379 357 370 295 374 329 b 396 433 384 385 389 411 b 422 483 403 455 412 472 b 458 500 433 494 445 500 b 504 472 481 500 497 490 b 514 375 511 453 514 421 l 514 0 l 791 0 l 791 444 b 779 551 791 484 787 519 b 745 627 770 582 759 607 b 695 674 731 646 714 662 b 637 701 676 687 656 696 b 576 708 618 706 598 708 z "},"Ī":{"ha":757,"x_min":0,"x_max":0,"o":"m 143 1063 l 615 1063 l 615 1215 l 143 1215 z m 49 0 l 681 0 b 702 118 690 28 697 67 b 708 250 706 169 708 213 l 521 250 l 521 694 l 681 694 b 702 812 690 722 697 761 b 708 945 706 864 708 908 l 49 945 l 49 694 l 229 694 l 229 250 l 49 250 z "},"ī":{"ha":416,"x_min":0,"x_max":0,"o":"m -28 812 l 444 812 l 444 965 l -28 965 z m 69 0 l 347 0 l 347 694 l 69 694 z "},"Į":{"ha":757,"x_min":0,"x_max":0,"o":"m 521 694 l 681 694 b 702 812 690 722 697 761 b 708 945 706 864 708 908 l 49 945 l 49 694 l 229 694 l 229 250 l 49 250 l 49 0 l 375 0 b 255 -78 322 -20 282 -46 b 215 -180 228 -110 215 -144 b 260 -280 215 -220 230 -253 b 382 -319 291 -306 331 -319 b 514 -292 433 -319 477 -310 l 507 -195 b 444 -208 486 -204 465 -208 b 399 -192 426 -208 411 -203 b 382 -146 388 -181 382 -166 b 414 -73 382 -123 393 -98 b 514 0 435 -47 469 -23 l 681 0 b 702 118 690 28 697 67 b 708 250 706 169 708 213 l 521 250 z "},"į":{"ha":416,"x_min":0,"x_max":0,"o":"m 208 736 b 292 808 234 755 262 779 b 368 889 321 836 347 863 b 292 970 347 915 321 942 b 208 1042 262 998 234 1022 b 49 889 140 989 87 938 b 122 810 68 865 92 838 b 208 736 152 782 181 757 z m 69 0 l 208 0 b 89 -78 155 -20 115 -46 b 49 -180 62 -110 49 -144 b 94 -280 49 -220 64 -253 b 215 -319 124 -306 164 -319 b 347 -292 267 -319 311 -310 l 340 -195 b 278 -208 319 -204 298 -208 b 233 -192 260 -208 245 -203 b 215 -146 221 -181 215 -166 b 247 -73 215 -123 226 -98 b 347 0 269 -47 302 -23 l 347 694 l 69 694 z "},"İ":{"ha":757,"x_min":0,"x_max":0,"o":"m 379 986 b 463 1058 405 1005 433 1029 b 539 1139 492 1086 518 1113 b 463 1220 518 1164 492 1192 b 379 1292 433 1249 405 1272 b 293 1218 352 1271 323 1246 b 220 1139 263 1189 239 1163 b 379 986 258 1089 311 1039 z m 49 0 l 681 0 b 702 118 690 28 697 67 b 708 250 706 169 708 213 l 521 250 l 521 694 l 681 694 b 702 812 690 722 697 761 b 708 945 706 864 708 908 l 49 945 l 49 694 l 229 694 l 229 250 l 49 250 z "},"ı":{"ha":416,"x_min":0,"x_max":0,"o":"m 69 0 l 347 0 l 347 694 l 69 694 z "},"Ĳ":{"ha":1208,"x_min":0,"x_max":0,"o":"m 681 694 b 702 812 690 722 697 761 b 708 945 706 864 708 908 l 49 945 l 49 694 l 229 694 l 229 250 l 49 250 l 49 0 l 681 0 b 702 118 690 28 697 67 b 708 250 706 169 708 213 l 521 250 l 521 694 z m 833 945 l 833 28 b 809 -150 833 -42 825 -101 b 722 -306 792 -198 763 -250 l 946 -306 b 1040 -222 983 -280 1014 -252 b 1095 -132 1065 -193 1083 -163 b 1119 -50 1106 -102 1114 -75 b 1125 28 1123 -26 1125 0 l 1125 945 z "},"ĳ":{"ha":831,"x_min":0,"x_max":0,"o":"m 208 1042 b 49 889 140 989 87 938 b 122 810 68 865 92 838 b 208 736 152 782 181 757 b 292 808 234 755 262 779 b 368 889 321 836 347 863 b 292 970 347 915 321 942 b 208 1042 262 998 234 1022 z m 624 736 b 706 807 649 755 677 779 b 783 889 736 836 762 863 b 624 1042 735 947 682 998 b 464 889 555 988 501 937 b 537 810 482 865 507 839 b 624 736 567 782 596 757 z m 69 0 l 347 0 l 347 694 l 69 694 z m 485 28 b 460 -150 485 -42 477 -101 b 374 -306 444 -198 415 -250 l 597 -306 b 664 -251 623 -288 645 -270 b 710 -192 683 -231 698 -212 b 738 -134 721 -171 731 -152 b 754 -76 746 -116 751 -97 b 761 -23 758 -55 760 -37 b 762 28 762 -8 762 8 l 762 694 l 485 694 z "},"Ķ":{"ha":1055,"x_min":0,"x_max":0,"o":"m 83 945 l 83 0 l 375 0 l 375 945 z m 1042 945 l 722 945 l 375 472 l 637 87 b 681 36 653 65 668 48 b 740 5 695 24 714 14 b 839 -7 766 -3 799 -7 b 1042 0 923 -7 991 -5 l 708 493 z m 403 -340 l 514 -347 b 585 -221 543 -311 567 -268 b 611 -69 602 -173 611 -123 l 444 -69 b 433 -215 444 -115 441 -163 b 403 -340 426 -266 416 -308 z "},"ķ":{"ha":861,"x_min":0,"x_max":0,"o":"m 69 1000 l 69 0 l 347 0 l 347 1000 z m 847 694 l 550 694 l 347 350 l 468 94 b 534 15 486 56 508 29 b 654 -7 561 0 601 -7 b 840 0 730 -7 792 -5 l 650 371 z m 306 -340 l 416 -347 b 487 -220 446 -311 469 -268 b 514 -69 505 -172 514 -122 l 347 -69 b 336 -215 347 -115 344 -163 b 306 -340 329 -266 319 -308 z "},"Ĺ":{"ha":819,"x_min":0,"x_max":0,"o":"m 160 1000 l 444 1125 l 368 1264 l 97 1111 z m 83 0 l 750 0 b 771 116 760 27 767 66 b 778 250 776 167 778 211 l 375 250 l 375 945 l 83 945 z "},"ĺ":{"ha":416,"x_min":0,"x_max":0,"o":"m 139 1055 l 424 1181 l 347 1320 l 77 1166 z m 69 0 l 347 0 l 347 1000 l 69 1000 z "},"Ļ":{"ha":819,"x_min":0,"x_max":0,"o":"m 83 0 l 750 0 b 771 116 760 27 767 66 b 778 250 776 167 778 211 l 375 250 l 375 945 l 83 945 z m 396 -347 b 467 -221 425 -311 449 -268 b 493 -69 484 -173 493 -123 l 326 -69 b 315 -215 326 -115 323 -163 b 285 -340 308 -266 298 -308 z "},"ļ":{"ha":416,"x_min":0,"x_max":0,"o":"m 69 0 l 347 0 l 347 1000 l 69 1000 z m 195 -347 b 265 -221 224 -311 248 -268 b 292 -69 283 -173 292 -123 l 125 -69 b 114 -215 125 -115 121 -163 b 83 -340 107 -266 97 -308 z "},"Ľ":{"ha":819,"x_min":0,"x_max":0,"o":"m 597 681 b 666 830 625 715 648 765 b 694 1014 685 896 694 957 l 500 1014 b 489 837 500 964 496 905 b 458 688 481 769 471 719 z m 83 0 l 750 0 b 771 116 760 27 767 66 b 778 250 776 167 778 211 l 375 250 l 375 945 l 83 945 z "},"ľ":{"ha":625,"x_min":0,"x_max":0,"o":"m 528 736 b 597 886 555 770 578 820 b 625 1069 616 952 625 1013 l 431 1069 b 419 893 431 1020 427 961 b 389 743 411 825 401 775 z m 69 0 l 347 0 l 347 1000 l 69 1000 z "},"Ŀ":{"ha":819,"x_min":0,"x_max":0,"o":"m 83 0 l 750 0 b 771 116 760 27 767 66 b 778 250 776 167 778 211 l 375 250 l 375 945 l 83 945 z m 604 389 b 687 460 630 408 657 431 b 764 542 716 488 742 516 b 604 694 715 600 662 651 b 444 542 535 641 482 590 b 517 463 463 518 487 492 b 604 389 548 435 577 410 z "},"ŀ":{"ha":722,"x_min":0,"x_max":0,"o":"m 69 0 l 347 0 l 347 1000 l 69 1000 z m 562 347 b 646 419 588 367 616 391 b 722 500 675 447 701 474 b 646 581 701 526 675 553 b 562 653 616 610 588 634 b 476 579 535 632 506 607 b 403 500 446 551 422 524 b 562 347 441 451 494 400 z "},"Ł":{"ha":819,"x_min":0,"x_max":0,"o":"m 375 250 l 375 437 l 570 486 l 570 694 l 375 646 l 375 945 l 83 945 l 83 574 l 14 555 l 14 347 l 83 366 l 83 0 l 750 0 b 771 116 760 27 767 66 b 778 250 776 167 778 211 z "},"ł":{"ha":472,"x_min":0,"x_max":0,"o":"m 472 681 l 375 652 l 375 1000 l 97 1000 l 97 571 l 0 542 l 0 361 l 97 390 l 97 0 l 375 0 l 375 471 l 472 500 z "},"Ń":{"ha":1083,"x_min":0,"x_max":0,"o":"m 472 1000 l 757 1125 l 681 1264 l 410 1111 z m 83 0 l 347 0 l 347 639 l 353 639 l 528 0 l 1000 0 l 1000 945 l 736 945 l 736 306 l 730 306 l 627 741 b 582 856 615 789 600 828 b 500 922 563 884 536 906 b 361 945 465 937 418 945 l 83 945 z "},"ń":{"ha":847,"x_min":0,"x_max":0,"o":"m 639 875 l 562 1014 l 292 861 l 354 750 z m 562 708 b 436 669 513 708 471 695 b 345 534 400 642 370 598 b 326 694 342 579 336 633 l 56 694 b 69 444 65 583 69 500 l 69 0 l 347 0 b 349 137 347 51 348 97 b 354 256 350 177 352 216 b 365 357 357 295 360 329 b 383 433 370 385 376 411 b 409 483 390 455 398 472 b 444 500 419 494 431 500 b 489 472 467 500 482 490 b 500 375 496 453 500 421 l 500 0 l 778 0 l 778 444 b 765 551 778 484 774 519 b 731 627 756 582 745 607 b 681 674 717 646 700 662 b 623 701 662 687 643 696 b 562 708 604 706 583 708 z "},"Ņ":{"ha":1083,"x_min":0,"x_max":0,"o":"m 83 0 l 347 0 l 347 639 l 353 639 l 528 0 l 1000 0 l 1000 945 l 736 945 l 736 306 l 730 306 l 627 741 b 582 856 615 789 600 828 b 500 922 563 884 536 906 b 361 945 465 937 418 945 l 83 945 z m 528 -347 b 598 -220 557 -311 581 -268 b 625 -69 616 -172 625 -122 l 458 -69 b 447 -214 458 -114 455 -163 b 416 -340 440 -266 430 -308 z "},"ņ":{"ha":847,"x_min":0,"x_max":0,"o":"m 562 708 b 436 669 513 708 471 695 b 345 534 400 642 370 598 b 326 694 342 579 336 633 l 56 694 b 69 444 65 583 69 500 l 69 0 l 347 0 b 349 137 347 51 348 97 b 354 256 350 177 352 216 b 365 357 357 295 360 329 b 383 433 370 385 376 411 b 409 483 390 455 398 472 b 444 500 419 494 431 500 b 489 472 467 500 482 490 b 500 375 496 453 500 421 l 500 0 l 778 0 l 778 444 b 765 551 778 484 774 519 b 731 627 756 582 745 607 b 681 674 717 646 700 662 b 623 701 662 687 643 696 b 562 708 604 706 583 708 z m 298 -340 l 410 -347 b 480 -220 439 -311 463 -268 b 507 -69 498 -172 507 -122 l 340 -69 b 329 -214 340 -114 337 -163 b 298 -340 322 -266 312 -308 z "},"Ň":{"ha":1083,"x_min":0,"x_max":0,"o":"m 458 1014 l 625 1014 l 778 1264 l 611 1264 l 542 1150 l 472 1264 l 306 1264 z m 83 0 l 347 0 l 347 639 l 353 639 l 528 0 l 1000 0 l 1000 945 l 736 945 l 736 306 l 730 306 l 627 741 b 582 856 615 789 600 828 b 500 922 563 884 536 906 b 361 945 465 937 418 945 l 83 945 z "},"ň":{"ha":847,"x_min":0,"x_max":0,"o":"m 507 764 l 660 1014 l 493 1014 l 424 900 l 354 1014 l 187 1014 l 340 764 z m 562 708 b 436 669 513 708 471 695 b 345 534 400 642 370 598 b 326 694 342 579 336 633 l 56 694 b 69 444 65 583 69 500 l 69 0 l 347 0 b 349 137 347 51 348 97 b 354 256 350 177 352 216 b 365 357 357 295 360 329 b 383 433 370 385 376 411 b 409 483 390 455 398 472 b 444 500 419 494 431 500 b 489 472 467 500 482 490 b 500 375 496 453 500 421 l 500 0 l 778 0 l 778 444 b 765 551 778 484 774 519 b 731 627 756 582 745 607 b 681 674 717 646 700 662 b 623 701 662 687 643 696 b 562 708 604 706 583 708 z "},"Ŋ":{"ha":1083,"x_min":0,"x_max":0,"o":"m 625 -306 l 821 -306 b 1000 28 940 -223 1000 -111 l 1000 945 l 736 945 l 736 306 l 730 306 l 627 741 b 582 856 615 789 600 828 b 500 922 563 884 536 906 b 361 945 465 937 418 945 l 83 945 l 83 0 l 347 0 l 347 639 l 353 639 l 526 0 l 736 0 b 708 -160 734 -62 725 -115 b 625 -306 691 -204 664 -253 z "},"ŋ":{"ha":847,"x_min":0,"x_max":0,"o":"m 562 708 b 436 669 513 708 471 695 b 345 534 400 642 370 598 b 326 694 342 579 336 633 l 56 694 b 69 444 65 583 69 500 l 69 0 l 347 0 b 349 137 347 51 348 97 b 354 256 350 177 352 216 b 365 357 357 295 360 329 b 383 433 370 385 376 411 b 409 483 390 455 398 472 b 444 500 419 494 431 500 b 489 472 467 500 482 490 b 500 375 496 453 500 421 l 500 28 b 475 -150 500 -42 492 -101 b 389 -306 459 -198 430 -250 l 612 -306 b 689 -238 642 -285 668 -262 b 739 -170 711 -214 727 -191 b 765 -99 750 -148 759 -125 b 776 -34 771 -73 774 -51 b 778 28 777 -16 778 4 l 778 444 b 765 551 778 484 774 519 b 731 627 756 582 745 607 b 681 674 717 646 700 662 b 623 701 662 687 643 696 b 562 708 604 706 583 708 z "},"Ō":{"ha":1042,"x_min":0,"x_max":0,"o":"m 285 1063 l 757 1063 l 757 1215 l 285 1215 z m 521 -14 b 865 107 670 -14 784 27 b 986 472 946 188 986 310 b 865 837 986 634 946 755 b 521 958 784 918 669 958 b 177 837 373 958 258 918 b 56 472 96 755 56 634 b 177 107 56 310 96 188 b 521 -14 257 27 372 -14 z m 521 222 b 354 472 410 222 354 306 b 521 722 354 639 410 722 b 688 472 632 722 688 639 b 521 222 688 306 632 222 z "},"ō":{"ha":861,"x_min":0,"x_max":0,"o":"m 195 812 l 667 812 l 667 965 l 195 965 z m 432 -14 b 720 77 557 -14 653 17 b 819 347 786 138 819 228 b 720 617 819 467 786 557 b 432 708 653 678 557 708 b 142 617 306 708 210 678 b 41 347 75 557 41 467 b 142 77 41 228 75 138 b 432 -14 210 17 306 -14 z m 432 195 b 326 347 361 195 326 245 b 432 500 326 449 361 500 b 534 347 500 500 534 449 b 511 235 534 299 527 261 b 432 195 495 208 469 195 z "},"Ő":{"ha":1042,"x_min":0,"x_max":0,"o":"m 452 1014 l 570 1250 l 416 1292 l 340 1048 z m 673 1014 l 791 1250 l 639 1292 l 562 1048 z m 521 -14 b 865 107 670 -14 784 27 b 986 472 946 188 986 310 b 865 837 986 634 946 755 b 521 958 784 918 669 958 b 177 837 373 958 258 918 b 56 472 96 755 56 634 b 177 107 56 310 96 188 b 521 -14 257 27 372 -14 z m 521 222 b 354 472 410 222 354 306 b 521 722 354 639 410 722 b 688 472 632 722 688 639 b 521 222 688 306 632 222 z "},"ő":{"ha":861,"x_min":0,"x_max":0,"o":"m 361 764 l 479 1000 l 326 1042 l 250 799 z m 583 764 l 701 1000 l 549 1042 l 472 799 z m 432 -14 b 720 77 557 -14 653 17 b 819 347 786 138 819 228 b 720 617 819 467 786 557 b 432 708 653 678 557 708 b 142 617 306 708 210 678 b 41 347 75 557 41 467 b 142 77 41 228 75 138 b 432 -14 210 17 306 -14 z m 432 195 b 326 347 361 195 326 245 b 432 500 326 449 361 500 b 534 347 500 500 534 449 b 511 235 534 299 527 261 b 432 195 495 208 469 195 z "},"Œ":{"ha":1451,"x_min":0,"x_max":0,"o":"m 979 347 l 1305 347 b 1327 466 1315 376 1323 415 b 1333 597 1331 517 1333 561 l 979 597 l 979 694 l 1368 694 b 1389 811 1377 722 1384 760 b 1396 945 1393 861 1396 906 l 757 945 l 757 882 b 493 958 688 933 600 958 b 319 928 430 958 372 948 b 181 839 267 908 221 878 b 89 687 142 800 111 749 b 56 472 67 624 56 552 b 89 257 56 391 67 319 b 181 104 111 194 142 143 b 319 16 221 66 267 36 b 493 -14 372 -4 430 -14 b 755 61 601 -14 688 11 l 755 0 l 1368 0 b 1389 116 1377 27 1384 66 b 1396 250 1393 167 1396 211 l 978 250 z m 521 222 b 354 472 410 222 354 306 b 521 722 354 639 410 722 b 688 472 632 722 688 639 b 521 222 688 306 632 222 z "},"œ":{"ha":1312,"x_min":0,"x_max":0,"o":"m 833 283 b 939 270 862 277 898 273 b 1054 264 981 267 1019 265 b 1217 264 1088 264 1142 264 b 1271 358 1243 297 1261 329 b 1186 617 1271 470 1243 556 b 945 708 1129 678 1049 708 b 681 612 835 708 747 676 b 418 708 617 676 529 708 b 140 616 299 708 206 677 b 41 347 74 555 41 466 b 140 78 41 229 74 139 b 418 -14 206 17 299 -14 b 684 79 533 -14 622 17 b 974 -14 752 17 849 -14 b 1200 9 1062 -14 1137 -6 b 1224 110 1209 35 1217 68 b 1235 218 1231 152 1235 188 b 974 195 1154 203 1067 195 b 833 283 896 195 849 224 z m 432 195 b 326 347 361 195 326 245 b 432 500 326 449 361 500 b 534 347 500 500 534 449 b 511 235 534 299 527 261 b 432 195 495 208 469 195 z m 918 500 b 974 479 943 500 962 493 b 997 412 985 465 993 443 b 828 374 939 410 883 397 b 854 467 830 413 839 444 b 918 500 869 489 890 500 z "},"Ŕ":{"ha":965,"x_min":0,"x_max":0,"o":"m 699 1125 l 623 1264 l 351 1111 l 414 1000 z m 739 321 b 856 442 790 349 829 390 b 896 618 882 494 896 553 b 808 854 896 715 867 794 b 559 945 749 915 667 945 l 83 945 l 83 0 l 375 0 l 375 278 l 436 278 l 557 96 b 581 60 567 80 575 68 b 606 33 587 53 595 44 b 640 11 617 23 628 15 b 684 -1 651 6 666 2 b 747 -7 702 -5 723 -7 b 951 0 831 -7 899 -5 z m 375 694 l 503 694 b 597 611 566 694 597 667 b 573 550 597 585 589 564 b 503 528 557 535 533 528 l 375 528 z "},"ŕ":{"ha":652,"x_min":0,"x_max":0,"o":"m 576 875 l 500 1014 l 229 861 l 292 750 z m 625 431 b 604 708 625 536 618 629 b 468 648 559 708 513 688 b 347 479 422 609 382 552 b 326 694 346 532 339 604 l 56 694 b 69 444 65 583 69 500 l 69 0 l 347 0 l 347 139 b 351 235 348 177 349 208 b 362 306 353 261 357 285 b 378 358 368 328 373 345 b 405 393 383 372 392 383 b 439 415 419 403 430 410 b 489 426 449 419 465 423 b 548 430 512 428 532 430 b 625 431 565 430 590 431 z "},"Ŗ":{"ha":965,"x_min":0,"x_max":0,"o":"m 739 321 b 856 442 790 349 829 390 b 896 618 882 494 896 553 b 808 854 896 715 867 794 b 559 945 749 915 667 945 l 83 945 l 83 0 l 375 0 l 375 278 l 436 278 l 557 96 b 581 60 567 80 575 68 b 606 33 587 53 595 44 b 640 11 617 23 628 15 b 684 -1 651 6 666 2 b 747 -7 702 -5 723 -7 b 951 0 831 -7 899 -5 z m 375 694 l 503 694 b 597 611 566 694 597 667 b 573 550 597 585 589 564 b 503 528 557 535 533 528 l 375 528 z m 358 -340 l 469 -347 b 540 -220 499 -311 522 -268 b 567 -69 558 -172 567 -122 l 400 -69 b 389 -214 400 -114 396 -163 b 358 -340 381 -266 371 -308 z "},"ŗ":{"ha":652,"x_min":0,"x_max":0,"o":"m 625 431 b 604 708 625 536 618 629 b 468 648 559 708 513 688 b 347 479 422 609 382 552 b 326 694 346 532 339 604 l 56 694 b 69 444 65 583 69 500 l 69 0 l 347 0 l 347 139 b 351 235 348 177 349 208 b 362 306 353 261 357 285 b 378 358 368 328 373 345 b 405 393 383 372 392 383 b 439 415 419 403 430 410 b 489 426 449 419 465 423 b 548 430 512 428 532 430 b 625 431 565 430 590 431 z m 82 -340 l 193 -347 b 264 -221 223 -311 246 -268 b 290 -69 281 -173 290 -123 l 123 -69 b 113 -215 123 -115 120 -163 b 82 -340 105 -266 95 -308 z "},"Ř":{"ha":965,"x_min":0,"x_max":0,"o":"m 567 1014 l 720 1264 l 553 1264 l 484 1150 l 414 1264 l 248 1264 l 400 1014 z m 739 321 b 856 442 790 349 829 390 b 896 618 882 494 896 553 b 808 854 896 715 867 794 b 559 945 749 915 667 945 l 83 945 l 83 0 l 375 0 l 375 278 l 436 278 l 557 96 b 581 60 567 80 575 68 b 606 33 587 53 595 44 b 640 11 617 23 628 15 b 684 -1 651 6 666 2 b 747 -7 702 -5 723 -7 b 951 0 831 -7 899 -5 z m 375 694 l 503 694 b 597 611 566 694 597 667 b 573 550 597 585 589 564 b 503 528 557 535 533 528 l 375 528 z "},"ř":{"ha":652,"x_min":0,"x_max":0,"o":"m 444 764 l 597 1014 l 431 1014 l 361 900 l 292 1014 l 125 1014 l 278 764 z m 625 431 b 604 708 625 536 618 629 b 468 648 559 708 513 688 b 347 479 422 609 382 552 b 326 694 346 532 339 604 l 56 694 b 69 444 65 583 69 500 l 69 0 l 347 0 l 347 139 b 351 235 348 177 349 208 b 362 306 353 261 357 285 b 378 358 368 328 373 345 b 405 393 383 372 392 383 b 439 415 419 403 430 410 b 489 426 449 419 465 423 b 548 430 512 428 532 430 b 625 431 565 430 590 431 z "},"Ś":{"ha":847,"x_min":0,"x_max":0,"o":"m 354 1000 l 639 1125 l 562 1264 l 292 1111 z m 371 -14 b 547 6 436 -14 495 -7 b 684 64 599 19 645 38 b 774 166 723 90 753 124 b 806 313 795 208 806 257 b 786 428 806 356 799 395 b 734 509 773 462 756 489 b 661 561 713 529 688 546 b 576 593 633 575 605 586 b 492 613 548 600 520 607 b 419 628 465 619 440 624 b 367 647 397 633 380 639 b 347 676 354 655 347 664 b 475 722 347 707 390 722 b 703 690 543 722 619 712 b 733 794 716 715 726 749 b 745 926 741 839 745 883 b 490 958 674 948 589 958 b 310 941 422 958 362 952 b 174 886 257 929 212 911 b 86 786 135 861 106 828 b 56 639 66 745 56 696 b 71 533 56 600 61 564 b 113 457 82 502 96 477 b 174 407 131 438 151 421 b 247 374 197 392 222 381 b 323 354 272 366 297 359 b 395 340 348 349 372 344 b 456 328 418 336 439 332 b 498 310 474 324 488 318 b 514 281 509 302 514 293 b 509 260 514 273 512 266 b 488 242 505 254 498 248 b 440 228 478 236 462 231 b 358 222 418 224 391 222 b 188 234 306 222 249 226 b 41 260 126 242 78 250 b 81 18 49 155 62 75 b 195 -4 94 9 132 2 b 371 -14 258 -11 317 -14 z "},"ś":{"ha":708,"x_min":0,"x_max":0,"o":"m 285 750 l 570 875 l 493 1014 l 222 861 z m 325 -14 b 673 239 557 -14 673 71 b 659 321 673 270 669 297 b 620 378 649 345 636 364 b 566 414 604 392 586 404 b 504 435 545 424 525 431 b 441 447 483 439 462 443 b 387 456 421 451 403 453 b 348 466 371 458 358 461 b 334 485 339 471 334 477 b 418 514 334 504 362 514 b 603 488 465 514 526 505 b 637 677 620 536 631 600 b 418 708 560 698 487 708 b 144 645 299 708 208 687 b 49 458 81 602 49 540 b 67 364 49 422 55 391 b 116 302 80 337 96 316 b 182 266 136 287 158 275 b 255 246 206 257 230 250 b 321 235 279 242 301 238 b 370 223 341 232 358 228 b 389 203 382 218 389 211 b 370 185 389 194 382 188 b 289 180 357 182 330 180 b 157 190 251 180 208 184 b 35 211 107 196 66 203 b 79 17 43 140 58 76 b 182 -3 90 11 124 4 b 325 -14 240 -10 287 -14 z "},"Ş":{"ha":847,"x_min":0,"x_max":0,"o":"m 806 313 b 786 428 806 356 799 395 b 734 509 773 462 756 489 b 661 561 713 529 688 546 b 576 593 633 575 605 586 b 492 613 548 600 520 607 b 419 628 465 619 440 624 b 367 647 397 633 380 639 b 347 676 354 655 347 664 b 475 722 347 707 390 722 b 703 690 543 722 619 712 b 733 794 716 715 726 749 b 745 926 741 839 745 883 b 490 958 674 948 589 958 b 310 941 422 958 362 952 b 174 886 257 929 212 911 b 86 786 135 861 106 828 b 56 639 66 745 56 696 b 71 533 56 600 61 564 b 113 457 82 502 96 477 b 174 407 131 438 151 421 b 247 374 197 392 222 381 b 323 354 272 366 297 359 b 395 340 348 349 372 344 b 456 328 418 336 439 332 b 498 310 474 324 488 318 b 514 281 509 302 514 293 b 509 260 514 273 512 266 b 488 242 505 254 498 248 b 440 228 478 236 462 231 b 358 222 418 224 391 222 b 188 234 306 222 249 226 b 41 260 126 242 78 250 b 81 18 49 155 62 75 b 195 -4 94 9 132 2 b 371 -14 258 -11 317 -14 l 374 -14 l 361 -125 b 424 -180 403 -137 424 -155 b 409 -205 424 -191 419 -199 b 368 -215 399 -212 385 -215 b 311 -210 355 -215 336 -213 l 298 -302 b 424 -319 331 -314 373 -319 b 502 -308 454 -319 480 -316 b 554 -277 525 -300 542 -290 b 581 -235 566 -264 575 -250 b 590 -187 587 -220 590 -204 b 577 -130 590 -166 586 -147 b 545 -90 569 -113 558 -100 b 503 -67 531 -80 517 -72 b 458 -56 489 -61 474 -57 l 464 -9 b 715 88 571 2 655 35 b 806 313 775 142 806 216 z "},"ş":{"ha":708,"x_min":0,"x_max":0,"o":"m 673 239 b 659 321 673 270 669 297 b 620 378 649 345 636 364 b 566 414 604 392 586 404 b 504 435 545 424 525 431 b 441 447 483 439 462 443 b 387 456 421 451 403 453 b 348 466 371 458 358 461 b 334 485 339 471 334 477 b 418 514 334 504 362 514 b 603 488 465 514 526 505 b 637 677 620 536 631 600 b 418 708 560 698 487 708 b 144 645 299 708 208 687 b 49 458 81 602 49 540 b 67 364 49 422 55 391 b 116 302 80 337 96 316 b 182 266 136 287 158 275 b 255 246 206 257 230 250 b 321 235 279 242 301 238 b 370 223 341 232 358 228 b 389 203 382 218 389 211 b 370 185 389 194 382 188 b 289 180 357 182 330 180 b 157 190 251 180 208 184 b 35 211 107 196 66 203 b 79 17 43 140 58 76 b 169 -2 89 11 119 5 b 304 -14 219 -8 264 -12 l 292 -125 b 354 -180 333 -137 354 -155 b 339 -205 354 -191 349 -199 b 298 -215 329 -212 316 -215 b 241 -210 285 -215 266 -213 l 229 -302 b 354 -319 262 -314 304 -319 b 432 -308 384 -319 410 -316 b 485 -277 455 -300 472 -290 b 512 -235 497 -264 506 -250 b 521 -187 518 -220 521 -204 b 508 -130 521 -166 517 -147 b 475 -90 500 -113 489 -100 b 433 -67 461 -80 447 -72 b 389 -56 419 -61 404 -57 l 395 -11 b 673 239 581 5 673 88 z "},"Š":{"ha":847,"x_min":0,"x_max":0,"o":"m 340 1014 l 507 1014 l 660 1264 l 493 1264 l 424 1150 l 354 1264 l 187 1264 z m 371 -14 b 547 6 436 -14 495 -7 b 684 64 599 19 645 38 b 774 166 723 90 753 124 b 806 313 795 208 806 257 b 786 428 806 356 799 395 b 734 509 773 462 756 489 b 661 561 713 529 688 546 b 576 593 633 575 605 586 b 492 613 548 600 520 607 b 419 628 465 619 440 624 b 367 647 397 633 380 639 b 347 676 354 655 347 664 b 475 722 347 707 390 722 b 703 690 543 722 619 712 b 733 794 716 715 726 749 b 745 926 741 839 745 883 b 490 958 674 948 589 958 b 310 941 422 958 362 952 b 174 886 257 929 212 911 b 86 786 135 861 106 828 b 56 639 66 745 56 696 b 71 533 56 600 61 564 b 113 457 82 502 96 477 b 174 407 131 438 151 421 b 247 374 197 392 222 381 b 323 354 272 366 297 359 b 395 340 348 349 372 344 b 456 328 418 336 439 332 b 498 310 474 324 488 318 b 514 281 509 302 514 293 b 509 260 514 273 512 266 b 488 242 505 254 498 248 b 440 228 478 236 462 231 b 358 222 418 224 391 222 b 188 234 306 222 249 226 b 41 260 126 242 78 250 b 81 18 49 155 62 75 b 195 -4 94 9 132 2 b 371 -14 258 -11 317 -14 z "},"š":{"ha":708,"x_min":0,"x_max":0,"o":"m 271 764 l 437 764 l 590 1014 l 424 1014 l 354 900 l 285 1014 l 118 1014 z m 325 -14 b 673 239 557 -14 673 71 b 659 321 673 270 669 297 b 620 378 649 345 636 364 b 566 414 604 392 586 404 b 504 435 545 424 525 431 b 441 447 483 439 462 443 b 387 456 421 451 403 453 b 348 466 371 458 358 461 b 334 485 339 471 334 477 b 418 514 334 504 362 514 b 603 488 465 514 526 505 b 637 677 620 536 631 600 b 418 708 560 698 487 708 b 144 645 299 708 208 687 b 49 458 81 602 49 540 b 67 364 49 422 55 391 b 116 302 80 337 96 316 b 182 266 136 287 158 275 b 255 246 206 257 230 250 b 321 235 279 242 301 238 b 370 223 341 232 358 228 b 389 203 382 218 389 211 b 370 185 389 194 382 188 b 289 180 357 182 330 180 b 157 190 251 180 208 184 b 35 211 107 196 66 203 b 79 17 43 140 58 76 b 182 -3 90 11 124 4 b 325 -14 240 -10 287 -14 z "},"Ţ":{"ha":861,"x_min":0,"x_max":0,"o":"m 570 0 l 570 694 l 791 694 b 812 814 801 723 808 763 b 819 945 817 866 819 909 l 41 945 l 41 694 l 278 694 l 278 0 l 382 0 l 368 -125 b 431 -180 410 -137 431 -155 b 416 -205 431 -191 426 -199 b 375 -215 406 -212 392 -215 b 318 -210 361 -215 342 -213 l 306 -302 b 431 -319 339 -314 380 -319 b 509 -308 460 -319 487 -316 b 561 -277 531 -300 549 -290 b 589 -235 574 -264 583 -250 b 597 -187 595 -220 597 -204 b 585 -130 597 -166 593 -147 b 552 -90 577 -113 565 -100 b 510 -67 538 -80 524 -72 b 465 -56 495 -61 481 -57 l 472 0 z "},"ţ":{"ha":652,"x_min":0,"x_max":0,"o":"m 396 302 l 396 494 b 585 486 447 489 510 486 b 594 517 586 490 589 501 b 603 549 599 534 602 545 b 610 574 604 553 607 561 b 617 604 614 588 616 597 b 621 630 618 610 619 619 b 625 662 623 641 624 651 b 625 694 625 672 625 683 b 396 675 547 694 470 688 l 396 917 b 246 861 349 907 299 888 b 118 771 194 834 151 804 l 118 694 l 28 694 b 14 486 18 629 14 560 l 118 486 l 118 260 b 176 73 118 179 137 117 b 346 -8 214 30 271 3 l 334 -125 b 396 -180 375 -137 396 -155 b 381 -205 396 -191 391 -199 b 340 -215 371 -212 358 -215 b 283 -210 327 -215 308 -213 l 271 -302 b 396 -319 304 -314 345 -319 b 474 -308 426 -319 452 -316 b 526 -277 497 -300 514 -290 b 553 -235 538 -264 548 -250 b 562 -187 559 -220 562 -204 b 550 -130 562 -166 558 -147 b 517 -90 541 -113 530 -100 b 475 -67 503 -80 489 -72 b 431 -56 461 -61 446 -57 l 436 -14 b 593 12 506 -12 558 -3 b 615 110 600 38 608 71 b 625 205 622 149 625 181 b 514 195 587 198 550 195 b 396 302 435 195 396 231 z "},"Ť":{"ha":861,"x_min":0,"x_max":0,"o":"m 347 1014 l 514 1014 l 667 1264 l 500 1264 l 431 1150 l 361 1264 l 195 1264 z m 278 0 l 570 0 l 570 694 l 791 694 b 812 814 801 723 808 763 b 819 945 817 866 819 909 l 41 945 l 41 694 l 278 694 z "},"ť":{"ha":652,"x_min":0,"x_max":0,"o":"m 673 1111 l 479 1111 b 468 934 479 1061 476 1002 b 437 785 460 866 450 816 l 576 778 b 645 927 604 812 627 861 b 673 1111 664 993 673 1054 z m 585 486 b 594 517 586 490 589 501 b 603 549 599 534 602 545 b 610 574 604 553 607 561 b 617 604 614 588 616 597 b 621 630 618 610 619 619 b 625 662 623 641 624 651 b 625 694 625 672 625 683 b 396 675 547 694 470 688 l 396 917 b 246 861 349 907 299 888 b 118 771 194 834 151 804 l 118 694 l 28 694 b 14 486 18 629 14 560 l 118 486 l 118 260 b 196 52 118 165 144 96 b 428 -14 249 8 326 -14 b 520 -7 458 -14 488 -11 b 593 12 551 -2 576 4 b 615 110 600 38 608 71 b 625 205 622 149 625 181 b 514 195 587 198 550 195 b 396 302 435 195 396 231 l 396 494 b 585 486 447 489 510 486 z "},"Ŧ":{"ha":861,"x_min":0,"x_max":0,"o":"m 791 694 b 812 814 801 723 808 763 b 819 945 817 866 819 909 l 41 945 l 41 694 l 278 694 l 278 472 l 139 472 l 139 264 l 278 264 l 278 0 l 570 0 l 570 264 l 708 264 l 708 472 l 570 472 l 570 694 z "},"ŧ":{"ha":652,"x_min":0,"x_max":0,"o":"m 406 250 l 583 250 l 583 431 l 396 431 l 396 486 l 583 486 b 612 587 594 510 603 543 b 625 694 621 631 625 666 l 396 694 l 396 917 b 246 861 349 907 299 888 b 118 771 194 834 151 804 l 118 694 l 28 694 b 14 486 18 629 14 560 l 118 486 l 118 431 l 14 431 l 14 250 l 118 250 b 199 50 120 159 147 93 b 428 -14 251 8 328 -14 b 520 -7 458 -14 488 -11 b 593 12 551 -2 576 4 b 615 110 600 38 608 71 b 625 205 622 149 625 181 b 514 195 587 198 550 195 b 406 250 458 195 422 213 z "},"Ū":{"ha":1027,"x_min":0,"x_max":0,"o":"m 271 1063 l 743 1063 l 743 1215 l 271 1215 z m 653 945 l 653 378 b 621 267 653 325 642 288 b 514 236 599 246 563 236 b 408 267 465 236 429 246 b 375 378 386 288 375 325 l 375 945 l 83 945 l 83 378 b 106 222 83 319 91 268 b 166 110 121 177 141 139 b 260 38 192 81 223 57 b 378 -2 297 19 337 6 b 514 -14 419 -10 465 -14 b 650 -2 563 -14 609 -10 b 768 38 691 6 731 19 b 862 110 805 57 836 81 b 922 222 887 139 907 177 b 945 378 937 268 945 319 l 945 945 z "},"ū":{"ha":847,"x_min":0,"x_max":0,"o":"m 660 965 l 187 965 l 187 812 l 660 812 z m 778 694 l 500 694 b 498 558 500 643 499 598 b 493 439 497 518 495 478 b 482 337 490 399 487 366 b 464 261 477 309 471 284 b 438 211 457 239 449 222 b 403 195 428 200 416 195 b 358 223 380 195 365 204 b 347 319 351 242 347 274 l 347 694 l 69 694 l 69 250 b 82 144 69 210 73 175 b 116 68 91 113 102 87 b 166 20 130 48 147 32 b 224 -6 185 8 204 -1 b 285 -14 243 -11 264 -14 b 409 24 333 -14 374 -1 b 500 153 444 50 474 92 l 500 0 l 778 0 z "},"Ů":{"ha":1027,"x_min":0,"x_max":0,"o":"m 507 986 b 627 1030 556 986 595 1001 b 673 1139 658 1060 673 1096 b 627 1247 673 1182 658 1218 b 507 1292 595 1277 556 1292 b 388 1247 459 1292 419 1277 b 340 1139 356 1218 340 1182 b 388 1030 340 1096 356 1060 b 507 986 419 1001 459 986 z m 507 1097 b 476 1109 494 1097 484 1101 b 465 1139 469 1118 465 1127 b 476 1168 465 1150 469 1160 b 507 1181 484 1177 494 1181 b 538 1168 520 1181 531 1177 b 549 1139 545 1160 549 1150 b 538 1109 549 1127 545 1118 b 507 1097 531 1101 520 1097 z m 653 945 l 653 378 b 621 267 653 325 642 288 b 514 236 599 246 563 236 b 408 267 465 236 429 246 b 375 378 386 288 375 325 l 375 945 l 83 945 l 83 378 b 106 222 83 319 91 268 b 166 110 121 177 141 139 b 260 38 192 81 223 57 b 378 -2 297 19 337 6 b 514 -14 419 -10 465 -14 b 650 -2 563 -14 609 -10 b 768 38 691 6 731 19 b 862 110 805 57 836 81 b 922 222 887 139 907 177 b 945 378 937 268 945 319 l 945 945 z "},"ů":{"ha":847,"x_min":0,"x_max":0,"o":"m 424 736 b 543 780 472 736 512 751 b 590 889 574 810 590 846 b 543 998 590 932 574 968 b 424 1042 512 1027 472 1042 b 304 998 375 1042 336 1027 b 257 889 273 968 257 932 b 304 780 257 846 273 810 b 424 736 336 751 375 736 z m 424 930 b 454 918 437 930 447 926 b 465 889 462 910 465 900 b 454 860 465 878 462 868 b 424 847 447 851 437 847 b 393 860 411 847 400 851 b 382 889 386 868 382 878 b 393 918 382 900 386 910 b 424 930 400 926 411 930 z m 778 694 l 500 694 b 498 558 500 643 499 598 b 493 439 497 518 495 478 b 482 337 490 399 487 366 b 464 261 477 309 471 284 b 438 211 457 239 449 222 b 403 195 428 200 416 195 b 358 223 380 195 365 204 b 347 319 351 242 347 274 l 347 694 l 69 694 l 69 250 b 82 144 69 210 73 175 b 116 68 91 113 102 87 b 166 20 130 48 147 32 b 224 -6 185 8 204 -1 b 285 -14 243 -11 264 -14 b 409 24 333 -14 374 -1 b 500 153 444 50 474 92 l 500 0 l 778 0 z "},"Ű":{"ha":1027,"x_min":0,"x_max":0,"o":"m 437 1014 l 555 1250 l 403 1292 l 326 1048 z m 660 1014 l 778 1250 l 625 1292 l 549 1048 z m 653 945 l 653 378 b 621 267 653 325 642 288 b 514 236 599 246 563 236 b 408 267 465 236 429 246 b 375 378 386 288 375 325 l 375 945 l 83 945 l 83 378 b 106 222 83 319 91 268 b 166 110 121 177 141 139 b 260 38 192 81 223 57 b 378 -2 297 19 337 6 b 514 -14 419 -10 465 -14 b 650 -2 563 -14 609 -10 b 768 38 691 6 731 19 b 862 110 805 57 836 81 b 922 222 887 139 907 177 b 945 378 937 268 945 319 l 945 945 z "},"ű":{"ha":847,"x_min":0,"x_max":0,"o":"m 472 1000 l 319 1042 l 243 799 l 354 764 z m 576 764 l 694 1000 l 542 1042 l 465 799 z m 778 694 l 500 694 b 498 558 500 643 499 598 b 493 439 497 518 495 478 b 482 337 490 399 487 366 b 464 261 477 309 471 284 b 438 211 457 239 449 222 b 403 195 428 200 416 195 b 358 223 380 195 365 204 b 347 319 351 242 347 274 l 347 694 l 69 694 l 69 250 b 82 144 69 210 73 175 b 116 68 91 113 102 87 b 166 20 130 48 147 32 b 224 -6 185 8 204 -1 b 285 -14 243 -11 264 -14 b 409 24 333 -14 374 -1 b 500 153 444 50 474 92 l 500 0 l 778 0 z "},"Ų":{"ha":1027,"x_min":0,"x_max":0,"o":"m 653 945 l 653 378 b 621 267 653 325 642 288 b 514 236 599 246 563 236 b 408 267 465 236 429 246 b 375 378 386 288 375 325 l 375 945 l 83 945 l 83 378 b 112 202 83 310 93 252 b 194 82 131 152 159 112 b 314 15 230 53 270 30 b 464 -12 358 0 408 -9 b 366 -86 420 -32 388 -57 b 334 -180 345 -116 334 -147 b 379 -280 334 -220 349 -253 b 500 -319 409 -306 449 -319 b 632 -292 551 -319 595 -310 l 625 -195 b 562 -208 604 -204 583 -208 b 517 -192 544 -208 529 -203 b 500 -146 506 -181 500 -166 b 528 -77 500 -124 509 -101 b 618 -7 547 -52 577 -29 b 945 378 836 23 945 151 l 945 945 z "},"ų":{"ha":847,"x_min":0,"x_max":0,"o":"m 778 0 l 778 694 l 500 694 b 498 558 500 643 499 598 b 493 439 497 518 495 478 b 482 337 490 399 487 366 b 464 261 477 309 471 284 b 438 211 457 239 449 222 b 403 195 428 200 416 195 b 358 223 380 195 365 204 b 347 319 351 242 347 274 l 347 694 l 69 694 l 69 250 b 82 144 69 210 73 175 b 116 68 91 113 102 87 b 166 20 130 48 147 32 b 224 -6 185 8 204 -1 b 285 -14 243 -11 264 -14 b 409 24 333 -14 374 -1 b 500 153 444 50 474 92 l 500 0 l 639 0 b 519 -78 585 -20 546 -46 b 479 -180 493 -110 479 -144 b 525 -280 479 -220 494 -253 b 646 -319 555 -306 595 -319 b 778 -292 697 -319 741 -310 l 771 -195 b 708 -208 750 -204 729 -208 b 663 -192 690 -208 675 -203 b 646 -146 651 -181 646 -166 b 678 -73 646 -123 656 -98 b 778 0 699 -47 733 -23 z "},"Ŵ":{"ha":1472,"x_min":0,"x_max":0,"o":"m 736 1128 l 806 1014 l 972 1014 l 819 1264 l 653 1264 l 500 1014 l 667 1014 z m 1160 945 l 1053 278 l 1046 278 l 896 945 l 618 945 l 469 278 l 463 278 l 326 945 l 28 945 l 249 -7 l 422 -7 b 537 3 469 -7 507 -4 b 618 40 567 10 594 22 b 677 115 642 59 662 84 b 718 240 693 147 706 189 l 753 392 l 846 -7 l 1026 -7 b 1141 3 1073 -7 1111 -4 b 1222 39 1171 9 1198 21 b 1279 115 1246 57 1265 83 b 1315 240 1294 147 1305 189 l 1444 945 z "},"ŵ":{"ha":1305,"x_min":0,"x_max":0,"o":"m 653 878 l 722 764 l 889 764 l 736 1014 l 570 1014 l 416 764 l 583 764 z m 1014 694 l 921 257 l 914 257 l 806 694 l 486 694 l 393 257 l 386 257 l 306 694 l 14 694 l 178 -7 l 355 -7 b 450 6 391 -7 422 -3 b 517 36 478 14 500 24 b 562 83 534 48 549 64 b 591 135 575 102 584 119 b 608 191 597 151 603 169 l 646 339 l 733 -7 l 911 -7 b 1005 5 946 -7 978 -3 b 1073 36 1033 14 1056 24 b 1117 82 1089 48 1104 63 b 1146 134 1130 101 1140 118 b 1164 191 1152 150 1158 169 l 1292 694 z "},"Ŷ":{"ha":1000,"x_min":0,"x_max":0,"o":"m 500 1128 l 570 1014 l 736 1014 l 583 1264 l 416 1264 l 264 1014 l 431 1014 z m 972 945 l 673 945 l 510 643 l 503 643 l 340 945 l 28 945 l 354 349 l 354 0 l 646 0 l 646 349 z "},"ŷ":{"ha":847,"x_min":0,"x_max":0,"o":"m 424 878 l 493 764 l 660 764 l 507 1014 l 340 1014 l 187 764 l 354 764 z m 778 694 l 500 694 b 498 558 500 643 499 598 b 493 439 497 518 495 478 b 482 337 490 399 487 366 b 464 261 477 309 471 284 b 438 211 457 239 449 222 b 403 195 428 200 416 195 b 358 223 380 195 365 204 b 347 319 351 242 347 274 l 347 694 l 69 694 l 69 250 b 82 144 69 210 73 175 b 116 68 91 113 102 87 b 166 20 130 48 147 32 b 224 -6 185 8 204 -1 b 285 -14 243 -11 264 -14 b 409 24 333 -14 374 -1 b 500 153 444 50 474 92 l 500 56 b 499 28 500 45 500 36 b 494 -1 499 21 497 11 b 482 -34 491 -14 487 -24 b 459 -63 477 -43 469 -53 b 423 -88 449 -73 437 -81 b 370 -105 409 -95 391 -100 b 297 -111 348 -109 324 -111 b 118 -98 235 -111 175 -107 b 139 -293 118 -179 125 -244 b 214 -312 152 -301 177 -307 b 334 -319 251 -317 291 -319 b 670 -225 486 -319 599 -288 b 778 56 742 -163 778 -69 z "},"Ÿ":{"ha":1000,"x_min":0,"x_max":0,"o":"m 361 986 b 500 1116 411 1025 457 1069 b 639 986 534 1076 580 1033 b 722 1058 665 1005 692 1029 b 799 1139 752 1086 778 1113 b 722 1220 778 1164 752 1192 b 639 1292 692 1249 665 1272 b 500 1162 580 1245 534 1202 b 361 1292 457 1209 411 1253 b 275 1218 333 1271 304 1246 b 201 1139 245 1189 220 1163 b 361 986 240 1089 293 1039 z m 972 945 l 673 945 l 510 643 l 503 643 l 340 945 l 28 945 l 354 349 l 354 0 l 646 0 l 646 349 z "},"Ź":{"ha":847,"x_min":0,"x_max":0,"o":"m 354 1000 l 639 1125 l 562 1264 l 292 1111 z m 41 0 l 770 0 b 795 124 780 30 789 71 b 806 250 802 177 806 219 l 416 250 l 781 715 b 786 945 784 772 786 849 l 102 945 b 77 828 92 918 83 879 b 66 694 70 776 66 732 l 410 694 l 49 229 b 41 0 44 189 41 112 z "},"ź":{"ha":736,"x_min":0,"x_max":0,"o":"m 298 750 l 583 875 l 507 1014 l 236 861 z m 41 0 l 660 0 b 685 105 670 30 678 65 b 694 208 691 145 694 180 l 401 208 l 669 507 b 676 694 674 562 676 624 l 87 694 b 53 486 64 633 53 564 l 315 486 l 47 187 b 41 0 43 146 41 83 z "},"Ż":{"ha":847,"x_min":0,"x_max":0,"o":"m 424 986 b 583 1139 482 1029 535 1080 b 506 1221 562 1165 536 1192 b 424 1292 477 1249 449 1273 b 337 1217 396 1271 367 1246 b 264 1139 307 1189 282 1163 b 424 986 301 1090 355 1039 z m 41 0 l 770 0 b 795 124 780 30 789 71 b 806 250 802 177 806 219 l 416 250 l 781 715 b 786 945 784 772 786 849 l 102 945 b 77 828 92 918 83 879 b 66 694 70 776 66 732 l 410 694 l 49 229 b 41 0 44 189 41 112 z "},"ż":{"ha":736,"x_min":0,"x_max":0,"o":"m 368 736 b 451 807 394 755 421 779 b 528 889 480 836 506 863 b 368 1042 479 947 426 998 b 208 889 299 988 246 937 b 281 810 227 865 251 839 b 368 736 312 782 341 757 z m 41 0 l 660 0 b 685 105 670 30 678 65 b 694 208 691 145 694 180 l 401 208 l 669 507 b 676 694 674 562 676 624 l 87 694 b 53 486 64 633 53 564 l 315 486 l 47 187 b 41 0 43 146 41 83 z "},"Ž":{"ha":847,"x_min":0,"x_max":0,"o":"m 340 1014 l 507 1014 l 660 1264 l 493 1264 l 424 1150 l 354 1264 l 187 1264 z m 41 0 l 770 0 b 795 124 780 30 789 71 b 806 250 802 177 806 219 l 416 250 l 781 715 b 786 945 784 772 786 849 l 102 945 b 77 828 92 918 83 879 b 66 694 70 776 66 732 l 410 694 l 49 229 b 41 0 44 189 41 112 z "},"ž":{"ha":736,"x_min":0,"x_max":0,"o":"m 285 764 l 452 764 l 604 1014 l 437 1014 l 368 900 l 298 1014 l 132 1014 z m 41 0 l 660 0 b 685 105 670 30 678 65 b 694 208 691 145 694 180 l 401 208 l 669 507 b 676 694 674 562 676 624 l 87 694 b 53 486 64 633 53 564 l 315 486 l 47 187 b 41 0 43 146 41 83 z "},"ƒ":{"ha":903,"x_min":0,"x_max":0,"o":"m 693 806 b 836 779 739 806 786 797 b 876 881 849 805 863 838 b 903 987 890 923 899 958 b 708 1014 843 1005 778 1014 b 570 999 657 1014 611 1009 b 457 951 528 988 490 972 b 374 864 423 929 395 900 b 332 736 353 828 338 785 l 298 500 l 100 500 l 100 319 l 273 319 l 224 -41 b 140 -111 217 -88 189 -111 b -3 -85 95 -111 47 -102 b -43 -186 -16 -110 -29 -144 b -69 -293 -56 -228 -65 -264 b 125 -319 -9 -311 55 -319 b 263 -304 175 -319 222 -314 b 376 -256 305 -294 342 -278 b 459 -170 410 -235 437 -206 b 501 -41 480 -133 494 -91 l 551 319 l 787 319 l 787 500 l 576 500 l 610 736 b 693 806 616 782 644 806 z "},"Ș":{"ha":847,"x_min":0,"x_max":0,"o":"m 371 -14 b 547 6 436 -14 495 -7 b 684 64 599 19 645 38 b 774 166 723 90 753 124 b 806 313 795 208 806 257 b 786 428 806 356 799 395 b 734 509 773 462 756 489 b 661 561 713 529 688 546 b 576 593 633 575 605 586 b 492 613 548 600 520 607 b 419 628 465 619 440 624 b 367 647 397 633 380 639 b 347 676 354 655 347 664 b 475 722 347 707 390 722 b 703 690 543 722 619 712 b 733 794 716 715 726 749 b 745 926 741 839 745 883 b 490 958 674 948 589 958 b 310 941 422 958 362 952 b 174 886 257 929 212 911 b 86 786 135 861 106 828 b 56 639 66 745 56 696 b 71 533 56 600 61 564 b 113 457 82 502 96 477 b 174 407 131 438 151 421 b 247 374 197 392 222 381 b 323 354 272 366 297 359 b 395 340 348 349 372 344 b 456 328 418 336 439 332 b 498 310 474 324 488 318 b 514 281 509 302 514 293 b 509 260 514 273 512 266 b 488 242 505 254 498 248 b 440 228 478 236 462 231 b 358 222 418 224 391 222 b 188 234 306 222 249 226 b 41 260 126 242 78 250 b 81 18 49 155 62 75 b 195 -4 94 9 132 2 b 371 -14 258 -11 317 -14 z m 410 -347 b 480 -220 439 -311 463 -268 b 507 -69 498 -172 507 -122 l 340 -69 b 329 -214 340 -114 337 -163 b 298 -340 322 -266 312 -308 z "},"ș":{"ha":708,"x_min":0,"x_max":0,"o":"m 325 -14 b 673 239 557 -14 673 71 b 659 321 673 270 669 297 b 620 378 649 345 636 364 b 566 414 604 392 586 404 b 504 435 545 424 525 431 b 441 447 483 439 462 443 b 387 456 421 451 403 453 b 348 466 371 458 358 461 b 334 485 339 471 334 477 b 418 514 334 504 362 514 b 603 488 465 514 526 505 b 637 677 620 536 631 600 b 418 708 560 698 487 708 b 144 645 299 708 208 687 b 49 458 81 602 49 540 b 67 364 49 422 55 391 b 116 302 80 337 96 316 b 182 266 136 287 158 275 b 255 246 206 257 230 250 b 321 235 279 242 301 238 b 370 223 341 232 358 228 b 389 203 382 218 389 211 b 370 185 389 194 382 188 b 289 180 357 182 330 180 b 157 190 251 180 208 184 b 35 211 107 196 66 203 b 79 17 43 140 58 76 b 182 -3 90 11 124 4 b 325 -14 240 -10 287 -14 z m 340 -347 b 411 -221 370 -311 393 -268 b 437 -69 429 -173 437 -123 l 271 -69 b 260 -215 271 -115 267 -163 b 229 -340 253 -266 242 -308 z "},"Ț":{"ha":861,"x_min":0,"x_max":0,"o":"m 278 0 l 570 0 l 570 694 l 791 694 b 812 814 801 723 808 763 b 819 945 817 866 819 909 l 41 945 l 41 694 l 278 694 z m 416 -347 b 487 -220 446 -311 469 -268 b 514 -69 505 -172 514 -122 l 347 -69 b 336 -215 347 -115 344 -163 b 306 -340 329 -266 319 -308 z "},"ț":{"ha":652,"x_min":0,"x_max":0,"o":"m 396 302 l 396 494 b 585 486 447 489 510 486 b 594 517 586 490 589 501 b 603 549 599 534 602 545 b 610 574 604 553 607 561 b 617 604 614 588 616 597 b 621 630 618 610 619 619 b 625 662 623 641 624 651 b 625 694 625 672 625 683 b 396 675 547 694 470 688 l 396 917 b 246 861 349 907 299 888 b 118 771 194 834 151 804 l 118 694 l 28 694 b 14 486 18 629 14 560 l 118 486 l 118 260 b 196 52 118 165 144 96 b 428 -14 249 8 326 -14 b 520 -7 458 -14 488 -11 b 593 12 551 -2 576 4 b 615 110 600 38 608 71 b 625 205 622 149 625 181 b 514 195 587 198 550 195 b 396 302 435 195 396 231 z m 271 -340 l 382 -347 b 453 -220 411 -311 435 -268 b 479 -69 471 -172 479 -122 l 313 -69 b 301 -214 313 -114 309 -163 b 271 -340 294 -266 284 -308 z "},"ȷ":{"ha":416,"x_min":0,"x_max":0,"o":"m 69 694 l 69 28 b 44 -150 69 -43 61 -102 b -41 -306 28 -198 -1 -250 l 182 -306 b 259 -238 212 -285 237 -262 b 308 -170 280 -214 297 -191 b 334 -99 319 -148 328 -125 b 345 -34 340 -73 344 -51 b 347 28 347 -16 347 4 l 347 694 z "},"ˆ":{"ha":611,"x_min":0,"x_max":0,"o":"m 69 764 l 236 764 l 306 878 l 375 764 l 542 764 l 389 1014 l 222 1014 z "},"ˇ":{"ha":611,"x_min":0,"x_max":0,"o":"m 222 764 l 389 764 l 542 1014 l 375 1014 l 306 900 l 236 1014 l 69 1014 z "},"˘":{"ha":625,"x_min":0,"x_max":0,"o":"m 313 764 b 492 832 390 764 450 786 b 555 1014 534 878 555 938 l 389 1014 b 313 917 389 949 363 917 b 236 1014 262 917 236 949 l 69 1014 b 133 832 69 939 90 878 b 313 764 175 787 235 764 z "},"˙":{"ha":458,"x_min":0,"x_max":0,"o":"m 229 736 b 312 807 255 755 282 779 b 389 889 341 836 367 863 b 229 1042 340 947 287 998 b 69 889 160 988 107 937 b 142 810 88 865 112 839 b 229 736 173 782 202 757 z "},"˚":{"ha":472,"x_min":0,"x_max":0,"o":"m 236 736 b 356 780 284 736 324 751 b 403 889 387 810 403 846 b 356 998 403 932 387 968 b 236 1042 324 1027 284 1042 b 116 998 188 1042 148 1027 b 69 889 85 968 69 932 b 116 780 69 846 85 810 b 236 736 148 751 188 736 z m 236 847 b 205 860 223 847 213 851 b 195 889 198 868 195 878 b 205 918 195 900 198 910 b 236 930 213 926 223 930 b 267 918 249 930 259 926 b 278 889 274 910 278 900 b 267 860 278 878 274 868 b 236 847 259 851 249 847 z "},"˛":{"ha":437,"x_min":0,"x_max":0,"o":"m 236 -319 b 368 -292 288 -319 332 -310 l 361 -195 b 298 -208 340 -204 319 -208 b 254 -192 280 -208 265 -203 b 236 -146 242 -181 236 -166 b 268 -73 236 -123 247 -98 b 368 0 290 -47 323 -23 l 229 0 b 109 -78 176 -20 136 -46 b 69 -180 83 -110 69 -144 b 115 -280 69 -220 84 -253 b 236 -319 145 -306 185 -319 z "},"˜":{"ha":652,"x_min":0,"x_max":0,"o":"m 437 771 b 543 820 480 771 515 787 b 583 979 570 852 583 905 l 431 979 b 419 938 431 961 427 947 b 389 924 411 928 401 924 b 348 939 380 924 366 929 b 284 970 329 950 308 960 b 215 986 260 981 237 986 b 110 938 172 986 137 970 b 69 778 83 905 69 852 l 222 778 b 234 819 222 796 226 810 b 264 833 242 829 252 833 b 305 818 273 833 287 828 b 368 787 323 807 344 797 b 437 771 392 776 415 771 z "},"˝":{"ha":590,"x_min":0,"x_max":0,"o":"m 180 764 l 298 1000 l 146 1042 l 69 799 z m 403 764 l 521 1000 l 368 1042 l 292 799 z "},"̀":{"ha":0,"x_min":0,"x_max":0,"o":"m -132 750 l -69 861 l -340 1014 l -416 875 z "},"́":{"ha":0,"x_min":0,"x_max":0,"o":"m -354 750 l -69 875 l -146 1014 l -416 861 z "},"̂":{"ha":0,"x_min":0,"x_max":0,"o":"m -542 764 l -375 764 l -306 878 l -236 764 l -69 764 l -222 1014 l -389 1014 z "},"̃":{"ha":0,"x_min":0,"x_max":0,"o":"m -215 771 b -110 820 -172 771 -137 787 b -69 979 -83 852 -69 905 l -222 979 b -234 938 -222 961 -226 947 b -264 924 -242 928 -252 924 b -305 939 -273 924 -287 929 b -368 970 -323 950 -344 960 b -437 986 -392 981 -415 986 b -543 938 -480 986 -515 970 b -583 778 -570 905 -583 852 l -431 778 b -419 819 -431 796 -427 810 b -389 833 -411 829 -401 833 b -348 818 -380 833 -366 828 b -284 787 -329 807 -308 797 b -215 771 -260 776 -237 771 z "},"̄":{"ha":0,"x_min":0,"x_max":0,"o":"m -542 812 l -69 812 l -69 965 l -542 965 z "},"̆":{"ha":0,"x_min":0,"x_max":0,"o":"m -313 764 b -133 832 -235 764 -175 787 b -69 1014 -90 878 -69 939 l -236 1014 b -313 917 -236 949 -262 917 b -389 1014 -363 917 -389 949 l -555 1014 b -492 832 -555 938 -534 878 b -313 764 -450 786 -390 764 z "},"̇":{"ha":0,"x_min":0,"x_max":0,"o":"m -229 736 b -146 808 -203 755 -176 779 b -69 889 -116 836 -90 863 b -146 970 -90 915 -116 942 b -229 1042 -176 998 -203 1022 b -389 889 -297 989 -350 938 b -315 810 -370 865 -345 838 b -229 736 -286 782 -257 757 z "},"̈":{"ha":0,"x_min":0,"x_max":0,"o":"m -229 1042 b -368 913 -289 994 -335 951 b -507 1042 -409 958 -456 1001 b -667 889 -575 989 -628 938 b -593 810 -648 865 -623 838 b -507 736 -564 782 -535 757 b -368 865 -457 775 -411 818 b -229 736 -334 826 -288 783 b -146 808 -203 755 -176 779 b -69 889 -116 836 -90 863 b -146 970 -90 915 -116 942 b -229 1042 -176 998 -203 1022 z "},"̊":{"ha":0,"x_min":0,"x_max":0,"o":"m -236 736 b -116 780 -188 736 -148 751 b -69 889 -85 810 -69 846 b -116 998 -69 932 -85 968 b -236 1042 -148 1027 -188 1042 b -356 998 -284 1042 -324 1027 b -403 889 -387 968 -403 932 b -356 780 -403 846 -387 810 b -236 736 -324 751 -284 736 z m -236 847 b -267 860 -249 847 -259 851 b -278 889 -274 868 -278 878 b -267 918 -278 900 -274 910 b -236 930 -259 926 -249 930 b -205 918 -223 930 -213 926 b -195 889 -198 910 -195 900 b -205 860 -195 878 -198 868 b -236 847 -213 851 -223 847 z "},"̋":{"ha":0,"x_min":0,"x_max":0,"o":"m -410 764 l -292 1000 l -444 1042 l -521 799 z m -187 764 l -69 1000 l -222 1042 l -298 799 z "},"̌":{"ha":0,"x_min":0,"x_max":0,"o":"m -389 764 l -222 764 l -69 1014 l -236 1014 l -306 900 l -375 1014 l -542 1014 z "},"̒":{"ha":0,"x_min":0,"x_max":0,"o":"m -278 764 l -111 764 b -100 909 -111 809 -107 857 b -69 1035 -93 960 -82 1002 l -180 1042 b -251 915 -210 1005 -233 963 b -278 764 -269 867 -278 817 z "},"̦":{"ha":0,"x_min":0,"x_max":0,"o":"m -167 -347 b -96 -220 -137 -311 -114 -268 b -69 -69 -78 -172 -69 -122 l -236 -69 b -247 -214 -236 -114 -240 -163 b -278 -340 -255 -266 -265 -308 z "},"̧":{"ha":0,"x_min":0,"x_max":0,"o":"m -236 -319 b -158 -308 -206 -319 -180 -316 b -105 -277 -135 -300 -118 -290 b -78 -235 -93 -264 -84 -250 b -69 -187 -72 -220 -69 -204 b -82 -130 -69 -166 -73 -147 b -115 -90 -90 -113 -101 -100 b -157 -67 -129 -80 -143 -72 b -201 -56 -171 -61 -186 -57 l -195 0 l -285 0 l -298 -125 b -236 -180 -257 -137 -236 -155 b -251 -205 -236 -191 -241 -199 b -292 -215 -261 -212 -274 -215 b -349 -210 -305 -215 -324 -213 l -361 -302 b -236 -319 -328 -314 -286 -319 z "},"̨":{"ha":0,"x_min":0,"x_max":0,"o":"m -201 -319 b -69 -292 -150 -319 -106 -310 l -77 -195 b -139 -208 -98 -204 -119 -208 b -184 -192 -157 -208 -172 -203 b -201 -146 -196 -181 -201 -166 b -169 -73 -201 -123 -191 -98 b -69 0 -148 -47 -114 -23 l -208 0 b -328 -78 -262 -20 -302 -46 b -368 -180 -355 -110 -368 -144 b -323 -280 -368 -220 -353 -253 b -201 -319 -293 -306 -252 -319 z "},"Δ":{"ha":1000,"x_min":0,"x_max":0,"o":"m 766 704 b 730 807 754 746 742 780 b 691 877 719 834 705 857 b 638 922 676 897 659 912 b 571 945 618 933 596 940 b 478 951 546 949 515 951 l 283 951 l 28 0 l 972 0 z m 380 278 l 479 673 l 486 673 l 600 278 z "},"Ω":{"ha":1042,"x_min":0,"x_max":0,"o":"m 986 604 b 864 868 986 720 945 807 b 521 958 782 928 668 958 b 178 868 374 958 260 928 b 56 604 96 807 56 720 b 73 483 56 561 61 521 b 122 383 85 445 101 412 b 192 307 143 354 167 329 b 275 250 217 286 245 267 l 69 250 b 76 116 69 211 71 167 b 97 0 80 66 87 27 l 252 0 b 426 63 328 0 386 21 b 486 250 466 105 486 168 l 486 403 b 391 476 448 422 416 446 b 354 576 366 506 354 539 b 521 722 354 674 410 722 b 688 576 632 722 688 674 b 650 476 688 539 675 506 b 555 403 625 446 594 422 l 555 250 b 615 63 555 168 575 105 b 790 0 655 21 714 0 l 945 0 b 966 116 954 27 961 66 b 972 250 970 167 972 211 l 766 250 b 850 307 797 267 824 286 b 919 383 875 329 898 354 b 968 483 940 412 957 445 b 986 604 980 521 986 561 z "},"μ":{"ha":847,"x_min":0,"x_max":0,"o":"m 778 694 l 500 694 b 498 558 500 643 499 598 b 493 439 497 518 495 478 b 482 337 490 399 487 366 b 464 261 477 309 471 284 b 438 211 457 239 449 222 b 403 195 428 200 416 195 b 358 223 380 195 365 204 b 347 319 351 242 347 274 l 347 694 l 69 694 l 69 -306 l 347 -306 l 347 -5 b 500 153 412 13 463 65 l 500 0 l 778 0 z "},"π":{"ha":944,"x_min":0,"x_max":0,"o":"m 118 0 l 396 0 l 396 486 l 549 486 l 549 0 l 827 0 l 827 486 l 889 486 b 918 587 899 510 909 543 b 930 694 926 631 930 666 l 28 694 b 14 486 18 629 14 560 l 118 486 z "},"Ẁ":{"ha":1472,"x_min":0,"x_max":0,"o":"m 868 1111 l 597 1264 l 521 1125 l 806 1000 z m 1160 945 l 1053 278 l 1046 278 l 896 945 l 618 945 l 469 278 l 463 278 l 326 945 l 28 945 l 249 -7 l 422 -7 b 537 3 469 -7 507 -4 b 618 40 567 10 594 22 b 677 115 642 59 662 84 b 718 240 693 147 706 189 l 753 392 l 846 -7 l 1026 -7 b 1141 3 1073 -7 1111 -4 b 1222 39 1171 9 1198 21 b 1279 115 1246 57 1265 83 b 1315 240 1294 147 1305 189 l 1444 945 z "},"ẁ":{"ha":1305,"x_min":0,"x_max":0,"o":"m 785 861 l 514 1014 l 437 875 l 722 750 z m 1014 694 l 921 257 l 914 257 l 806 694 l 486 694 l 393 257 l 386 257 l 306 694 l 14 694 l 178 -7 l 355 -7 b 450 6 391 -7 422 -3 b 517 36 478 14 500 24 b 562 83 534 48 549 64 b 591 135 575 102 584 119 b 608 191 597 151 603 169 l 646 339 l 733 -7 l 911 -7 b 1005 5 946 -7 978 -3 b 1073 36 1033 14 1056 24 b 1117 82 1089 48 1104 63 b 1146 134 1130 101 1140 118 b 1164 191 1152 150 1158 169 l 1292 694 z "},"Ẃ":{"ha":1472,"x_min":0,"x_max":0,"o":"m 951 1125 l 875 1264 l 604 1111 l 667 1000 z m 1160 945 l 1053 278 l 1046 278 l 896 945 l 618 945 l 469 278 l 463 278 l 326 945 l 28 945 l 249 -7 l 422 -7 b 537 3 469 -7 507 -4 b 618 40 567 10 594 22 b 677 115 642 59 662 84 b 718 240 693 147 706 189 l 753 392 l 846 -7 l 1026 -7 b 1141 3 1073 -7 1111 -4 b 1222 39 1171 9 1198 21 b 1279 115 1246 57 1265 83 b 1315 240 1294 147 1305 189 l 1444 945 z "},"ẃ":{"ha":1305,"x_min":0,"x_max":0,"o":"m 868 875 l 791 1014 l 521 861 l 583 750 z m 1014 694 l 921 257 l 914 257 l 806 694 l 486 694 l 393 257 l 386 257 l 306 694 l 14 694 l 178 -7 l 355 -7 b 450 6 391 -7 422 -3 b 517 36 478 14 500 24 b 562 83 534 48 549 64 b 591 135 575 102 584 119 b 608 191 597 151 603 169 l 646 339 l 733 -7 l 911 -7 b 1005 5 946 -7 978 -3 b 1073 36 1033 14 1056 24 b 1117 82 1089 48 1104 63 b 1146 134 1130 101 1140 118 b 1164 191 1152 150 1158 169 l 1292 694 z "},"Ẅ":{"ha":1472,"x_min":0,"x_max":0,"o":"m 597 986 b 736 1116 646 1024 692 1067 b 875 986 770 1076 816 1033 b 958 1058 901 1005 928 1029 b 1035 1139 988 1086 1014 1113 b 958 1220 1014 1164 988 1192 b 875 1292 928 1249 901 1272 b 736 1162 816 1245 770 1202 b 597 1292 692 1211 646 1254 b 511 1217 570 1271 541 1246 b 437 1139 480 1189 456 1163 b 597 986 475 1090 528 1039 z m 1160 945 l 1053 278 l 1046 278 l 896 945 l 618 945 l 469 278 l 463 278 l 326 945 l 28 945 l 249 -7 l 422 -7 b 537 3 469 -7 507 -4 b 618 40 567 10 594 22 b 677 115 642 59 662 84 b 718 240 693 147 706 189 l 753 392 l 846 -7 l 1026 -7 b 1141 3 1073 -7 1111 -4 b 1222 39 1171 9 1198 21 b 1279 115 1246 57 1265 83 b 1315 240 1294 147 1305 189 l 1444 945 z "},"ẅ":{"ha":1305,"x_min":0,"x_max":0,"o":"m 514 736 b 653 865 564 775 611 818 b 791 736 688 825 734 781 b 875 808 817 755 845 779 b 951 889 905 836 930 863 b 875 970 930 915 905 942 b 791 1042 845 998 817 1022 b 653 913 733 995 687 952 b 514 1042 612 958 566 1001 b 354 889 445 988 392 937 b 427 810 373 865 397 839 b 514 736 458 782 486 757 z m 1014 694 l 921 257 l 914 257 l 806 694 l 486 694 l 393 257 l 386 257 l 306 694 l 14 694 l 178 -7 l 355 -7 b 450 6 391 -7 422 -3 b 517 36 478 14 500 24 b 562 83 534 48 549 64 b 591 135 575 102 584 119 b 608 191 597 151 603 169 l 646 339 l 733 -7 l 911 -7 b 1005 5 946 -7 978 -3 b 1073 36 1033 14 1056 24 b 1117 82 1089 48 1104 63 b 1146 134 1130 101 1140 118 b 1164 191 1152 150 1158 169 l 1292 694 z "},"ẞ":{"ha":944,"x_min":0,"x_max":0,"o":"m 766 489 b 839 574 798 512 823 541 b 864 682 856 608 864 644 b 779 873 864 762 836 826 b 545 945 723 921 644 945 l 83 945 l 83 0 l 375 0 l 375 708 l 493 708 b 552 694 519 708 538 703 b 572 648 566 685 572 670 b 553 602 572 627 566 611 b 493 587 540 592 520 587 l 444 587 l 444 366 l 524 366 b 584 351 551 366 571 361 b 604 302 598 342 604 326 b 583 253 604 280 597 264 b 524 236 569 242 549 236 l 444 236 l 444 0 l 582 0 b 816 76 680 0 758 25 b 903 264 874 126 903 189 b 868 392 903 309 891 352 b 766 489 845 432 811 465 z "},"Ỳ":{"ha":1000,"x_min":0,"x_max":0,"o":"m 632 1111 l 361 1264 l 285 1125 l 570 1000 z m 972 945 l 673 945 l 510 643 l 503 643 l 340 945 l 28 945 l 354 349 l 354 0 l 646 0 l 646 349 z "},"ỳ":{"ha":847,"x_min":0,"x_max":0,"o":"m 555 861 l 285 1014 l 208 875 l 493 750 z m 778 694 l 500 694 b 498 558 500 643 499 598 b 493 439 497 518 495 478 b 482 337 490 399 487 366 b 464 261 477 309 471 284 b 438 211 457 239 449 222 b 403 195 428 200 416 195 b 358 223 380 195 365 204 b 347 319 351 242 347 274 l 347 694 l 69 694 l 69 250 b 82 144 69 210 73 175 b 116 68 91 113 102 87 b 166 20 130 48 147 32 b 224 -6 185 8 204 -1 b 285 -14 243 -11 264 -14 b 409 24 333 -14 374 -1 b 500 153 444 50 474 92 l 500 56 b 499 28 500 45 500 36 b 494 -1 499 21 497 11 b 482 -34 491 -14 487 -24 b 459 -63 477 -43 469 -53 b 423 -88 449 -73 437 -81 b 370 -105 409 -95 391 -100 b 297 -111 348 -109 324 -111 b 118 -98 235 -111 175 -107 b 139 -293 118 -179 125 -244 b 214 -312 152 -301 177 -307 b 334 -319 251 -317 291 -319 b 670 -225 486 -319 599 -288 b 778 56 742 -163 778 -69 z "},"–":{"ha":833,"x_min":0,"x_max":0,"o":"m 69 243 l 764 243 l 764 452 l 69 452 z "},"—":{"ha":1250,"x_min":0,"x_max":0,"o":"m 69 243 l 1181 243 l 1181 452 l 69 452 z "},"‘":{"ha":374,"x_min":0,"x_max":0,"o":"m 69 534 l 306 534 b 361 945 306 680 324 817 l 222 951 b 169 869 202 923 184 896 b 121 776 153 843 137 812 b 83 661 104 740 92 702 b 69 534 74 619 69 577 z "},"’":{"ha":374,"x_min":0,"x_max":0,"o":"m 153 528 b 207 610 173 556 191 584 b 254 703 222 636 238 668 b 292 819 271 739 283 777 b 306 945 301 860 306 902 l 69 945 b 14 534 69 800 51 664 z "},"‚":{"ha":374,"x_min":0,"x_max":0,"o":"m 153 -180 b 207 -98 173 -152 191 -125 b 254 -5 222 -72 238 -41 b 292 110 271 31 283 69 b 306 236 301 151 306 193 l 69 236 b 14 -174 69 92 51 -44 z "},"“":{"ha":680,"x_min":0,"x_max":0,"o":"m 69 534 l 306 534 b 361 945 306 680 324 817 l 222 951 b 169 869 202 923 184 896 b 121 776 153 843 137 812 b 83 661 104 740 92 702 b 69 534 74 619 69 577 z m 375 534 l 611 534 b 667 945 611 679 630 815 l 528 951 b 474 869 507 923 489 896 b 426 776 458 843 442 812 b 388 661 410 740 397 702 b 375 534 379 619 375 577 z "},"”":{"ha":680,"x_min":0,"x_max":0,"o":"m 153 528 b 207 610 173 556 191 584 b 254 703 222 636 238 668 b 292 819 271 739 283 777 b 306 945 301 860 306 902 l 69 945 b 14 534 69 800 51 664 z m 458 528 b 512 610 479 556 497 584 b 560 703 528 636 544 668 b 598 819 576 739 589 777 b 611 945 607 860 611 902 l 375 945 b 319 534 375 800 356 664 z "},"„":{"ha":680,"x_min":0,"x_max":0,"o":"m 153 -180 b 207 -98 173 -152 191 -125 b 254 -5 222 -72 238 -41 b 292 110 271 31 283 69 b 306 236 301 151 306 193 l 69 236 b 14 -174 69 92 51 -44 z m 458 -180 b 512 -98 479 -152 497 -125 b 560 -5 528 -72 544 -41 b 598 110 576 30 589 69 b 611 236 607 151 611 193 l 375 236 b 319 -174 375 92 356 -44 z "},"†":{"ha":749,"x_min":0,"x_max":0,"o":"m 681 750 l 486 750 l 486 945 l 264 945 l 264 750 l 69 750 l 69 528 l 264 528 l 264 0 l 486 0 l 486 528 l 681 528 z "},"‡":{"ha":749,"x_min":0,"x_max":0,"o":"m 681 528 l 681 750 l 486 750 l 486 945 l 264 945 l 264 750 l 69 750 l 69 528 l 264 528 l 264 416 l 69 416 l 69 195 l 264 195 l 264 0 l 486 0 l 486 195 l 681 195 l 681 416 l 486 416 l 486 528 z "},"•":{"ha":572,"x_min":0,"x_max":0,"o":"m 286 131 b 395 223 317 152 353 183 b 503 345 436 263 472 303 b 286 564 439 430 367 503 b 178 470 248 536 212 505 b 69 345 144 435 108 393 b 286 131 134 261 207 190 z "},"…":{"ha":1208,"x_min":0,"x_max":0,"o":"m 229 -14 b 389 139 287 30 340 81 b 229 292 340 197 287 248 b 69 139 160 238 107 187 b 229 -14 107 91 160 40 z m 604 -14 b 764 139 662 30 715 81 b 604 292 715 197 662 248 b 444 139 535 238 482 187 b 604 -14 482 91 535 40 z m 979 -14 b 1139 139 1037 30 1090 81 b 979 292 1090 197 1037 248 b 819 139 910 238 857 187 b 979 -14 857 91 910 40 z "},"‰":{"ha":1874,"x_min":0,"x_max":0,"o":"m 311 472 b 491 533 389 472 449 492 b 553 715 532 573 553 634 b 491 898 553 797 532 858 b 311 958 449 938 389 958 b 132 898 233 958 173 938 b 69 715 90 858 69 797 b 132 533 69 634 90 573 b 311 472 173 492 233 472 z m 340 0 l 562 0 l 979 945 l 757 945 z m 311 614 b 265 638 290 614 275 622 b 250 715 255 654 250 680 b 311 817 250 783 271 817 b 374 715 353 817 374 783 b 358 638 374 680 369 654 b 311 614 348 622 333 614 z m 1008 -14 b 1188 47 1087 -14 1146 7 b 1250 229 1229 87 1250 148 b 1188 412 1250 311 1229 371 b 1008 472 1146 452 1087 472 b 829 412 930 472 870 452 b 766 229 787 371 766 311 b 829 47 766 148 787 87 b 1008 -14 870 7 930 -14 z m 1564 -14 b 1743 47 1642 -14 1702 7 b 1805 229 1785 87 1805 148 b 1743 412 1805 311 1785 371 b 1564 472 1702 452 1642 472 b 1384 412 1486 472 1426 452 b 1322 229 1343 371 1322 311 b 1384 47 1322 148 1343 87 b 1564 -14 1426 7 1486 -14 z m 1008 127 b 962 152 988 127 972 136 b 947 229 952 168 947 194 b 1008 330 947 297 968 330 b 1071 229 1050 330 1071 297 b 1056 152 1071 194 1066 168 b 1008 127 1045 136 1030 127 z m 1564 127 b 1518 152 1543 127 1528 136 b 1503 229 1508 168 1503 194 b 1564 330 1503 297 1523 330 b 1626 229 1605 330 1626 297 b 1611 152 1626 194 1621 168 b 1564 127 1601 136 1585 127 z "},"‹":{"ha":513,"x_min":0,"x_max":0,"o":"m 278 56 l 486 56 l 250 347 l 486 639 l 278 639 l 28 347 z "},"›":{"ha":513,"x_min":0,"x_max":0,"o":"m 28 56 l 236 56 l 486 347 l 236 639 l 28 639 l 264 347 z "},"⁄":{"ha":694,"x_min":0,"x_max":0,"o":"m 28 0 l 195 0 l 667 945 l 500 945 z "},"⁰":{"ha":583,"x_min":0,"x_max":0,"o":"m 292 1092 b 106 1018 214 1092 153 1067 b 37 800 60 969 37 896 b 106 583 37 704 60 632 b 292 509 153 533 214 509 b 477 583 369 509 431 533 b 546 800 523 632 546 704 b 477 1018 546 896 523 969 b 292 1092 431 1067 369 1092 z m 292 650 b 234 687 265 650 246 662 b 216 800 222 711 216 749 b 234 913 216 851 222 889 b 292 950 246 938 265 950 b 349 913 318 950 338 938 b 367 800 361 889 367 851 b 349 687 367 749 361 711 b 292 650 338 662 318 650 z "},"⁴":{"ha":583,"x_min":0,"x_max":0,"o":"m 317 1083 l 50 758 l 50 608 l 317 608 l 317 517 l 492 517 l 492 608 l 533 608 l 533 758 l 492 758 l 492 1083 z m 229 758 l 317 867 l 317 758 z "},"⁵":{"ha":583,"x_min":0,"x_max":0,"o":"m 250 900 l 250 933 l 484 933 l 484 1083 l 104 1083 l 96 758 b 277 743 182 758 242 753 b 329 692 312 732 329 715 b 312 662 329 680 323 669 b 267 650 300 654 285 650 b 100 679 217 650 161 659 b 86 612 95 665 90 642 b 79 538 81 581 79 556 b 271 509 141 518 205 509 b 377 525 311 509 346 514 b 450 569 408 536 432 550 b 491 629 468 587 482 607 b 504 700 499 651 504 675 b 489 771 504 725 499 748 b 445 832 479 793 464 814 b 365 879 425 851 398 867 b 250 900 331 891 293 898 z "},"⁶":{"ha":583,"x_min":0,"x_max":0,"o":"m 353 892 b 245 867 310 892 274 883 b 280 934 251 898 263 921 b 349 954 297 948 320 954 b 482 929 388 954 432 946 b 496 997 487 943 492 966 b 503 1071 500 1028 503 1052 b 340 1092 445 1085 391 1092 b 132 1023 249 1092 180 1069 b 61 800 85 977 61 903 b 130 583 61 704 84 632 b 315 509 176 533 238 509 b 466 560 378 509 428 526 b 524 700 504 595 524 641 b 475 842 524 761 507 809 b 353 892 442 875 401 892 z m 302 650 b 243 746 268 650 248 682 b 294 758 261 754 279 758 b 353 704 333 758 353 740 b 339 665 353 688 348 675 b 302 650 329 655 317 650 z "},"⁷":{"ha":583,"x_min":0,"x_max":0,"o":"m 315 933 l 153 517 l 328 517 l 503 970 l 503 1083 l 82 1083 l 82 933 z "},"⁸":{"ha":583,"x_min":0,"x_max":0,"o":"m 446 817 b 525 933 498 843 525 882 b 512 988 525 952 521 970 b 474 1039 504 1006 491 1023 b 401 1077 457 1055 432 1068 b 292 1092 369 1087 333 1092 b 182 1077 250 1092 213 1087 b 107 1038 150 1068 125 1054 b 67 985 90 1021 76 1004 b 54 925 59 966 54 946 b 134 796 54 873 81 830 b 69 743 109 784 88 766 b 41 667 51 721 41 695 b 47 624 41 652 43 638 b 70 583 51 611 59 597 b 113 545 81 568 96 556 b 186 519 131 534 155 526 b 292 509 217 512 252 509 b 397 521 331 509 367 513 b 470 551 428 529 452 539 b 513 593 488 563 502 577 b 536 637 525 609 532 623 b 542 679 540 651 542 665 b 446 817 542 736 510 782 z m 292 958 b 334 947 310 958 324 955 b 350 921 345 940 350 931 b 309 875 350 904 336 888 b 241 925 264 886 241 902 b 254 949 241 935 245 942 b 292 958 262 955 274 958 z m 292 642 b 235 652 266 642 247 645 b 216 679 223 659 216 668 b 262 733 216 697 232 715 b 331 706 293 724 316 714 b 354 675 346 697 354 687 b 292 642 354 653 333 642 z "},"⁹":{"ha":583,"x_min":0,"x_max":0,"o":"m 269 1092 b 118 1040 207 1092 157 1075 b 61 900 80 1006 61 959 b 110 758 61 838 77 791 b 232 708 143 725 184 708 b 339 733 274 708 310 716 b 305 665 333 701 322 678 b 236 646 288 652 265 646 b 103 671 197 646 153 654 b 89 603 98 657 93 634 b 82 529 84 572 82 548 b 244 509 138 515 192 509 b 452 577 335 509 405 532 b 524 800 500 623 524 698 b 454 1018 524 896 500 969 b 269 1092 408 1067 347 1092 z m 232 896 b 246 935 232 912 237 925 b 282 950 255 945 267 950 b 342 854 316 950 336 918 b 290 842 322 846 305 842 b 232 896 251 842 232 860 z "},"₀":{"ha":583,"x_min":0,"x_max":0,"o":"m 292 436 b 106 362 214 436 153 411 b 37 144 60 313 37 240 b 106 -73 37 49 60 -24 b 292 -147 153 -123 214 -147 b 477 -73 369 -147 431 -123 b 546 144 523 -24 546 49 b 477 362 546 240 523 313 b 292 436 431 411 369 436 z m 292 -5 b 234 31 265 -5 246 7 b 216 144 222 56 216 93 b 234 257 216 195 222 233 b 292 294 246 282 265 294 b 349 258 318 294 338 282 b 367 144 361 233 367 196 b 349 31 367 93 361 56 b 292 -5 338 7 318 -5 z "},"₁":{"ha":583,"x_min":0,"x_max":0,"o":"m 379 11 l 379 428 l 245 428 l 69 339 l 117 184 l 204 232 l 204 11 l 69 11 l 69 -139 l 514 -139 l 514 11 z "},"₂":{"ha":583,"x_min":0,"x_max":0,"o":"m 311 11 b 453 140 379 57 426 101 b 494 269 481 180 494 223 b 438 389 494 318 476 358 b 278 436 401 420 347 436 b 86 407 212 436 148 426 b 93 333 86 388 88 364 b 107 265 97 302 102 279 b 249 294 161 285 208 294 b 301 279 271 294 289 289 b 319 236 313 269 319 255 b 270 144 319 206 303 175 b 78 -4 237 112 173 63 l 78 -139 l 507 -139 l 507 11 z "},"₃":{"ha":583,"x_min":0,"x_max":0,"o":"m 395 165 b 467 215 425 176 449 193 b 494 290 485 237 494 262 b 265 436 494 387 418 436 b 74 407 199 436 135 426 b 80 333 74 388 76 364 b 94 265 85 302 89 279 b 249 294 157 285 208 294 b 311 257 290 294 311 282 b 232 215 311 229 285 215 l 170 215 l 170 74 l 249 74 b 289 72 265 74 279 73 b 316 60 299 70 308 66 b 328 36 324 54 328 46 b 304 5 328 22 320 12 b 244 -5 288 -2 268 -5 b 94 24 192 -5 142 4 b 80 -44 89 10 85 -13 b 74 -118 76 -75 74 -99 b 265 -147 135 -137 199 -147 b 445 -104 340 -147 400 -133 b 511 24 489 -75 511 -33 b 479 113 511 59 501 89 b 395 165 458 137 430 154 z "},"₄":{"ha":583,"x_min":0,"x_max":0,"o":"m 317 428 l 50 103 l 50 -47 l 317 -47 l 317 -139 l 492 -139 l 492 -47 l 533 -47 l 533 103 l 492 103 l 492 428 z m 229 103 l 317 211 l 317 103 z "},"₅":{"ha":583,"x_min":0,"x_max":0,"o":"m 250 244 l 250 278 l 484 278 l 484 428 l 104 428 l 96 103 b 276 87 181 103 241 98 b 329 36 311 77 329 59 b 312 6 329 24 323 14 b 267 -5 300 -2 285 -5 b 100 24 217 -5 161 4 b 86 -44 95 10 90 -13 b 79 -118 81 -75 79 -99 b 271 -147 141 -137 205 -147 b 377 -131 311 -147 346 -142 b 450 -87 408 -120 432 -105 b 491 -26 468 -68 482 -48 b 504 45 499 -4 504 20 b 489 115 504 70 499 93 b 445 177 479 137 464 158 b 365 223 425 196 398 211 b 250 244 331 235 293 242 z "},"₆":{"ha":583,"x_min":0,"x_max":0,"o":"m 353 236 b 245 211 310 236 274 228 b 280 278 251 243 263 265 b 349 298 297 292 320 298 b 482 273 388 298 432 290 b 496 341 487 287 492 310 b 503 415 500 372 503 397 b 340 436 445 429 391 436 b 132 367 249 436 180 413 b 61 144 85 321 61 247 b 130 -73 61 49 84 -24 b 315 -147 176 -123 238 -147 b 466 -96 378 -147 428 -130 b 524 45 504 -61 524 -14 b 475 186 524 106 507 153 b 353 236 442 220 401 236 z m 302 -5 b 243 90 268 -5 248 26 b 294 103 263 99 280 103 b 353 49 333 103 353 85 b 339 9 353 33 348 19 b 302 -5 329 0 317 -5 z "},"₇":{"ha":583,"x_min":0,"x_max":0,"o":"m 315 278 l 153 -139 l 328 -139 l 503 314 l 503 428 l 82 428 l 82 278 z "},"₈":{"ha":583,"x_min":0,"x_max":0,"o":"m 446 161 b 525 278 498 188 525 227 b 512 333 525 297 521 315 b 474 383 504 351 491 367 b 401 421 457 399 432 412 b 292 436 369 431 333 436 b 182 421 250 436 213 431 b 107 382 150 412 125 399 b 67 329 90 366 76 348 b 54 269 59 310 54 290 b 134 140 54 217 81 174 b 69 87 109 128 88 110 b 41 11 51 65 41 39 b 47 -32 41 -4 43 -18 b 70 -73 51 -45 59 -59 b 113 -111 81 -88 96 -100 b 186 -137 131 -122 155 -130 b 292 -147 217 -144 252 -147 b 397 -135 331 -147 367 -143 b 470 -105 428 -127 452 -117 b 513 -63 488 -93 502 -79 b 536 -18 525 -47 532 -32 b 542 24 540 -4 542 10 b 446 161 542 81 510 127 z m 292 302 b 334 292 310 302 324 299 b 350 265 345 284 350 276 b 309 220 350 248 336 233 b 241 269 264 231 241 247 b 254 293 241 279 245 287 b 292 302 262 299 274 302 z m 292 -14 b 235 -3 266 -14 247 -10 b 216 24 223 3 216 12 b 262 78 216 42 232 60 b 331 51 293 68 316 59 b 354 20 346 42 354 31 b 292 -14 354 -2 333 -14 z "},"₉":{"ha":583,"x_min":0,"x_max":0,"o":"m 269 436 b 118 385 207 436 157 419 b 61 244 80 350 61 303 b 110 102 61 183 77 135 b 232 53 143 69 184 53 b 339 78 274 53 310 61 b 305 10 333 46 322 23 b 236 -9 288 -3 265 -9 b 103 16 197 -9 153 -1 b 89 -52 98 2 93 -21 b 82 -126 84 -83 82 -108 b 244 -147 139 -140 194 -147 b 452 -78 335 -147 405 -124 b 524 144 500 -32 524 42 b 454 362 524 240 500 313 b 269 436 408 411 347 436 z m 232 240 b 246 279 232 256 237 269 b 282 294 255 289 267 294 b 342 199 316 294 336 262 b 290 186 322 190 305 186 b 232 240 251 186 232 204 z "},"€":{"ha":1000,"x_min":0,"x_max":0,"o":"m 541 292 l 701 292 l 701 444 l 493 444 l 493 472 l 493 500 l 701 500 l 701 653 l 541 653 b 700 722 574 699 627 722 b 821 715 733 722 773 720 b 924 700 868 710 902 705 b 948 810 933 723 941 760 b 958 935 955 861 958 902 b 838 951 929 940 889 946 b 700 958 787 956 741 958 b 216 653 435 958 274 857 l 69 653 l 69 500 l 195 500 l 195 472 l 195 444 l 69 444 l 69 292 l 216 292 b 700 -14 274 88 435 -14 b 821 -6 733 -14 774 -11 b 924 9 869 -1 903 5 b 948 120 933 33 941 70 b 958 244 955 170 958 212 b 700 222 878 230 792 222 b 541 292 627 222 574 245 z "},"™":{"ha":1222,"x_min":0,"x_max":0,"o":"m 180 472 l 355 472 l 355 794 l 458 794 b 471 867 464 811 468 836 b 475 945 473 899 475 925 l 69 945 l 69 794 l 180 794 z m 529 472 l 688 472 l 688 746 l 690 746 l 745 472 l 928 472 l 982 746 l 986 746 l 986 472 l 1153 472 l 1153 945 l 1008 945 b 889 918 951 945 911 936 b 851 815 867 899 855 865 l 844 722 l 840 722 l 827 814 b 815 862 824 832 820 849 b 801 897 811 876 806 888 b 780 920 795 906 788 914 b 756 935 771 927 763 931 b 728 942 750 938 740 940 b 698 944 716 943 706 944 b 664 945 691 945 679 945 l 529 945 z "},"⅛":{"ha":1472,"x_min":0,"x_max":0,"o":"m 379 528 l 379 945 l 245 945 l 69 856 l 117 701 l 204 749 l 204 528 l 69 528 l 69 378 l 514 378 l 514 528 z m 431 0 l 597 0 l 1069 945 l 903 945 z m 1335 300 b 1414 416 1388 326 1414 365 b 1401 471 1414 435 1410 454 b 1363 522 1393 489 1380 506 b 1290 561 1346 538 1322 551 b 1181 575 1258 570 1222 575 b 1071 561 1139 575 1102 570 b 997 521 1039 551 1014 538 b 957 468 979 505 965 487 b 943 408 948 449 943 429 b 1022 279 943 355 970 312 b 958 227 998 267 976 250 b 930 150 940 204 930 178 b 936 107 930 135 932 121 b 959 66 940 94 948 80 b 1002 28 970 51 985 39 b 1075 2 1020 18 1044 9 b 1181 -8 1106 -5 1141 -8 b 1286 4 1220 -8 1256 -4 b 1359 34 1317 12 1341 22 b 1402 76 1377 46 1391 60 b 1424 121 1413 92 1421 107 b 1430 163 1428 135 1430 149 b 1335 300 1430 220 1398 265 z m 1181 441 b 1223 431 1199 441 1213 438 b 1239 404 1234 423 1239 415 b 1197 358 1239 387 1225 372 b 1131 408 1153 369 1131 386 b 1143 432 1131 418 1135 426 b 1181 441 1151 438 1164 441 z m 1181 125 b 1124 135 1155 125 1136 128 b 1105 163 1112 142 1105 151 b 1152 216 1105 180 1121 198 b 1220 189 1182 207 1205 198 b 1243 158 1235 180 1243 170 b 1181 125 1243 136 1222 125 z "},"⅜":{"ha":1444,"x_min":0,"x_max":0,"o":"m 395 682 b 467 732 425 693 449 710 b 494 807 485 754 494 779 b 265 953 494 904 418 953 b 74 924 199 953 135 943 b 80 849 74 905 76 880 b 94 782 85 818 89 796 b 249 811 157 801 208 811 b 311 774 290 811 311 799 b 232 732 311 746 285 732 l 170 732 l 170 590 l 249 590 b 307 583 274 590 294 588 b 328 553 321 578 328 568 b 304 522 328 539 320 529 b 244 511 288 515 268 511 b 94 541 192 511 142 521 b 80 473 89 526 85 504 b 74 399 76 442 74 417 b 265 370 135 379 199 370 b 445 413 340 370 400 384 b 511 541 489 441 511 484 b 479 630 511 576 501 606 b 395 682 458 653 430 671 z m 403 0 l 570 0 l 1042 945 l 875 945 z m 1307 300 b 1386 416 1360 326 1386 365 b 1374 471 1386 435 1382 454 b 1335 522 1365 489 1352 506 b 1262 561 1318 538 1294 551 b 1153 575 1230 570 1194 575 b 1043 561 1111 575 1075 570 b 969 521 1011 551 987 538 b 929 468 951 505 938 487 b 916 408 920 449 916 429 b 994 279 916 355 942 312 b 930 227 970 267 948 250 b 903 150 912 204 903 178 b 908 107 903 135 905 121 b 931 66 912 94 920 80 b 975 28 942 51 957 39 b 1047 2 992 18 1016 9 b 1153 -8 1078 -5 1113 -8 b 1259 4 1193 -8 1228 -4 b 1331 34 1289 12 1314 22 b 1374 76 1349 46 1363 60 b 1397 121 1385 92 1393 107 b 1402 163 1401 135 1402 149 b 1307 300 1402 220 1371 265 z m 1153 441 b 1196 431 1171 441 1185 438 b 1211 404 1206 423 1211 415 b 1169 358 1211 387 1197 372 b 1103 408 1125 369 1103 386 b 1115 432 1103 418 1107 426 b 1153 441 1123 438 1136 441 z m 1153 125 b 1096 135 1128 125 1109 128 b 1078 163 1084 142 1078 151 b 1124 216 1078 180 1093 198 b 1192 189 1154 207 1177 198 b 1215 158 1208 180 1215 170 b 1153 125 1215 136 1194 125 z "},"⅝":{"ha":1430,"x_min":0,"x_max":0,"o":"m 250 761 l 250 794 l 484 794 l 484 945 l 104 945 l 96 619 b 277 604 182 619 242 614 b 329 553 312 593 329 576 b 312 523 329 541 323 531 b 267 511 300 515 285 511 b 100 541 217 511 161 521 b 86 473 95 526 90 504 b 79 399 81 442 79 417 b 271 370 141 379 205 370 b 377 386 311 370 346 375 b 450 430 408 397 432 411 b 491 490 468 448 482 468 b 504 561 499 512 504 536 b 489 632 504 586 499 609 b 445 693 479 654 464 675 b 365 740 425 712 398 728 b 250 761 331 752 293 759 z m 389 0 l 555 0 l 1028 945 l 861 945 z m 1293 300 b 1372 416 1346 326 1372 365 b 1359 471 1372 435 1368 454 b 1321 522 1351 489 1338 506 b 1248 561 1304 538 1279 551 b 1139 575 1216 570 1180 575 b 1029 561 1097 575 1060 570 b 955 521 997 551 972 538 b 915 468 937 505 923 487 b 901 408 906 449 901 429 b 981 279 901 356 928 313 b 917 227 956 267 935 250 b 889 150 898 204 889 178 b 895 107 889 135 891 121 b 917 66 899 94 906 80 b 961 28 928 51 943 39 b 1033 2 978 18 1003 9 b 1139 -8 1064 -5 1099 -8 b 1244 4 1178 -8 1214 -4 b 1317 34 1275 12 1299 22 b 1360 76 1335 46 1349 60 b 1383 121 1372 92 1379 107 b 1389 163 1387 135 1389 149 b 1293 300 1389 220 1357 265 z m 1139 441 b 1181 431 1157 441 1171 438 b 1197 404 1192 423 1197 415 b 1156 358 1197 387 1183 372 b 1089 408 1111 369 1089 386 b 1139 441 1089 430 1106 441 z m 1139 125 b 1082 135 1113 125 1095 128 b 1064 163 1070 142 1064 151 b 1109 216 1064 181 1079 199 b 1179 189 1140 207 1163 198 b 1202 158 1194 180 1202 170 b 1139 125 1202 136 1181 125 z "},"⅞":{"ha":1347,"x_min":0,"x_max":0,"o":"m 315 794 l 153 378 l 328 378 l 503 831 l 503 945 l 82 945 l 82 794 z m 306 0 l 472 0 l 945 945 l 778 945 z m 1210 300 b 1289 416 1263 326 1289 365 b 1277 471 1289 435 1285 454 b 1238 522 1268 489 1255 506 b 1164 561 1221 538 1196 551 b 1055 575 1133 570 1096 575 b 945 561 1014 575 977 570 b 871 521 914 551 889 538 b 831 468 853 505 840 487 b 818 408 822 449 818 429 b 897 279 818 356 844 313 b 833 227 873 267 851 250 b 806 150 815 204 806 178 b 811 107 806 135 808 121 b 834 66 815 94 823 80 b 877 28 845 51 859 39 b 950 2 895 18 919 9 b 1055 -8 980 -5 1015 -8 b 1161 4 1095 -8 1130 -4 b 1234 34 1192 12 1216 22 b 1277 76 1251 46 1266 60 b 1300 121 1288 92 1296 107 b 1305 163 1304 135 1305 149 b 1210 300 1305 220 1274 265 z m 1055 441 b 1098 431 1073 441 1088 438 b 1114 404 1108 423 1114 415 b 1072 358 1114 387 1100 372 b 1006 408 1028 369 1006 386 b 1055 441 1006 430 1022 441 z m 1055 125 b 999 135 1030 125 1011 128 b 981 163 987 142 981 151 b 1026 216 981 181 996 199 b 1095 189 1057 207 1080 198 b 1118 158 1111 180 1118 170 b 1055 125 1118 136 1097 125 z "},"∂":{"ha":861,"x_min":0,"x_max":0,"o":"m 139 1014 l 139 806 b 500 619 325 806 446 743 b 432 625 475 623 452 625 b 144 541 309 625 213 597 b 41 306 76 485 41 406 b 144 71 41 205 76 127 b 432 -14 213 15 309 -14 b 557 -2 479 -14 520 -10 b 663 38 595 5 630 19 b 747 115 697 58 725 84 b 800 239 769 147 787 188 b 819 416 813 290 819 349 b 787 632 819 495 808 567 b 695 800 766 697 735 753 b 552 919 656 847 608 886 b 364 990 496 951 433 975 b 139 1014 295 1006 220 1014 z m 432 195 b 352 229 396 195 370 206 b 326 306 335 251 326 277 b 352 382 326 334 335 359 b 432 416 370 405 396 416 b 536 401 471 416 506 411 b 523 272 536 346 532 303 b 490 210 515 241 504 221 b 432 195 476 200 456 195 z "},"∅":{"ha":1083,"x_min":0,"x_max":0,"o":"m 1014 798 l 867 945 l 751 829 b 542 886 687 867 617 886 b 380 853 485 886 431 875 b 247 765 328 832 284 802 b 158 631 209 727 180 683 b 125 469 136 580 125 526 b 182 260 125 394 144 324 l 69 147 l 216 0 l 328 111 b 542 53 393 72 464 53 b 751 109 617 53 687 71 b 903 260 815 146 866 196 b 958 469 940 324 958 394 b 900 684 958 547 939 618 z m 334 469 b 395 617 334 527 354 576 b 542 677 435 657 484 677 b 593 671 557 677 574 675 l 340 418 b 334 469 336 437 334 454 z m 750 469 b 689 322 750 411 730 362 b 542 261 648 281 599 261 b 486 269 522 261 503 264 l 742 525 b 750 469 747 508 750 489 z "},"∏":{"ha":1014,"x_min":0,"x_max":0,"o":"m 83 0 l 375 0 l 375 694 l 639 694 l 639 0 l 930 0 l 930 945 l 83 945 z "},"∑":{"ha":847,"x_min":0,"x_max":0,"o":"m 41 0 l 770 0 b 795 124 780 30 789 71 b 806 250 802 177 806 219 l 416 250 l 600 485 l 437 694 l 764 694 b 785 811 773 722 780 760 b 791 945 789 861 791 906 l 61 945 b 66 715 61 849 63 772 l 248 485 l 49 229 b 41 0 44 189 41 112 z "},"−":{"ha":694,"x_min":0,"x_max":0,"o":"m 69 368 l 625 368 l 625 576 l 69 576 z "},"√":{"ha":1042,"x_min":0,"x_max":0,"o":"m 429 -7 l 519 -7 b 631 3 565 -7 602 -4 b 708 42 660 10 685 23 b 764 117 731 61 749 86 b 808 240 779 147 793 188 l 1014 945 l 785 945 l 595 278 l 587 278 l 514 576 l 69 576 l 69 368 l 330 368 z "},"∞":{"ha":1194,"x_min":0,"x_max":0,"o":"m 319 222 b 463 255 371 222 418 233 b 597 345 507 277 552 307 b 732 255 643 307 688 277 b 875 222 776 233 824 222 b 1052 296 944 222 1002 247 b 1125 472 1101 345 1125 403 b 1052 649 1125 541 1101 600 b 875 722 1002 698 944 722 b 732 690 824 722 776 711 b 597 600 688 668 643 638 b 463 690 552 638 507 668 b 319 722 418 711 371 722 b 143 649 251 722 192 698 b 69 472 94 600 69 541 b 143 296 69 403 94 345 b 319 222 192 247 251 222 z m 319 403 b 271 423 300 403 284 410 b 250 472 257 437 250 453 b 271 521 250 491 257 507 b 319 542 285 535 301 542 b 457 472 356 542 402 519 b 319 403 402 426 356 403 z m 875 403 b 737 472 838 403 792 426 b 875 542 792 519 838 542 b 924 521 894 542 910 535 b 945 472 938 507 945 491 b 924 423 945 453 938 437 b 875 403 910 410 894 403 z "},"∫":{"ha":903,"x_min":0,"x_max":0,"o":"m 708 1014 b 570 999 657 1014 611 1009 b 457 951 528 988 490 972 b 374 864 423 929 395 900 b 332 736 353 828 338 785 l 224 -41 b 140 -111 217 -88 189 -111 b -3 -85 95 -111 47 -102 b -43 -186 -16 -110 -29 -144 b -69 -293 -56 -228 -65 -264 b 125 -319 -9 -311 55 -319 b 263 -304 175 -319 222 -314 b 376 -256 305 -294 342 -278 b 459 -170 410 -235 437 -206 b 501 -41 480 -133 494 -91 l 610 736 b 693 806 616 782 644 806 b 836 779 739 806 786 797 b 876 881 849 805 863 838 b 903 987 890 923 899 958 b 708 1014 843 1005 778 1014 z "},"≈":{"ha":694,"x_min":0,"x_max":0,"o":"m 69 514 l 250 514 b 262 549 250 529 254 541 b 292 562 269 558 279 562 b 368 538 303 562 328 554 b 465 514 407 522 440 514 b 529 526 489 514 510 518 b 579 565 547 534 564 547 b 613 643 594 584 605 609 b 625 764 621 676 625 717 l 444 764 b 433 728 444 749 440 737 b 403 715 425 720 415 715 b 327 740 392 715 366 723 b 229 764 287 756 255 764 b 166 752 205 764 184 760 b 116 712 148 744 131 731 b 81 635 100 694 89 668 b 69 514 73 601 69 561 z m 69 180 l 250 180 b 262 216 250 195 254 207 b 292 229 269 225 279 229 b 368 205 303 229 328 221 b 465 180 407 189 440 180 b 529 193 489 180 510 184 b 579 232 547 201 564 214 b 613 310 594 251 605 276 b 625 431 621 343 625 384 l 444 431 b 433 395 444 416 440 404 b 403 382 425 386 415 382 b 327 406 392 382 366 390 b 229 431 287 422 255 431 b 166 418 205 431 184 427 b 116 379 148 410 131 397 b 81 301 100 360 89 335 b 69 180 73 268 69 227 z "},"≠":{"ha":694,"x_min":0,"x_max":0,"o":"m 625 534 l 625 743 l 486 743 l 521 882 l 382 882 l 347 743 l 69 743 l 69 534 l 293 534 l 262 410 l 69 410 l 69 201 l 208 201 l 174 62 l 313 62 l 347 201 l 625 201 l 625 410 l 401 410 l 432 534 z "},"≤":{"ha":694,"x_min":0,"x_max":0,"o":"m 625 313 l 625 521 l 353 611 l 625 701 l 625 909 l 69 715 l 69 507 z m 69 49 l 625 49 l 625 257 l 69 257 z "},"≥":{"ha":694,"x_min":0,"x_max":0,"o":"m 69 313 l 625 507 l 625 715 l 69 909 l 69 701 l 342 611 l 69 521 z m 69 49 l 625 49 l 625 257 l 69 257 z "},"◊":{"ha":847,"x_min":0,"x_max":0,"o":"m 319 0 l 528 0 l 778 472 l 528 945 l 319 945 l 69 472 z m 424 249 l 306 472 l 424 697 l 542 472 z "},"ﬁ":{"ha":1055,"x_min":0,"x_max":0,"o":"m 847 736 b 930 808 873 755 901 779 b 1007 889 960 836 986 863 b 930 970 986 915 960 942 b 847 1042 901 998 873 1022 b 688 889 779 989 726 938 b 761 810 707 865 731 838 b 847 736 791 782 819 757 z m 469 806 b 615 779 515 806 563 797 b 641 881 625 805 633 838 b 653 987 649 923 653 958 b 456 1014 591 1005 525 1014 b 319 999 405 1014 360 1009 b 213 951 279 988 244 972 b 143 864 183 929 159 900 b 118 736 126 828 118 785 l 118 694 l 28 694 b 14 486 18 629 14 560 l 118 486 l 118 0 l 396 0 l 396 494 b 585 486 447 489 510 486 b 594 517 586 490 589 501 b 603 549 599 534 602 545 b 610 574 604 553 607 561 b 617 604 614 588 616 597 b 621 630 618 610 619 619 b 625 662 623 641 624 651 b 625 694 625 672 625 683 b 396 675 547 694 470 688 l 396 736 b 469 806 396 782 420 806 z m 708 0 l 986 0 l 986 694 l 708 694 z "},"ﬂ":{"ha":1055,"x_min":0,"x_max":0,"o":"m 469 806 b 615 779 515 806 563 797 b 641 881 625 805 633 838 b 653 987 649 923 653 958 b 456 1014 591 1005 525 1014 b 319 999 405 1014 360 1009 b 213 951 279 988 244 972 b 143 864 183 929 159 900 b 118 736 126 828 118 785 l 118 694 l 28 694 b 14 486 18 629 14 560 l 118 486 l 118 0 l 396 0 l 396 494 b 585 486 447 489 510 486 b 594 517 586 490 589 501 b 603 549 599 534 602 545 b 610 574 604 553 607 561 b 617 604 614 588 616 597 b 621 630 618 610 619 619 b 625 662 623 641 624 651 b 625 694 625 672 625 683 b 396 675 547 694 470 688 l 396 736 b 469 806 396 782 420 806 z m 708 1000 l 708 0 l 986 0 l 986 1000 z "}}}
